<?xml version="1.0" encoding="UTF-8" standalone="no"?>
<svg xmlns:dc="http://purl.org/dc/elements/1.1/" xmlns:cc="http://creativecommons.org/ns#" xmlns:rdf="http://www.w3.org/1999/02/22-rdf-syntax-ns#" xmlns:svg="http://www.w3.org/2000/svg" xmlns="http://www.w3.org/2000/svg" xmlns:sodipodi="http://sodipodi.sourceforge.net/DTD/sodipodi-0.dtd" xmlns:inkscape="http://www.inkscape.org/namespaces/inkscape" width="32px" height="32px" viewBox="0 0 32 32.000001" id="svg2" version="1.1" inkscape:version="0.91 r13725" sodipodi:docname="13.svg">
  <defs id="defs4"/>
  <sodipodi:namedview id="base" pagecolor="#ffffff" bordercolor="#666666" borderopacity="1.0" inkscape:pageopacity="0.0" inkscape:pageshadow="2" inkscape:zoom="16" inkscape:cx="28.731266" inkscape:cy="12.321014" inkscape:document-units="px" inkscape:current-layer="layer1" showgrid="true" units="px" inkscape:snap-bbox="true" inkscape:bbox-paths="true" inkscape:bbox-nodes="true" inkscape:snap-bbox-edge-midpoints="true" inkscape:snap-bbox-midpoints="true" inkscape:window-width="1920" inkscape:window-height="1027" inkscape:window-x="-8" inkscape:window-y="-8" inkscape:window-maximized="1">
    <inkscape:grid type="xygrid" id="grid3336"/>
  </sodipodi:namedview>
  
  <g inkscape:label="Layer 1" inkscape:groupmode="layer" id="layer1" transform="translate(0,-1020.3622)">
    <path style="color:#000000;font-style:normal;font-variant:normal;font-weight:normal;font-stretch:normal;font-size:medium;line-height:normal;font-family:sans-serif;text-indent:0;text-align:start;text-decoration:none;text-decoration-line:none;text-decoration-style:solid;text-decoration-color:#000000;letter-spacing:normal;word-spacing:normal;text-transform:none;direction:ltr;block-progression:tb;writing-mode:lr-tb;baseline-shift:baseline;text-anchor:start;white-space:normal;clip-rule:nonzero;display:inline;overflow:visible;visibility:visible;opacity:1;isolation:auto;mix-blend-mode:normal;color-interpolation:sRGB;color-interpolation-filters:linearRGB;solid-color:#000000;solid-opacity:1;fill:#000000;fill-opacity:1;fill-rule:nonzero;stroke:none;stroke-width:0.99999964;stroke-linecap:round;stroke-linejoin:round;stroke-miterlimit:4;stroke-dasharray:none;stroke-dashoffset:6.39999819;stroke-opacity:1;color-rendering:auto;image-rendering:auto;shape-rendering:auto;text-rendering:auto;enable-background:accumulate" d="M 21.382812 4 C 20.192393 4 19.210486 4.8865454 19.037109 6.03125 C 18.5876 6.0922147 18.147952 6.2427887 17.744141 6.4824219 C 16.660919 7.1251219 15.999973 8.3093844 16 9.5839844 L 16 10.083984 L 17 10.083984 L 17 11 L 18 11 L 18 10.083984 L 19 10.083984 L 19 11 L 20 11 L 20 10.083984 L 21 10.083984 L 21 11 L 22 11 L 22 10.083984 L 22.5 10.083984 L 23 10.083984 L 23 9.5839844 C 23.000027 8.3093844 22.339081 7.1251219 21.255859 6.4824219 C 20.876831 6.2574958 20.465679 6.1143906 20.044922 6.046875 C 20.193234 5.4397921 20.726498 5 21.382812 5 L 25.617188 5 C 26.391222 5 27 5.6095188 27 6.3867188 L 27 16 L 13.996094 16 A 0.5004949 0.5004949 0 0 0 13.982422 15.822266 C 13.716316 14.801266 12.819598 14.111328 11.8125 14.111328 C 11.664361 14.111328 11.526506 14.167266 11.382812 14.197266 C 11.001024 13.458766 10.331057 12.902344 9.484375 12.902344 L 9.484375 12.904297 C 8.6712069 12.904297 7.970569 13.361537 7.578125 14.023438 C 7.296907 14.084262 7.0369657 14.204254 6.8085938 14.375 C 6.2900974 13.841214 5.5902849 13.509 4.828125 13.507812 C 3.4049536 13.507812 2.2435652 14.603298 2.0410156 16 L 2 16 C 1.4546484 16 1 16.4547 1 17 L 1 19 C 1 19.5454 1.4546484 20 2 20 L 2 24 C 2 26.2074 3.7926487 28 6 28 L 6 29 L 7 29 L 7 28 L 25 28 L 25 29 L 26 29 L 26 28 C 28.207351 28 30 26.2074 30 24 L 30 20 C 30.545352 20 31 19.5454 31 19 L 31 17 C 31 16.4547 30.545352 16 30 16 L 28 16 L 28 6.3867188 C 28 5.0740188 26.928952 4 25.617188 4 L 21.382812 4 z M 19.5 6.9980469 C 19.92877 6.9980469 20.357541 7.11435 20.744141 7.34375 C 21.368261 7.71405 21.724848 8.3675844 21.869141 9.0839844 L 19.5 9.0839844 L 17.130859 9.0839844 C 17.275152 8.3675844 17.631739 7.71405 18.255859 7.34375 C 18.642459 7.11435 19.07123 6.9980469 19.5 6.9980469 z M 17 12 L 17 13 L 18 13 L 18 12 L 17 12 z M 19 12 L 19 13 L 20 13 L 20 12 L 19 12 z M 21 12 L 21 13 L 22 13 L 22 12 L 21 12 z M 9.484375 13.904297 C 10.040044 13.904297 10.533151 14.286587 10.685547 14.867188 A 0.50004982 0.50004982 0 0 0 11.359375 15.203125 C 11.505735 15.143125 11.658646 15.111328 11.8125 15.111328 C 12.354071 15.111328 12.800246 15.436673 12.980469 16 L 3.046875 16 C 3.2311884 15.136335 3.9607225 14.507812 4.828125 14.507812 C 5.4001268 14.508713 5.9299554 14.788712 6.2734375 15.257812 A 0.50004982 0.50004982 0 0 0 6.2949219 15.287109 A 0.50005 0.50005 0 0 0 7.1816406 15.392578 C 7.3558879 15.144078 7.6327369 14.990403 7.9355469 14.970703 A 0.50024408 0.50024408 0 0 0 8.4101562 14.564453 C 8.627905 14.167078 9.0237018 13.904297 9.484375 13.904297 z M 17 14 L 17 15 L 18 15 L 18 14 L 17 14 z M 19 14 L 19 15 L 20 15 L 20 14 L 19 14 z M 21 14 L 21 15 L 22 15 L 22 14 L 21 14 z M 2 17 L 30 17 L 30 19 L 2 19 L 2 17 z M 3 20 L 29 20 L 29 24 C 29 25.6707 27.670649 27 26 27 L 7 27 L 6 27 C 4.3293513 27 3 25.6707 3 24 L 3 20 z " transform="translate(0,1020.3622)" id="path7866"/>
  </g>

	
	
	<metadata>
		<rdf:RDF xmlns:rdf="http://www.w3.org/1999/02/22-rdf-syntax-ns#" xmlns:rdfs="http://www.w3.org/2000/01/rdf-schema#" xmlns:dc="http://purl.org/dc/elements/1.1/">
			<rdf:Description about="https://iconscout.com/legal#licenses" dc:title="Bathtub, Bathroom, Shower, Towel, Tub, Wash" dc:description="Bathtub, Bathroom, Shower, Towel, Tub, Wash" dc:publisher="Iconscout" dc:date="2016-12-14" dc:format="image/svg+xml" dc:language="en">
				<dc:creator>
					<rdf:Bag>
						<rdf:li>Jemis Mali</rdf:li>
					</rdf:Bag>
				</dc:creator>
			</rdf:Description>
		</rdf:RDF>
    </metadata></svg>
