<?xml version="1.0" encoding="UTF-8" standalone="no"?>
<svg xmlns:dc="http://purl.org/dc/elements/1.1/" xmlns:cc="http://creativecommons.org/ns#" xmlns:rdf="http://www.w3.org/1999/02/22-rdf-syntax-ns#" xmlns:svg="http://www.w3.org/2000/svg" xmlns="http://www.w3.org/2000/svg" xmlns:sodipodi="http://sodipodi.sourceforge.net/DTD/sodipodi-0.dtd" xmlns:inkscape="http://www.inkscape.org/namespaces/inkscape" width="32px" height="32px" viewBox="0 0 32 32.000001" id="svg2" version="1.1" inkscape:version="0.91 r13725" sodipodi:docname="12.svg">
  <defs id="defs4"/>
  <sodipodi:namedview id="base" pagecolor="#ffffff" bordercolor="#666666" borderopacity="1.0" inkscape:pageopacity="0.0" inkscape:pageshadow="2" inkscape:zoom="16" inkscape:cx="28.731266" inkscape:cy="12.321014" inkscape:document-units="px" inkscape:current-layer="layer1" showgrid="true" units="px" inkscape:snap-bbox="true" inkscape:bbox-paths="true" inkscape:bbox-nodes="true" inkscape:snap-bbox-edge-midpoints="true" inkscape:snap-bbox-midpoints="true" inkscape:window-width="1920" inkscape:window-height="1027" inkscape:window-x="-8" inkscape:window-y="-8" inkscape:window-maximized="1">
    <inkscape:grid type="xygrid" id="grid3336"/>
  </sodipodi:namedview>
  
  <g inkscape:label="Layer 1" inkscape:groupmode="layer" id="layer1" transform="translate(0,-1020.3622)">
    <path style="color:#000000;font-style:normal;font-variant:normal;font-weight:normal;font-stretch:normal;font-size:medium;line-height:normal;font-family:sans-serif;text-indent:0;text-align:start;text-decoration:none;text-decoration-line:none;text-decoration-style:solid;text-decoration-color:#000000;letter-spacing:normal;word-spacing:normal;text-transform:none;direction:ltr;block-progression:tb;writing-mode:lr-tb;baseline-shift:baseline;text-anchor:start;white-space:normal;clip-rule:nonzero;display:inline;overflow:visible;visibility:visible;opacity:1;isolation:auto;mix-blend-mode:normal;color-interpolation:sRGB;color-interpolation-filters:linearRGB;solid-color:#000000;solid-opacity:1;fill:#000000;fill-opacity:1;fill-rule:evenodd;stroke:none;stroke-width:1;stroke-linecap:butt;stroke-linejoin:miter;stroke-miterlimit:4;stroke-dasharray:none;stroke-dashoffset:0;stroke-opacity:1;color-rendering:auto;image-rendering:auto;shape-rendering:auto;text-rendering:auto;enable-background:accumulate" d="M 0.5 5 A 0.50005 0.50005 0 0 0 0 5.5 L 0 7.5 A 0.50005 0.50005 0 0 0 0.5 8 L 2 8 L 2 14.996094 L 2 30.498047 A 0.50005 0.50005 0 0 0 2.5 30.998047 L 4.5 30.998047 A 0.50005 0.50005 0 0 0 5 30.498047 L 5 15 L 27 15 L 27 30.498047 A 0.50005 0.50005 0 0 0 27.5 30.998047 L 29.5 30.998047 A 0.50005 0.50005 0 0 0 30 30.498047 L 30 15 L 30.017578 15 L 30.017578 14 L 30 14 L 30 8 L 31.5 8 A 0.50005 0.50005 0 0 0 32 7.5 L 32 5.5 A 0.50005 0.50005 0 0 0 31.5 5 L 0.5 5 z M 1 6 L 31 6 L 31 7 L 30 7 L 29 7 L 1 7 L 1 6 z M 3 8 L 11.027344 8 L 11.027344 14 L 4.5507812 14 A 0.50005 0.50005 0 0 0 4.5 13.998047 L 3 13.998047 L 3 8 z M 12.027344 8 L 20.027344 8 L 20.027344 14 L 12.027344 14 L 12.027344 8 z M 21.027344 8 L 29 8 L 29 13.998047 L 27.5 13.998047 A 0.50005 0.50005 0 0 0 27.449219 14 L 21.027344 14 L 21.027344 8 z M 5.0175781 9 L 5.0175781 10 L 9.0175781 10 L 9.0175781 9 L 5.0175781 9 z M 14.017578 9 L 14.017578 10 L 18.017578 10 L 18.017578 9 L 14.017578 9 z M 23.017578 9 L 23.017578 10 L 27.017578 10 L 27.017578 9 L 23.017578 9 z M 3 15 L 4 15 L 4 29.998047 L 3 29.998047 L 3 15 z M 28 15 L 29 15 L 29 29.998047 L 28 29.998047 L 28 15 z " transform="translate(0,1020.3622)" id="path5043"/>
  </g>

	
	
	<metadata>
		<rdf:RDF xmlns:rdf="http://www.w3.org/1999/02/22-rdf-syntax-ns#" xmlns:rdfs="http://www.w3.org/2000/01/rdf-schema#" xmlns:dc="http://purl.org/dc/elements/1.1/">
			<rdf:Description about="https://iconscout.com/legal#licenses" dc:title="Books, Imitation, Drawer, Study, Table, Furniture, Furnishing, Household" dc:description="Books, Imitation, Drawer, Study, Table, Furniture, Furnishing, Household" dc:publisher="Iconscout" dc:date="2016-12-14" dc:format="image/svg+xml" dc:language="en">
				<dc:creator>
					<rdf:Bag>
						<rdf:li>Jemis Mali</rdf:li>
					</rdf:Bag>
				</dc:creator>
			</rdf:Description>
		</rdf:RDF>
    </metadata></svg>
