<?xml version="1.0" encoding="UTF-8" standalone="no"?>
<svg xmlns:dc="http://purl.org/dc/elements/1.1/" xmlns:cc="http://creativecommons.org/ns#" xmlns:rdf="http://www.w3.org/1999/02/22-rdf-syntax-ns#" xmlns:svg="http://www.w3.org/2000/svg" xmlns="http://www.w3.org/2000/svg" xmlns:sodipodi="http://sodipodi.sourceforge.net/DTD/sodipodi-0.dtd" xmlns:inkscape="http://www.inkscape.org/namespaces/inkscape" width="32px" height="32px" viewBox="0 0 32 32.000001" id="svg2" version="1.1" inkscape:version="0.91 r13725" sodipodi:docname="3.svg">
  <defs id="defs4"/>
  <sodipodi:namedview id="base" pagecolor="#ffffff" bordercolor="#666666" borderopacity="1.0" inkscape:pageopacity="0.0" inkscape:pageshadow="2" inkscape:zoom="22.627417" inkscape:cx="17.962539" inkscape:cy="17.03852" inkscape:document-units="px" inkscape:current-layer="layer1" showgrid="true" units="px" inkscape:snap-bbox="true" inkscape:bbox-paths="true" inkscape:bbox-nodes="true" inkscape:snap-bbox-edge-midpoints="true" inkscape:snap-bbox-midpoints="true" inkscape:window-width="1920" inkscape:window-height="1027" inkscape:window-x="-8" inkscape:window-y="-8" inkscape:window-maximized="1">
    <inkscape:grid type="xygrid" id="grid3336"/>
  </sodipodi:namedview>
  
  <g inkscape:label="Layer 1" inkscape:groupmode="layer" id="layer1" transform="translate(0,-1020.3622)">
    <path style="color:#000000;font-style:normal;font-variant:normal;font-weight:normal;font-stretch:normal;font-size:medium;line-height:normal;font-family:sans-serif;text-indent:0;text-align:start;text-decoration:none;text-decoration-line:none;text-decoration-style:solid;text-decoration-color:#000000;letter-spacing:normal;word-spacing:normal;text-transform:none;direction:ltr;block-progression:tb;writing-mode:lr-tb;baseline-shift:baseline;text-anchor:start;white-space:normal;clip-rule:nonzero;display:inline;overflow:visible;visibility:visible;opacity:1;isolation:auto;mix-blend-mode:normal;color-interpolation:sRGB;color-interpolation-filters:linearRGB;solid-color:#000000;solid-opacity:1;fill:#000000;fill-opacity:1;fill-rule:evenodd;stroke:none;stroke-width:0.98180413px;stroke-linecap:butt;stroke-linejoin:miter;stroke-miterlimit:4;stroke-dasharray:none;stroke-dashoffset:0;stroke-opacity:1;color-rendering:auto;image-rendering:auto;shape-rendering:auto;text-rendering:auto;enable-background:accumulate" d="M 0.5 0 A 0.50005 0.50005 0 0 0 0 0.5 L 0 2.5 A 0.50005 0.50005 0 0 0 0.5 3 L 1 3 L 1 11 L 1 12 L 1 20 L 1 21 L 1 30 L 1 31.998047 L 1.9824219 31.998047 L 1.9824219 30 L 14.017578 30 L 14.017578 31.998047 L 15 31.998047 L 15 3 L 28 3 L 28 31.5 A 0.50005 0.50005 0 0 0 28.5 32 L 30.5 32 A 0.50005 0.50005 0 0 0 31 31.5 L 31 3 L 31.5 3 A 0.50005 0.50005 0 0 0 32 2.5 L 32 0.5 A 0.50005 0.50005 0 0 0 31.5 0 L 0.5 0 z M 1 1 L 31 1 L 31 2 L 15 2 L 1.9824219 2 L 1 2 L 1 1 z M 1.9824219 3 L 14.017578 3 L 14.017578 11 L 1.9824219 11 L 1.9824219 3 z M 29 3 L 30 3 L 30 31 L 29 31 L 29 3 z M 4.9980469 6 L 4.9980469 6.5761719 C 4.9980469 7.3789719 5.6974812 8 6.5 8 L 9.5019531 8 C 10.304472 8 11.001953 7.3789719 11.001953 6.5761719 L 11.001953 6 L 10.001953 6 L 10.001953 6.5761719 C 10.001953 6.7983719 9.8081727 7 9.5019531 7 L 6.5 7 C 6.1937816 7 5.9980469 6.7983719 5.9980469 6.5761719 L 5.9980469 6 L 4.9980469 6 z M 1.9824219 12 L 14.017578 12 L 14.017578 20 L 1.9824219 20 L 1.9824219 12 z M 4.9980469 15 L 4.9980469 15.576172 C 4.9980469 16.378972 5.6974812 17 6.5 17 L 9.5019531 17 C 10.304472 17 11.001953 16.378972 11.001953 15.576172 L 11.001953 15 L 10.001953 15 L 10.001953 15.576172 C 10.001953 15.798372 9.8081727 16 9.5019531 16 L 6.5 16 C 6.1937816 16 5.9980469 15.798372 5.9980469 15.576172 L 5.9980469 15 L 4.9980469 15 z M 1.9824219 21 L 14.017578 21 L 14.017578 29.019531 L 1.9824219 29.019531 L 1.9824219 21 z M 4.9980469 24 L 4.9980469 24.576172 C 4.9980469 25.378972 5.6974812 26 6.5 26 L 9.5019531 26 C 10.304472 26 11.001953 25.378972 11.001953 24.576172 L 11.001953 24 L 10.001953 24 L 10.001953 24.576172 C 10.001953 24.798372 9.8081727 25 9.5019531 25 L 6.5 25 C 6.1937816 25 5.9980469 24.798372 5.9980469 24.576172 L 5.9980469 24 L 4.9980469 24 z " transform="translate(0,1020.3622)" id="rect4561"/>
  </g>

	
	
	<metadata>
		<rdf:RDF xmlns:rdf="http://www.w3.org/1999/02/22-rdf-syntax-ns#" xmlns:rdfs="http://www.w3.org/2000/01/rdf-schema#" xmlns:dc="http://purl.org/dc/elements/1.1/">
			<rdf:Description about="https://iconscout.com/legal#licenses" dc:title="Books, Imitation, Drawer, Study, Computer, Table, Furniture, Furnishing, Household" dc:description="Books, Imitation, Drawer, Study, Computer, Table, Furniture, Furnishing, Household" dc:publisher="Iconscout" dc:date="2016-12-14" dc:format="image/svg+xml" dc:language="en">
				<dc:creator>
					<rdf:Bag>
						<rdf:li>Jemis Mali</rdf:li>
					</rdf:Bag>
				</dc:creator>
			</rdf:Description>
		</rdf:RDF>
    </metadata></svg>
