<?xml version="1.0" encoding="UTF-8" standalone="no"?>
<svg xmlns:dc="http://purl.org/dc/elements/1.1/" xmlns:cc="http://creativecommons.org/ns#" xmlns:rdf="http://www.w3.org/1999/02/22-rdf-syntax-ns#" xmlns:svg="http://www.w3.org/2000/svg" xmlns="http://www.w3.org/2000/svg" xmlns:sodipodi="http://sodipodi.sourceforge.net/DTD/sodipodi-0.dtd" xmlns:inkscape="http://www.inkscape.org/namespaces/inkscape" width="32px" height="32px" viewBox="0 0 32 32.000001" id="svg2" version="1.1" inkscape:version="0.91 r13725" sodipodi:docname="11.svg">
  <defs id="defs4"/>
  <sodipodi:namedview id="base" pagecolor="#ffffff" bordercolor="#666666" borderopacity="1.0" inkscape:pageopacity="0.0" inkscape:pageshadow="2" inkscape:zoom="16" inkscape:cx="28.397405" inkscape:cy="16.35585" inkscape:document-units="px" inkscape:current-layer="layer1" showgrid="true" units="px" inkscape:snap-bbox="true" inkscape:bbox-paths="true" inkscape:bbox-nodes="true" inkscape:snap-bbox-edge-midpoints="true" inkscape:snap-bbox-midpoints="true" inkscape:window-width="1920" inkscape:window-height="1027" inkscape:window-x="-8" inkscape:window-y="-8" inkscape:window-maximized="1">
    <inkscape:grid type="xygrid" id="grid3336"/>
  </sodipodi:namedview>
  
  <g inkscape:label="Layer 1" inkscape:groupmode="layer" id="layer1" transform="translate(0,-1020.3622)">
    <path style="color:#000000;font-style:normal;font-variant:normal;font-weight:normal;font-stretch:normal;font-size:medium;line-height:normal;font-family:sans-serif;text-indent:0;text-align:start;text-decoration:none;text-decoration-line:none;text-decoration-style:solid;text-decoration-color:#000000;letter-spacing:normal;word-spacing:normal;text-transform:none;direction:ltr;block-progression:tb;writing-mode:lr-tb;baseline-shift:baseline;text-anchor:start;white-space:normal;clip-rule:nonzero;display:inline;overflow:visible;visibility:visible;opacity:1;isolation:auto;mix-blend-mode:normal;color-interpolation:sRGB;color-interpolation-filters:linearRGB;solid-color:#000000;solid-opacity:1;fill:#000000;fill-opacity:1;fill-rule:nonzero;stroke:none;stroke-width:1;stroke-linecap:round;stroke-linejoin:round;stroke-miterlimit:4;stroke-dasharray:none;stroke-dashoffset:0;stroke-opacity:1;color-rendering:auto;image-rendering:auto;shape-rendering:auto;text-rendering:auto;enable-background:accumulate" d="M 0.5 6 A 0.50005 0.50005 0 0 0 0 6.5 L 0 8.5 A 0.50005 0.50005 0 0 0 0.5 9 L 2 9 L 2 21.5 C 2 22.8764 3.1236414 24 4.5 24 L 5 24 L 5 25.5 A 0.50005 0.50005 0 0 0 5.5 26 L 6 26 L 7 26 L 7.5 26 A 0.50005 0.50005 0 0 0 8 25.5 L 8 24 L 24 24 L 24 25.5 A 0.50005 0.50005 0 0 0 24.5 26 L 25 26 L 26 26 L 26.5 26 A 0.50005 0.50005 0 0 0 27 25.5 L 27 24 L 27.5 24 C 28.876358 24 30 22.8764 30 21.5 L 30 9 L 31.5 9 A 0.50005 0.50005 0 0 0 32 8.5 L 32 6.5 A 0.50005 0.50005 0 0 0 31.5 6 L 0.5 6 z M 1 7 L 31 7 L 31 8 L 1 8 L 1 7 z M 3 9 L 15.5 9 L 15.5 23 L 4.5 23 C 3.6603394 23 3 22.3397 3 21.5 L 3 9 z M 16.5 9 L 29 9 L 29 21.5 C 29 22.3397 28.33966 23 27.5 23 L 16.5 23 L 16.5 9 z M 13 12 L 13 13.013672 L 12.896484 13.013672 C 11.855092 13.013672 11 13.866903 11 14.908203 L 11 17.09375 C 11 18.13505 11.855092 18.988281 12.896484 18.988281 L 13 18.988281 L 13 20 L 14 20 L 14 12 L 13 12 z M 18 12 L 18 13.013672 L 18 14.013672 L 18 17.988281 L 18 18.988281 L 18 20 L 19 20 L 19 18.988281 L 19.103516 18.988281 C 20.144908 18.988281 21 18.13505 21 17.09375 L 21 14.908203 C 21 13.866903 20.144908 13.013672 19.103516 13.013672 L 19 13.013672 L 19 12 L 18 12 z M 12.896484 14.013672 L 13 14.013672 L 13 17.988281 L 12.896484 17.988281 C 12.391477 17.988281 12 17.59805 12 17.09375 L 12 14.908203 C 12 14.403903 12.391477 14.013672 12.896484 14.013672 z M 19 14.013672 L 19.103516 14.013672 C 19.608523 14.013672 20 14.403903 20 14.908203 L 20 17.09375 C 20 17.59805 19.608523 17.988281 19.103516 17.988281 L 19 17.988281 L 19 14.013672 z M 6 24 L 7 24 L 7 25 L 6 25 L 6 24 z M 25 24 L 26 24 L 26 25 L 25 25 L 25 24 z " transform="translate(0,1020.3622)" id="rect5000"/>
  </g>

	
	
	<metadata>
		<rdf:RDF xmlns:rdf="http://www.w3.org/1999/02/22-rdf-syntax-ns#" xmlns:rdfs="http://www.w3.org/2000/01/rdf-schema#" xmlns:dc="http://purl.org/dc/elements/1.1/">
			<rdf:Description about="https://iconscout.com/legal#licenses" dc:title="Books, Imitation, Drawer, Study, Table, Furniture, Furnishing, Household" dc:description="Books, Imitation, Drawer, Study, Table, Furniture, Furnishing, Household" dc:publisher="Iconscout" dc:date="2016-12-14" dc:format="image/svg+xml" dc:language="en">
				<dc:creator>
					<rdf:Bag>
						<rdf:li>Jemis Mali</rdf:li>
					</rdf:Bag>
				</dc:creator>
			</rdf:Description>
		</rdf:RDF>
    </metadata></svg>
