<?xml version="1.0" encoding="UTF-8" standalone="no"?>
<svg xmlns:dc="http://purl.org/dc/elements/1.1/" xmlns:cc="http://creativecommons.org/ns#" xmlns:rdf="http://www.w3.org/1999/02/22-rdf-syntax-ns#" xmlns:svg="http://www.w3.org/2000/svg" xmlns="http://www.w3.org/2000/svg" xmlns:sodipodi="http://sodipodi.sourceforge.net/DTD/sodipodi-0.dtd" xmlns:inkscape="http://www.inkscape.org/namespaces/inkscape" width="32px" height="32px" viewBox="0 0 32 32.000001" id="svg2" version="1.1" inkscape:version="0.91 r13725" sodipodi:docname="8.svg">
  <defs id="defs4"/>
  <sodipodi:namedview id="base" pagecolor="#ffffff" bordercolor="#666666" borderopacity="1.0" inkscape:pageopacity="0.0" inkscape:pageshadow="2" inkscape:zoom="11.313709" inkscape:cx="27.578222" inkscape:cy="10.735718" inkscape:document-units="px" inkscape:current-layer="layer1" showgrid="true" units="px" inkscape:snap-bbox="true" inkscape:bbox-paths="true" inkscape:bbox-nodes="true" inkscape:snap-bbox-edge-midpoints="true" inkscape:snap-bbox-midpoints="true" inkscape:window-width="1920" inkscape:window-height="1027" inkscape:window-x="-8" inkscape:window-y="-8" inkscape:window-maximized="1">
    <inkscape:grid type="xygrid" id="grid3336"/>
  </sodipodi:namedview>
  
  <g inkscape:label="Layer 1" inkscape:groupmode="layer" id="layer1" transform="translate(0,-1020.3622)">
    <path style="color:#000000;font-style:normal;font-variant:normal;font-weight:normal;font-stretch:normal;font-size:medium;line-height:normal;font-family:sans-serif;text-indent:0;text-align:start;text-decoration:none;text-decoration-line:none;text-decoration-style:solid;text-decoration-color:#000000;letter-spacing:normal;word-spacing:normal;text-transform:none;direction:ltr;block-progression:tb;writing-mode:lr-tb;baseline-shift:baseline;text-anchor:start;white-space:normal;clip-rule:nonzero;display:inline;overflow:visible;visibility:visible;opacity:1;isolation:auto;mix-blend-mode:normal;color-interpolation:sRGB;color-interpolation-filters:linearRGB;solid-color:#000000;solid-opacity:1;fill:#000000;fill-opacity:1;fill-rule:nonzero;stroke:none;stroke-width:1;stroke-linecap:round;stroke-linejoin:round;stroke-miterlimit:4;stroke-dasharray:none;stroke-dashoffset:0;stroke-opacity:1;color-rendering:auto;image-rendering:auto;shape-rendering:auto;text-rendering:auto;enable-background:accumulate" d="M 0 5 L 0 6 L 1 6 L 1 14.5 L 1 28.5 A 0.50005 0.50005 0 0 0 1.5 29 L 3.5 29 A 0.50005 0.50005 0 0 0 4 28.5 L 4 20 L 28 20 L 28 28.5 A 0.50005 0.50005 0 0 0 28.5 29 L 30.5 29 A 0.50005 0.50005 0 0 0 31 28.5 L 31 14.5 L 31 6 L 32 6 L 32 5 L 30.535156 5 L 1.5 5 L 0 5 z M 2 6 L 15 6 L 15 14 L 3.5 14 L 2 14 L 2 6 z M 16 6 L 17 6 L 17 14 L 16 14 L 16 6 z M 18 6 L 30 6 L 30 14 L 18 14 L 18 6 z M 5.9960938 9 L 5.9960938 9.5761719 C 5.9960938 10.378972 6.6955328 11 7.4980469 11 L 9.5 11 C 10.30252 11 11 10.378972 11 9.5761719 L 11 9 L 10 9 L 10 9.5761719 C 10 9.7983719 9.8062204 10 9.5 10 L 7.4980469 10 C 7.1918409 10 6.9960938 9.7983719 6.9960938 9.5761719 L 6.9960938 9 L 5.9960938 9 z M 20.996094 9 L 20.996094 9.5761719 C 20.996094 10.378972 21.69358 11 22.496094 11 L 24.5 11 C 25.30252 11 26 10.378972 26 9.5761719 L 26 9 L 25 9 L 25 9.5761719 C 25 9.7983719 24.80622 10 24.5 10 L 22.496094 10 C 22.189888 10 21.996094 9.7983719 21.996094 9.5761719 L 21.996094 9 L 20.996094 9 z M 2 15 L 3 15 L 3 19 L 3 20 L 3 28 L 2 28 L 2 15 z M 4 15 L 28 15 L 28 19 L 4 19 L 4 15 z M 29 15 L 30 15 L 30 28 L 29 28 L 29 15 z " transform="translate(0,1020.3622)" id="rect4860"/>
  </g>

	
	
	<metadata>
		<rdf:RDF xmlns:rdf="http://www.w3.org/1999/02/22-rdf-syntax-ns#" xmlns:rdfs="http://www.w3.org/2000/01/rdf-schema#" xmlns:dc="http://purl.org/dc/elements/1.1/">
			<rdf:Description about="https://iconscout.com/legal#licenses" dc:title="Books, Imitation, Drawer, Study, Table, Furniture, Furnishing, Household" dc:description="Books, Imitation, Drawer, Study, Table, Furniture, Furnishing, Household" dc:publisher="Iconscout" dc:date="2016-12-14" dc:format="image/svg+xml" dc:language="en">
				<dc:creator>
					<rdf:Bag>
						<rdf:li>Jemis Mali</rdf:li>
					</rdf:Bag>
				</dc:creator>
			</rdf:Description>
		</rdf:RDF>
    </metadata></svg>
