<?xml version="1.0" encoding="UTF-8" standalone="no"?>
<svg xmlns:dc="http://purl.org/dc/elements/1.1/" xmlns:cc="http://creativecommons.org/ns#" xmlns:rdf="http://www.w3.org/1999/02/22-rdf-syntax-ns#" xmlns:svg="http://www.w3.org/2000/svg" xmlns="http://www.w3.org/2000/svg" xmlns:sodipodi="http://sodipodi.sourceforge.net/DTD/sodipodi-0.dtd" xmlns:inkscape="http://www.inkscape.org/namespaces/inkscape" width="32px" height="32px" viewBox="0 0 32 32.000001" id="svg2" version="1.1" inkscape:version="0.91 r13725" sodipodi:docname="14.svg">
  <defs id="defs4"/>
  <sodipodi:namedview id="base" pagecolor="#ffffff" bordercolor="#666666" borderopacity="1.0" inkscape:pageopacity="0.0" inkscape:pageshadow="2" inkscape:zoom="11.313709" inkscape:cx="21.871288" inkscape:cy="8.6144363" inkscape:document-units="px" inkscape:current-layer="layer1" showgrid="true" units="px" inkscape:snap-bbox="true" inkscape:bbox-paths="true" inkscape:bbox-nodes="true" inkscape:snap-bbox-edge-midpoints="true" inkscape:snap-bbox-midpoints="true" inkscape:window-width="1920" inkscape:window-height="1027" inkscape:window-x="-8" inkscape:window-y="-8" inkscape:window-maximized="1">
    <inkscape:grid type="xygrid" id="grid3336"/>
  </sodipodi:namedview>
  
  <g inkscape:label="Layer 1" inkscape:groupmode="layer" id="layer1" transform="translate(0,-1020.3622)">
    <path style="color:#000000;font-style:normal;font-variant:normal;font-weight:normal;font-stretch:normal;font-size:medium;line-height:normal;font-family:sans-serif;text-indent:0;text-align:start;text-decoration:none;text-decoration-line:none;text-decoration-style:solid;text-decoration-color:#000000;letter-spacing:normal;word-spacing:normal;text-transform:none;direction:ltr;block-progression:tb;writing-mode:lr-tb;baseline-shift:baseline;text-anchor:start;white-space:normal;clip-rule:nonzero;display:inline;overflow:visible;visibility:visible;opacity:1;isolation:auto;mix-blend-mode:normal;color-interpolation:sRGB;color-interpolation-filters:linearRGB;solid-color:#000000;solid-opacity:1;fill:#000000;fill-opacity:1;fill-rule:nonzero;stroke:none;stroke-width:1;stroke-linecap:round;stroke-linejoin:round;stroke-miterlimit:4;stroke-dasharray:none;stroke-dashoffset:0;stroke-opacity:1;color-rendering:auto;image-rendering:auto;shape-rendering:auto;text-rendering:auto;enable-background:accumulate" d="M 8.5 2 A 0.50005 0.50005 0 0 0 8 2.5 L 8 4 L 5.5 4 A 0.50004997 0.50004997 0 0 0 5 4.5 L 5 11.5 A 0.50004997 0.50004997 0 0 0 5.5 12 L 8 12 L 8 17 L 5.5 17 A 0.50005 0.50005 0 0 0 5 17.5 L 5 19.5 A 0.50005 0.50005 0 0 0 5.5 20 L 7 20 L 7 31.5 A 0.50005 0.50005 0 0 0 7.5 32 L 9.5 32 A 0.50005 0.50005 0 0 0 10 31.5 L 10 24 L 21 24 L 21 31.5 A 0.50005 0.50005 0 0 0 21.5 32 L 23.5 32 A 0.50005 0.50005 0 0 0 24 31.5 L 24 20 L 25.5 20 A 0.50005 0.50005 0 0 0 26 19.5 L 26 17.5 A 0.50005 0.50005 0 0 0 25.5 17 L 23 17 L 23 12 L 25.5 12 A 0.50004997 0.50004997 0 0 0 26 11.5 L 26 4.5 A 0.50004997 0.50004997 0 0 0 25.5 4 L 23 4 L 23 2.5 A 0.50005 0.50005 0 0 0 22.5 2 L 20.5 2 A 0.50005 0.50005 0 0 0 20 2.5 L 20 4 L 11 4 L 11 2.5 A 0.50005 0.50005 0 0 0 10.5 2 L 8.5 2 z M 9 3 L 10 3 L 10 4 L 9 4 L 9 3 z M 21 3 L 22 3 L 22 4 L 21 4 L 21 3 z M 6 5 L 20.423828 5 A 0.50005 0.50005 0 0 0 20.570312 5 L 22.423828 5 A 0.50005 0.50005 0 0 0 22.570312 5 L 25 5 L 25 11 L 6 11 L 6 5 z M 9 12 L 10 12 L 10 17 L 9 17 L 9 12 z M 11 12 L 20 12 L 20 17 L 11 17 L 11 12 z M 21 12 L 22 12 L 22 17 L 21 17 L 21 12 z M 6 18 L 25 18 L 25 19 L 9.5351562 19 L 7.5 19 L 6 19 L 6 18 z M 8 20 L 9 20 L 9 31 L 8 31 L 8 20 z M 10 20 L 21 20 L 21 23 L 10 23 L 10 20 z M 22 20 L 23 20 L 23 31 L 22 31 L 22 20 z " transform="translate(0,1020.3622)" id="rect5317"/>
  </g>

	
	
	<metadata>
		<rdf:RDF xmlns:rdf="http://www.w3.org/1999/02/22-rdf-syntax-ns#" xmlns:rdfs="http://www.w3.org/2000/01/rdf-schema#" xmlns:dc="http://purl.org/dc/elements/1.1/">
			<rdf:Description about="https://iconscout.com/legal#licenses" dc:title="Chair, Sittingbelongings, Furniture, Furnishings, Household" dc:description="Chair, Sittingbelongings, Furniture, Furnishings, Household" dc:publisher="Iconscout" dc:date="2016-12-14" dc:format="image/svg+xml" dc:language="en">
				<dc:creator>
					<rdf:Bag>
						<rdf:li>Jemis Mali</rdf:li>
					</rdf:Bag>
				</dc:creator>
			</rdf:Description>
		</rdf:RDF>
    </metadata></svg>
