<?xml version="1.0" encoding="UTF-8" standalone="no"?>
<svg xmlns:dc="http://purl.org/dc/elements/1.1/" xmlns:cc="http://creativecommons.org/ns#" xmlns:rdf="http://www.w3.org/1999/02/22-rdf-syntax-ns#" xmlns:svg="http://www.w3.org/2000/svg" xmlns="http://www.w3.org/2000/svg" xmlns:sodipodi="http://sodipodi.sourceforge.net/DTD/sodipodi-0.dtd" xmlns:inkscape="http://www.inkscape.org/namespaces/inkscape" width="32px" height="32px" viewBox="0 0 32 32.000001" id="svg2" version="1.1" inkscape:version="0.91 r13725" sodipodi:docname="7.svg">
  <defs id="defs4"/>
  <sodipodi:namedview id="base" pagecolor="#ffffff" bordercolor="#666666" borderopacity="1.0" inkscape:pageopacity="0.0" inkscape:pageshadow="2" inkscape:zoom="16" inkscape:cx="26.180467" inkscape:cy="11.867652" inkscape:document-units="px" inkscape:current-layer="layer1" showgrid="true" units="px" inkscape:snap-bbox="true" inkscape:bbox-paths="true" inkscape:bbox-nodes="true" inkscape:snap-bbox-edge-midpoints="true" inkscape:snap-bbox-midpoints="true" inkscape:window-width="1920" inkscape:window-height="1027" inkscape:window-x="-8" inkscape:window-y="-8" inkscape:window-maximized="1">
    <inkscape:grid type="xygrid" id="grid3336"/>
  </sodipodi:namedview>
  
  <g inkscape:label="Layer 1" inkscape:groupmode="layer" id="layer1" transform="translate(0,-1020.3622)">
    <path style="color:#000000;font-style:normal;font-variant:normal;font-weight:normal;font-stretch:normal;font-size:medium;line-height:normal;font-family:sans-serif;text-indent:0;text-align:start;text-decoration:none;text-decoration-line:none;text-decoration-style:solid;text-decoration-color:#000000;letter-spacing:normal;word-spacing:normal;text-transform:none;direction:ltr;block-progression:tb;writing-mode:lr-tb;baseline-shift:baseline;text-anchor:start;white-space:normal;clip-rule:nonzero;display:inline;overflow:visible;visibility:visible;opacity:1;isolation:auto;mix-blend-mode:normal;color-interpolation:sRGB;color-interpolation-filters:linearRGB;solid-color:#000000;solid-opacity:1;fill:#000000;fill-opacity:1;fill-rule:evenodd;stroke:none;stroke-width:0.98180413px;stroke-linecap:butt;stroke-linejoin:miter;stroke-miterlimit:4;stroke-dasharray:none;stroke-dashoffset:0;stroke-opacity:1;color-rendering:auto;image-rendering:auto;shape-rendering:auto;text-rendering:auto;enable-background:accumulate" d="M 0 0.001953125 L 0 1.0019531 L 2 1.0019531 L 2 30.001953 L 2.0175781 30.001953 L 2.0175781 32 L 3 32 L 3 30.001953 L 29.015625 30.001953 L 29.015625 32 L 29.996094 32 L 29.996094 30.001953 L 30 30.001953 L 30 1.0019531 L 32 1.0019531 L 32 0.001953125 L 0 0.001953125 z M 3 1.0019531 L 29.015625 1.0019531 L 29.015625 29.021484 L 3 29.021484 L 3 1.0019531 z M 5 3.0019531 L 5 3.5019531 L 5 14.001953 L 27 14.001953 L 27 3.0019531 L 5 3.0019531 z M 6 4.0019531 L 26 4.0019531 L 26 13.001953 L 6 13.001953 L 6 4.0019531 z M 11 7.0019531 L 11 8.0019531 L 12.013672 8.0019531 L 12.013672 8.1074219 C 12.013672 9.1488219 12.866921 10.001953 13.908203 10.001953 L 18.091797 10.001953 C 19.133079 10.001953 19.986328 9.1488219 19.986328 8.1074219 L 19.986328 8.0019531 L 21 8.0019531 L 21 7.0019531 L 11 7.0019531 z M 13.013672 8.0019531 L 18.986328 8.0019531 L 18.986328 8.1074219 C 18.986328 8.6123219 18.596048 9.0019531 18.091797 9.0019531 L 13.908203 9.0019531 C 13.403953 9.0019531 13.013672 8.6123219 13.013672 8.1074219 L 13.013672 8.0019531 z M 5 16.001953 L 5 16.501953 L 5 27.001953 L 27 27.001953 L 27 16.001953 L 5 16.001953 z M 6 17.001953 L 26 17.001953 L 26 26.001953 L 6 26.001953 L 6 17.001953 z M 11 20.001953 L 11 21.001953 L 12.013672 21.001953 L 12.013672 21.107422 C 12.013672 22.148822 12.866921 23.001953 13.908203 23.001953 L 18.091797 23.001953 C 19.133079 23.001953 19.986328 22.148822 19.986328 21.107422 L 19.986328 21.001953 L 21 21.001953 L 21 20.001953 L 11 20.001953 z M 13.013672 21.001953 L 18.986328 21.001953 L 18.986328 21.107422 C 18.986328 21.612322 18.596048 22.001953 18.091797 22.001953 L 13.908203 22.001953 C 13.403953 22.001953 13.013672 21.612322 13.013672 21.107422 L 13.013672 21.001953 z " transform="translate(0,1020.3622)" id="rect3349"/>
  </g>

	
	
	<metadata>
		<rdf:RDF xmlns:rdf="http://www.w3.org/1999/02/22-rdf-syntax-ns#" xmlns:rdfs="http://www.w3.org/2000/01/rdf-schema#" xmlns:dc="http://purl.org/dc/elements/1.1/">
			<rdf:Description about="https://iconscout.com/legal#licenses" dc:title="Cloth, Imitation, Drawer, Books, Furniture, Furnishing, Belongings" dc:description="Cloth, Imitation, Drawer, Books, Furniture, Furnishing, Belongings" dc:publisher="Iconscout" dc:date="2016-12-14" dc:format="image/svg+xml" dc:language="en">
				<dc:creator>
					<rdf:Bag>
						<rdf:li>Jemis Mali</rdf:li>
					</rdf:Bag>
				</dc:creator>
			</rdf:Description>
		</rdf:RDF>
    </metadata></svg>
