<?xml version="1.0" encoding="UTF-8" standalone="no"?>
<svg xmlns:dc="http://purl.org/dc/elements/1.1/" xmlns:cc="http://creativecommons.org/ns#" xmlns:rdf="http://www.w3.org/1999/02/22-rdf-syntax-ns#" xmlns:svg="http://www.w3.org/2000/svg" xmlns="http://www.w3.org/2000/svg" xmlns:sodipodi="http://sodipodi.sourceforge.net/DTD/sodipodi-0.dtd" xmlns:inkscape="http://www.inkscape.org/namespaces/inkscape" width="32px" height="32px" viewBox="0 0 32 32.000001" id="svg2" version="1.1" inkscape:version="0.91 r13725" sodipodi:docname="4.svg">
  <defs id="defs4"/>
  <sodipodi:namedview id="base" pagecolor="#ffffff" bordercolor="#666666" borderopacity="1.0" inkscape:pageopacity="0.0" inkscape:pageshadow="2" inkscape:zoom="22.627417" inkscape:cx="17.962539" inkscape:cy="17.03852" inkscape:document-units="px" inkscape:current-layer="layer1" showgrid="true" units="px" inkscape:snap-bbox="true" inkscape:bbox-paths="true" inkscape:bbox-nodes="true" inkscape:snap-bbox-edge-midpoints="true" inkscape:snap-bbox-midpoints="true" inkscape:window-width="1920" inkscape:window-height="1027" inkscape:window-x="-8" inkscape:window-y="-8" inkscape:window-maximized="1">
    <inkscape:grid type="xygrid" id="grid3336"/>
  </sodipodi:namedview>
  
  <g inkscape:label="Layer 1" inkscape:groupmode="layer" id="layer1" transform="translate(0,-1020.3622)">
    <path style="color:#000000;font-style:normal;font-variant:normal;font-weight:normal;font-stretch:normal;font-size:medium;line-height:normal;font-family:sans-serif;text-indent:0;text-align:start;text-decoration:none;text-decoration-line:none;text-decoration-style:solid;text-decoration-color:#000000;letter-spacing:normal;word-spacing:normal;text-transform:none;direction:ltr;block-progression:tb;writing-mode:lr-tb;baseline-shift:baseline;text-anchor:start;white-space:normal;clip-rule:nonzero;display:inline;overflow:visible;visibility:visible;opacity:1;isolation:auto;mix-blend-mode:normal;color-interpolation:sRGB;color-interpolation-filters:linearRGB;solid-color:#000000;solid-opacity:1;fill:#000000;fill-opacity:1;fill-rule:evenodd;stroke:none;stroke-width:0.98180413px;stroke-linecap:butt;stroke-linejoin:miter;stroke-miterlimit:4;stroke-dasharray:none;stroke-dashoffset:0;stroke-opacity:1;color-rendering:auto;image-rendering:auto;shape-rendering:auto;text-rendering:auto;enable-background:accumulate" d="M 0.5 0.001953125 A 0.50005 0.50005 0 0 0 0 0.50195312 L 0 2.5019531 A 0.50005 0.50005 0 0 0 0.5 3.0019531 L 2 3.0019531 L 2 31.001953 L 2 32 L 2.9824219 32 L 2.9824219 31.001953 L 29.015625 31.001953 L 29.015625 32 L 29.996094 32 L 29.996094 31.001953 L 30 31.001953 L 30 3.0019531 L 31.5 3.0019531 A 0.50005 0.50005 0 0 0 32 2.5019531 L 32 0.50195312 A 0.50005 0.50005 0 0 0 31.5 0.001953125 L 0.5 0.001953125 z M 1 1.0019531 L 31 1.0019531 L 31 2.0019531 L 2.9824219 2.0019531 L 2 2.0019531 L 1 2.0019531 L 1 1.0019531 z M 2.9824219 3.0019531 L 29.015625 3.0019531 L 29.015625 30.019531 L 2.9824219 30.019531 L 2.9824219 3.0019531 z M 5 5.0019531 L 5 5.5019531 L 5 12.001953 L 27 12.001953 L 27 5.0019531 L 5 5.0019531 z M 6 6.0019531 L 26 6.0019531 L 26 11.001953 L 6 11.001953 L 6 6.0019531 z M 11 7.0019531 L 11 8.0019531 L 12.013672 8.0019531 L 12.013672 8.1074219 C 12.013672 9.1488219 12.866921 10.001953 13.908203 10.001953 L 18.091797 10.001953 C 18.872758 10.001953 19.547151 9.5210719 19.835938 8.8417969 C 19.9322 8.6153719 19.986328 8.3677719 19.986328 8.1074219 L 19.986328 8.0019531 L 21 8.0019531 L 21 7.0019531 L 12.013672 7.0019531 L 11 7.0019531 z M 13.013672 8.0019531 L 18.986328 8.0019531 L 18.986328 8.1074219 C 18.986328 8.6123219 18.596048 9.0019531 18.091797 9.0019531 L 13.908203 9.0019531 C 13.403953 9.0019531 13.013672 8.6123219 13.013672 8.1074219 L 13.013672 8.0019531 z M 5 13.001953 L 5 13.501953 L 5 20.001953 L 27 20.001953 L 27 13.001953 L 5 13.001953 z M 6 14.001953 L 26 14.001953 L 26 19.001953 L 6 19.001953 L 6 14.001953 z M 11 15.001953 L 11 16.001953 L 12.013672 16.001953 L 12.013672 16.107422 C 12.013672 17.148822 12.866921 18.001953 13.908203 18.001953 L 18.091797 18.001953 C 19.133079 18.001953 19.986328 17.148822 19.986328 16.107422 L 19.986328 16.001953 L 21 16.001953 L 21 15.001953 L 11 15.001953 z M 13.013672 16.001953 L 18.986328 16.001953 L 18.986328 16.107422 C 18.986328 16.612322 18.596048 17.001953 18.091797 17.001953 L 13.908203 17.001953 C 13.403953 17.001953 13.013672 16.612322 13.013672 16.107422 L 13.013672 16.001953 z M 5 21.001953 L 5 21.501953 L 5 28.001953 L 27 28.001953 L 27 21.001953 L 5 21.001953 z M 6 22.001953 L 26 22.001953 L 26 27.001953 L 6 27.001953 L 6 22.001953 z M 11 23.001953 L 11 24.001953 L 12.013672 24.001953 L 12.013672 24.107422 C 12.013672 25.148822 12.866921 26.001953 13.908203 26.001953 L 18.091797 26.001953 C 18.872758 26.001953 19.547151 25.521072 19.835938 24.841797 C 19.9322 24.615372 19.986328 24.367772 19.986328 24.107422 L 19.986328 24.001953 L 21 24.001953 L 21 23.001953 L 12.013672 23.001953 L 11 23.001953 z M 13.013672 24.001953 L 18.986328 24.001953 L 18.986328 24.107422 C 18.986328 24.612322 18.596048 25.001953 18.091797 25.001953 L 13.908203 25.001953 C 13.403953 25.001953 13.013672 24.612322 13.013672 24.107422 L 13.013672 24.001953 z " transform="translate(0,1020.3622)" id="rect4476"/>
  </g>

	
	
	<metadata>
		<rdf:RDF xmlns:rdf="http://www.w3.org/1999/02/22-rdf-syntax-ns#" xmlns:rdfs="http://www.w3.org/2000/01/rdf-schema#" xmlns:dc="http://purl.org/dc/elements/1.1/">
			<rdf:Description about="https://iconscout.com/legal#licenses" dc:title="Cloth, Drawer, Belongings, Furniture, Furnishing, Household" dc:description="Cloth, Drawer, Belongings, Furniture, Furnishing, Household" dc:publisher="Iconscout" dc:date="2016-12-14" dc:format="image/svg+xml" dc:language="en">
				<dc:creator>
					<rdf:Bag>
						<rdf:li>Jemis Mali</rdf:li>
					</rdf:Bag>
				</dc:creator>
			</rdf:Description>
		</rdf:RDF>
    </metadata></svg>
