<?xml version="1.0" encoding="UTF-8" standalone="no"?>
<svg xmlns:dc="http://purl.org/dc/elements/1.1/" xmlns:cc="http://creativecommons.org/ns#" xmlns:rdf="http://www.w3.org/1999/02/22-rdf-syntax-ns#" xmlns:svg="http://www.w3.org/2000/svg" xmlns="http://www.w3.org/2000/svg" xmlns:sodipodi="http://sodipodi.sourceforge.net/DTD/sodipodi-0.dtd" xmlns:inkscape="http://www.inkscape.org/namespaces/inkscape" width="32px" height="32px" viewBox="0 0 32 32.000001" id="svg2" version="1.1" inkscape:version="0.91 r13725" sodipodi:docname="10.svg">
  <defs id="defs4"/>
  <sodipodi:namedview id="base" pagecolor="#ffffff" bordercolor="#666666" borderopacity="1.0" inkscape:pageopacity="0.0" inkscape:pageshadow="2" inkscape:zoom="16" inkscape:cx="28.397405" inkscape:cy="16.35585" inkscape:document-units="px" inkscape:current-layer="layer1" showgrid="true" units="px" inkscape:snap-bbox="true" inkscape:bbox-paths="true" inkscape:bbox-nodes="true" inkscape:snap-bbox-edge-midpoints="true" inkscape:snap-bbox-midpoints="true" inkscape:window-width="1920" inkscape:window-height="1027" inkscape:window-x="-8" inkscape:window-y="-8" inkscape:window-maximized="1">
    <inkscape:grid type="xygrid" id="grid3336"/>
  </sodipodi:namedview>
  
  <g inkscape:label="Layer 1" inkscape:groupmode="layer" id="layer1" transform="translate(0,-1020.3622)">
    <path style="color:#000000;font-style:normal;font-variant:normal;font-weight:normal;font-stretch:normal;font-size:medium;line-height:normal;font-family:sans-serif;text-indent:0;text-align:start;text-decoration:none;text-decoration-line:none;text-decoration-style:solid;text-decoration-color:#000000;letter-spacing:normal;word-spacing:normal;text-transform:none;direction:ltr;block-progression:tb;writing-mode:lr-tb;baseline-shift:baseline;text-anchor:start;white-space:normal;clip-rule:nonzero;display:inline;overflow:visible;visibility:visible;opacity:1;isolation:auto;mix-blend-mode:normal;color-interpolation:sRGB;color-interpolation-filters:linearRGB;solid-color:#000000;solid-opacity:1;fill:#000000;fill-opacity:1;fill-rule:nonzero;stroke:none;stroke-width:1;stroke-linecap:round;stroke-linejoin:round;stroke-miterlimit:4;stroke-dasharray:none;stroke-dashoffset:0;stroke-opacity:1;color-rendering:auto;image-rendering:auto;shape-rendering:auto;text-rendering:auto;enable-background:accumulate" d="M 4.5 4 A 0.50005 0.50005 0 0 0 4 4.5 L 4 6 L 0.5 6 A 0.50005 0.50005 0 0 0 0 6.5 L 0 16.5 A 0.50005 0.50005 0 0 0 0.5 17 L 4 17 L 4 20 L 0.5 20 A 0.50005 0.50005 0 0 0 0 20.5 L 0 24.5 A 0.50005 0.50005 0 0 0 0.5 25 L 3 25 L 3 28.5 A 0.50004997 0.50004997 0 0 0 3.5 29 L 6.5 29 A 0.50004997 0.50004997 0 0 0 7 28.5 L 7 25 L 25 25 L 25 28.5 A 0.50004997 0.50004997 0 0 0 25.5 29 L 28.5 29 A 0.50004997 0.50004997 0 0 0 29 28.5 L 29 25 L 31.5 25 A 0.50005 0.50005 0 0 0 32 24.5 L 32 20.5 A 0.50005 0.50005 0 0 0 31.5 20 L 28 20 L 28 17 L 31.5 17 A 0.50005 0.50005 0 0 0 32 16.5 L 32 6.5 A 0.50005 0.50005 0 0 0 31.5 6 L 28 6 L 28 4.5 A 0.50005 0.50005 0 0 0 27.5 4 L 25.5 4 A 0.50005 0.50005 0 0 0 25 4.5 L 25 6 L 7 6 L 7 4.5 A 0.50005 0.50005 0 0 0 6.5 4 L 4.5 4 z M 5 5 L 6 5 L 6 6 L 5 6 L 5 5 z M 26 5 L 27 5 L 27 6 L 26 6 L 26 5 z M 1 7 L 31 7 L 31 11 L 1 11 L 1 7 z M 1 12 L 31 12 L 31 16 L 1 16 L 1 12 z M 5 17 L 6 17 L 6 20 L 5 20 L 5 17 z M 7 17 L 25 17 L 25 20 L 7 20 L 7 17 z M 26 17 L 27 17 L 27 20 L 26 20 L 26 17 z M 1 21 L 31 21 L 31 24 L 1 24 L 1 21 z M 4 25 L 6 25 L 6 28 L 4 28 L 4 25 z M 26 25 L 28 25 L 28 28 L 26 28 L 26 25 z " transform="translate(0,1020.3622)" id="rect4963"/>
  </g>

	
	
	<metadata>
		<rdf:RDF xmlns:rdf="http://www.w3.org/1999/02/22-rdf-syntax-ns#" xmlns:rdfs="http://www.w3.org/2000/01/rdf-schema#" xmlns:dc="http://purl.org/dc/elements/1.1/">
			<rdf:Description about="https://iconscout.com/legal#licenses" dc:title="Garden, Sitting, Bench, Rest, Furniture, Furnishing" dc:description="Garden, Sitting, Bench, Rest, Furniture, Furnishing" dc:publisher="Iconscout" dc:date="2016-12-14" dc:format="image/svg+xml" dc:language="en">
				<dc:creator>
					<rdf:Bag>
						<rdf:li>Jemis Mali</rdf:li>
					</rdf:Bag>
				</dc:creator>
			</rdf:Description>
		</rdf:RDF>
    </metadata></svg>
