<?xml version="1.0" encoding="UTF-8" standalone="no"?>
<svg xmlns:dc="http://purl.org/dc/elements/1.1/" xmlns:cc="http://creativecommons.org/ns#" xmlns:rdf="http://www.w3.org/1999/02/22-rdf-syntax-ns#" xmlns:svg="http://www.w3.org/2000/svg" xmlns="http://www.w3.org/2000/svg" xmlns:sodipodi="http://sodipodi.sourceforge.net/DTD/sodipodi-0.dtd" xmlns:inkscape="http://www.inkscape.org/namespaces/inkscape" width="32px" height="32px" viewBox="0 0 32 32.000001" id="svg2" version="1.1" inkscape:version="0.91 r13725" sodipodi:docname="1.svg">
  <defs id="defs4"/>
  <sodipodi:namedview id="base" pagecolor="#ffffff" bordercolor="#666666" borderopacity="1.0" inkscape:pageopacity="0.0" inkscape:pageshadow="2" inkscape:zoom="11.2" inkscape:cx="11.833465" inkscape:cy="12.644654" inkscape:document-units="px" inkscape:current-layer="layer1" showgrid="true" units="px" inkscape:snap-bbox="true" inkscape:bbox-paths="true" inkscape:bbox-nodes="true" inkscape:snap-bbox-edge-midpoints="true" inkscape:snap-bbox-midpoints="true" inkscape:window-width="1920" inkscape:window-height="1027" inkscape:window-x="-8" inkscape:window-y="-8" inkscape:window-maximized="1">
    <inkscape:grid type="xygrid" id="grid3336"/>
  </sodipodi:namedview>
  
  <g inkscape:label="Layer 1" inkscape:groupmode="layer" id="layer1" transform="translate(0,-1020.3622)">
    <path style="color:#000000;font-style:normal;font-variant:normal;font-weight:normal;font-stretch:normal;font-size:medium;line-height:normal;font-family:sans-serif;text-indent:0;text-align:start;text-decoration:none;text-decoration-line:none;text-decoration-style:solid;text-decoration-color:#000000;letter-spacing:normal;word-spacing:normal;text-transform:none;direction:ltr;block-progression:tb;writing-mode:lr-tb;baseline-shift:baseline;text-anchor:start;white-space:normal;clip-rule:nonzero;display:inline;overflow:visible;visibility:visible;opacity:1;isolation:auto;mix-blend-mode:normal;color-interpolation:sRGB;color-interpolation-filters:linearRGB;solid-color:#000000;solid-opacity:1;fill:#000000;fill-opacity:1;fill-rule:nonzero;stroke:none;stroke-width:1;stroke-linecap:round;stroke-linejoin:round;stroke-miterlimit:4;stroke-dasharray:none;stroke-dashoffset:0;stroke-opacity:1;color-rendering:auto;image-rendering:auto;shape-rendering:auto;text-rendering:auto;enable-background:accumulate" d="M 1.5 5.9941406 C 0.67764862 5.9941406 0 6.6717406 0 7.4941406 L 0 15.957031 A 0.50005 0.50005 0 0 0 0 15.994141 L 0 19.199219 L 0 24.494141 A 0.50005 0.50005 0 1 0 1 24.494141 L 1 22.994141 L 31 22.994141 L 31 24.494141 A 0.50005 0.50005 0 1 0 32 24.494141 L 32 15.994141 C 32 14.894741 31.099357 13.994141 30 13.994141 C 29.996763 12.897538 29.097377 12 28 12 L 6.90625 12 C 6.6977328 11.421018 6.1467197 11 5.5 11 L 3.5 11 C 3.3243683 11 3.1572391 11.035166 3 11.091797 L 3 7.4941406 C 3 6.6717406 2.3223514 5.9941406 1.5 5.9941406 z M 1.5 6.9941406 C 1.7856486 6.9941406 2 7.2084406 2 7.4941406 L 2 14.414062 A 0.50005 0.50005 0 0 0 2 14.574219 L 2 18.994141 L 1 18.994141 L 1 15.994141 L 1 7.4941406 C 1 7.2084406 1.2143514 6.9941406 1.5 6.9941406 z M 3.5 12 L 5.5 12 C 5.7737676 12 5.9772884 12.19899 5.9941406 12.466797 A 0.50005 0.50005 0 0 0 6 12.582031 L 6 13.994141 L 3 13.994141 L 3 12.5 C 3 12.2144 3.2143514 12 3.5 12 z M 7 13 L 28 13 C 28.560518 13 28.994732 13.434639 28.998047 13.994141 L 7 13.994141 L 7 13 z M 3 14.994141 L 6.3925781 14.994141 A 0.50005 0.50005 0 0 0 6.6074219 14.994141 L 30 14.994141 C 30.562661 14.994141 31 15.431441 31 15.994141 L 31 18.994141 L 3 18.994141 L 3 14.994141 z M 1 19.994141 L 31 19.994141 L 31 21.994141 L 1 21.994141 L 1 19.994141 z " transform="translate(0,1020.3622)" id="rect4806"/>
  </g>

	
	
	<metadata>
		<rdf:RDF xmlns:rdf="http://www.w3.org/1999/02/22-rdf-syntax-ns#" xmlns:rdfs="http://www.w3.org/2000/01/rdf-schema#" xmlns:dc="http://purl.org/dc/elements/1.1/">
			<rdf:Description about="https://iconscout.com/legal#licenses" dc:title="Sleeping, Bed, Furniture, Bedroom, Furnishing, Household, Sleep" dc:description="Sleeping, Bed, Furniture, Bedroom, Furnishing, Household, Sleep" dc:publisher="Iconscout" dc:date="2016-12-14" dc:format="image/svg+xml" dc:language="en">
				<dc:creator>
					<rdf:Bag>
						<rdf:li>Jemis Mali</rdf:li>
					</rdf:Bag>
				</dc:creator>
			</rdf:Description>
		</rdf:RDF>
    </metadata></svg>
