<?xml version="1.0" encoding="UTF-8" standalone="no"?>
<svg xmlns:dc="http://purl.org/dc/elements/1.1/" xmlns:cc="http://creativecommons.org/ns#" xmlns:rdf="http://www.w3.org/1999/02/22-rdf-syntax-ns#" xmlns:svg="http://www.w3.org/2000/svg" xmlns="http://www.w3.org/2000/svg" xmlns:sodipodi="http://sodipodi.sourceforge.net/DTD/sodipodi-0.dtd" xmlns:inkscape="http://www.inkscape.org/namespaces/inkscape" width="32px" height="32px" viewBox="0 0 32 32.000001" id="svg2" version="1.1" inkscape:version="0.91 r13725" sodipodi:docname="5.svg">
  <defs id="defs4"/>
  <sodipodi:namedview id="base" pagecolor="#ffffff" bordercolor="#666666" borderopacity="1.0" inkscape:pageopacity="0.0" inkscape:pageshadow="2" inkscape:zoom="16" inkscape:cx="26.166558" inkscape:cy="6.866329" inkscape:document-units="px" inkscape:current-layer="layer1" showgrid="true" units="px" inkscape:snap-bbox="true" inkscape:bbox-paths="true" inkscape:bbox-nodes="true" inkscape:snap-bbox-edge-midpoints="true" inkscape:snap-bbox-midpoints="true" inkscape:window-width="1920" inkscape:window-height="1027" inkscape:window-x="-8" inkscape:window-y="-8" inkscape:window-maximized="1">
    <inkscape:grid type="xygrid" id="grid3336"/>
  </sodipodi:namedview>
  
  <g inkscape:label="Layer 1" inkscape:groupmode="layer" id="layer1" transform="translate(0,-1020.3622)">
    <path style="color:#000000;font-style:normal;font-variant:normal;font-weight:normal;font-stretch:normal;font-size:medium;line-height:normal;font-family:sans-serif;text-indent:0;text-align:start;text-decoration:none;text-decoration-line:none;text-decoration-style:solid;text-decoration-color:#000000;letter-spacing:normal;word-spacing:normal;text-transform:none;direction:ltr;block-progression:tb;writing-mode:lr-tb;baseline-shift:baseline;text-anchor:start;white-space:normal;clip-rule:nonzero;display:inline;overflow:visible;visibility:visible;opacity:1;isolation:auto;mix-blend-mode:normal;color-interpolation:sRGB;color-interpolation-filters:linearRGB;solid-color:#000000;solid-opacity:1;fill:#000000;fill-opacity:1;fill-rule:nonzero;stroke:none;stroke-width:0.99999988;stroke-linecap:butt;stroke-linejoin:miter;stroke-miterlimit:4;stroke-dasharray:none;stroke-dashoffset:0;stroke-opacity:1;color-rendering:auto;image-rendering:auto;shape-rendering:auto;text-rendering:auto;enable-background:accumulate" d="M 5.0761719,5 C 3.3853312,5 2,6.3572031 2,8.0332031 l 0,2.0175779 c -1.14263634,0.238981 -2,1.279166 -2,2.50586 l 0,5.054687 0,2.144531 0,3.03125 c 0,1.145982 0.88272619,2.085281 2,2.191407 L 2,26.5 c 2.76e-5,0.276131 0.2238691,0.499972 0.5,0.5 l 2,0 c 0.2761309,-2.8e-5 0.4999724,-0.223869 0.5,-0.5 l 0,-1.5 22,0 0,1.5 c 2.8e-5,0.276131 0.223869,0.499972 0.5,0.5 l 2,0 c 0.276131,-2.8e-5 0.499972,-0.223869 0.5,-0.5 l 0,-1.521484 c 1.117273,-0.106126 2,-1.045425 2,-2.191407 l 0,-5.175781 0,-5.054687 c 0,-1.226694 -0.857358,-2.266879 -2,-2.50586 L 30,8.0332031 C 30,6.3572031 28.614668,5 26.923828,5 Z m 0,1.0117188 21.8476561,0 c 1.157076,0 2.064453,0.8977843 2.064453,2.0214843 l 0,2.0195309 C 27.851498,10.296341 27,11.334137 27,12.556641 L 27,16 4.9600472,16 C 4.8474732,16.147292 4.9950542,16.403878 5,16.460938 l 0,-3.904297 c 0,-1.222504 -0.8515038,-2.2603 -1.9882812,-2.503907 l 0,-2.0195309 c 0,-1.1237 0.9073764,-2.0214843 2.0644531,-2.0214843 z M 2.5,11 C 3.3320186,11 4,11.678141 4,12.556641 L 4,24 2.2050781,24 C 1.5302404,24 1,23.469409 1,22.787109 l 0,-3.03125 0,-2.144531 0,-5.054687 C 1,11.678141 1.6679813,11 2.5,11 Z m 27,0 c 0.832037,0 1.5,0.678141 1.5,1.556641 l 0,7.199218 0,3.03125 C 31,23.469409 30.469759,24 29.794922,24 L 28,24 28,12.556641 C 28,11.678141 28.667963,11 29.5,11 Z M 5,17 l 22,0 0,2.011719 -22,0 z m 0,3.011719 22,0 L 27,24 5,24 Z M 3,25 l 1,0 0,1 -1,0 z m 25,0 1,0 0,1 -1,0 z" transform="translate(0,1020.3622)" id="rect3404" inkscape:connector-curvature="0" sodipodi:nodetypes="sscsccsccccccccccccscscsssssscscccscsssscssccsssscsscsscccccccccccccccccccc"/>
  </g>

	
	
	<metadata>
		<rdf:RDF xmlns:rdf="http://www.w3.org/1999/02/22-rdf-syntax-ns#" xmlns:rdfs="http://www.w3.org/2000/01/rdf-schema#" xmlns:dc="http://purl.org/dc/elements/1.1/">
			<rdf:Description about="https://iconscout.com/legal#licenses" dc:title="Sofa, Couch, Belongings, Furniture, Furnishings, Household" dc:description="Sofa, Couch, Belongings, Furniture, Furnishings, Household" dc:publisher="Iconscout" dc:date="2016-12-14" dc:format="image/svg+xml" dc:language="en">
				<dc:creator>
					<rdf:Bag>
						<rdf:li>Jemis Mali</rdf:li>
					</rdf:Bag>
				</dc:creator>
			</rdf:Description>
		</rdf:RDF>
    </metadata></svg>
