<?xml version="1.0" encoding="UTF-8" standalone="no"?>
<svg xmlns:dc="http://purl.org/dc/elements/1.1/" xmlns:cc="http://creativecommons.org/ns#" xmlns:rdf="http://www.w3.org/1999/02/22-rdf-syntax-ns#" xmlns:svg="http://www.w3.org/2000/svg" xmlns="http://www.w3.org/2000/svg" xmlns:sodipodi="http://sodipodi.sourceforge.net/DTD/sodipodi-0.dtd" xmlns:inkscape="http://www.inkscape.org/namespaces/inkscape" width="32px" height="32px" viewBox="0 0 32 32.000001" id="svg2" version="1.1" inkscape:version="0.91 r13725" sodipodi:docname="6.svg">
  <defs id="defs4"/>
  <sodipodi:namedview id="base" pagecolor="#ffffff" bordercolor="#666666" borderopacity="1.0" inkscape:pageopacity="0.0" inkscape:pageshadow="2" inkscape:zoom="16" inkscape:cx="26.180467" inkscape:cy="11.867652" inkscape:document-units="px" inkscape:current-layer="layer1" showgrid="true" units="px" inkscape:snap-bbox="true" inkscape:bbox-paths="true" inkscape:bbox-nodes="true" inkscape:snap-bbox-edge-midpoints="true" inkscape:snap-bbox-midpoints="true" inkscape:window-width="1920" inkscape:window-height="1027" inkscape:window-x="-8" inkscape:window-y="-8" inkscape:window-maximized="1">
    <inkscape:grid type="xygrid" id="grid3336"/>
  </sodipodi:namedview>
  
  <g inkscape:label="Layer 1" inkscape:groupmode="layer" id="layer1" transform="translate(0,-1020.3622)">
    <path style="color:#000000;font-style:normal;font-variant:normal;font-weight:normal;font-stretch:normal;font-size:medium;line-height:normal;font-family:sans-serif;text-indent:0;text-align:start;text-decoration:none;text-decoration-line:none;text-decoration-style:solid;text-decoration-color:#000000;letter-spacing:normal;word-spacing:normal;text-transform:none;direction:ltr;block-progression:tb;writing-mode:lr-tb;baseline-shift:baseline;text-anchor:start;white-space:normal;clip-rule:nonzero;display:inline;overflow:visible;visibility:visible;opacity:1;isolation:auto;mix-blend-mode:normal;color-interpolation:sRGB;color-interpolation-filters:linearRGB;solid-color:#000000;solid-opacity:1;fill:#000000;fill-opacity:1;fill-rule:nonzero;stroke:none;stroke-width:1;stroke-linecap:butt;stroke-linejoin:miter;stroke-miterlimit:4;stroke-dasharray:none;stroke-dashoffset:0;stroke-opacity:1;color-rendering:auto;image-rendering:auto;shape-rendering:auto;text-rendering:auto;enable-background:accumulate" d="M 9.4375 0 C 6.985865 0 5 2.0033969 5 4.4667969 L 5 13.050781 C 4.910334 13.037767 4.8242265 13.013898 4.7324219 13.007812 C 2.8981274 12.886213 1.2739384 14.216762 1.03125 16.039062 C 0.82714879 17.571559 1.6631307 19.011835 3.0039062 19.650391 L 3.0039062 28.175781 C 3.0039062 29.168781 3.8130733 29.988281 4.8046875 29.988281 L 5 29.988281 L 5 31.5 A 0.50005 0.50005 0 0 0 5.5 32 L 7.5 32 A 0.50005 0.50005 0 0 0 8 31.5 L 8 29.988281 L 24 29.988281 L 24 31.5 A 0.50005 0.50005 0 0 0 24.5 32 L 26.5 32 A 0.50005 0.50005 0 0 0 27 31.5 L 27 29.988281 L 27.195312 29.988281 C 28.186926 29.988281 28.996094 29.168781 28.996094 28.175781 L 28.996094 19.648438 C 30.336869 19.009881 31.172851 17.569605 30.96875 16.037109 C 30.726061 14.214809 29.101873 12.884259 27.267578 13.005859 L 27.267578 13.007812 C 27.175774 13.013898 27.089666 13.037767 27 13.050781 L 27 4.4667969 C 27 2.0033969 25.014134 0 22.5625 0 L 9.4375 0 z M 9.4375 1 L 22.5625 1 C 24.47362 1 26 2.5362969 26 4.4667969 L 26 13.339844 C 24.81403 13.904915 23.999978 15.114809 24 16.5 L 24 16.529297 L 24 20 L 8 20 L 8 16.53125 L 8 16.5 C 8.0000219 15.114809 7.1859704 13.904915 6 13.339844 L 6 4.4667969 C 6 2.5362969 7.5263798 1 9.4375 1 z M 10.5 5 A 0.5 0.5 0 0 0 10 5.5 A 0.5 0.5 0 0 0 10.5 6 A 0.5 0.5 0 0 0 11 5.5 A 0.5 0.5 0 0 0 10.5 5 z M 16 5 A 0.5 0.5 0 0 0 15.5 5.5 A 0.5 0.5 0 0 0 16 6 A 0.5 0.5 0 0 0 16.5 5.5 A 0.5 0.5 0 0 0 16 5 z M 21.5 5 A 0.5 0.5 0 0 0 21 5.5 A 0.5 0.5 0 0 0 21.5 6 A 0.5 0.5 0 0 0 22 5.5 A 0.5 0.5 0 0 0 21.5 5 z M 13 7 A 0.5 0.5 0 0 0 12.5 7.5 A 0.5 0.5 0 0 0 13 8 A 0.5 0.5 0 0 0 13.5 7.5 A 0.5 0.5 0 0 0 13 7 z M 19 7 A 0.5 0.5 0 0 0 18.5 7.5 A 0.5 0.5 0 0 0 19 8 A 0.5 0.5 0 0 0 19.5 7.5 A 0.5 0.5 0 0 0 19 7 z M 10.5 9 A 0.5 0.5 0 0 0 10 9.5 A 0.5 0.5 0 0 0 10.5 10 A 0.5 0.5 0 0 0 11 9.5 A 0.5 0.5 0 0 0 10.5 9 z M 16 9 A 0.5 0.5 0 0 0 15.5 9.5 A 0.5 0.5 0 0 0 16 10 A 0.5 0.5 0 0 0 16.5 9.5 A 0.5 0.5 0 0 0 16 9 z M 21.5 9 A 0.5 0.5 0 0 0 21 9.5 A 0.5 0.5 0 0 0 21.5 10 A 0.5 0.5 0 0 0 22 9.5 A 0.5 0.5 0 0 0 21.5 9 z M 13 11 A 0.5 0.5 0 0 0 12.5 11.5 A 0.5 0.5 0 0 0 13 12 A 0.5 0.5 0 0 0 13.5 11.5 A 0.5 0.5 0 0 0 13 11 z M 19 11 A 0.5 0.5 0 0 0 18.5 11.5 A 0.5 0.5 0 0 0 19 12 A 0.5 0.5 0 0 0 19.5 11.5 A 0.5 0.5 0 0 0 19 11 z M 10.5 13 A 0.5 0.5 0 0 0 10 13.5 A 0.5 0.5 0 0 0 10.5 14 A 0.5 0.5 0 0 0 11 13.5 A 0.5 0.5 0 0 0 10.5 13 z M 16 13 A 0.5 0.5 0 0 0 15.5 13.5 A 0.5 0.5 0 0 0 16 14 A 0.5 0.5 0 0 0 16.5 13.5 A 0.5 0.5 0 0 0 16 13 z M 21.5 13 A 0.5 0.5 0 0 0 21 13.5 A 0.5 0.5 0 0 0 21.5 14 A 0.5 0.5 0 0 0 22 13.5 A 0.5 0.5 0 0 0 21.5 13 z M 27.333984 14.003906 C 28.652398 13.916906 29.804081 14.858269 29.978516 16.167969 C 30.152947 17.477769 29.289474 18.688519 27.994141 18.949219 L 28.001953 18.992188 L 27.996094 18.992188 L 27.996094 28.175781 C 27.996094 28.636181 27.646052 28.988281 27.195312 28.988281 L 25 28.988281 L 25 16.527344 L 25 16.498047 C 24.999979 15.176747 26.015572 14.091306 27.333984 14.003906 z M 4.6660156 14.005859 C 5.9844286 14.092859 7.0000208 15.1787 7 16.5 L 7 16.53125 L 7 28.988281 L 4.8046875 28.988281 C 4.3539487 28.988281 4.0039062 28.636181 4.0039062 28.175781 L 4.0039062 18.992188 L 3.9980469 18.992188 L 4.0058594 18.951172 C 2.7105254 18.690472 1.8470524 17.479722 2.0214844 16.169922 C 2.1959192 14.860222 3.3476021 13.918459 4.6660156 14.005859 z M 13 15 A 0.5 0.5 0 0 0 12.5 15.5 A 0.5 0.5 0 0 0 13 16 A 0.5 0.5 0 0 0 13.5 15.5 A 0.5 0.5 0 0 0 13 15 z M 19 15 A 0.5 0.5 0 0 0 18.5 15.5 A 0.5 0.5 0 0 0 19 16 A 0.5 0.5 0 0 0 19.5 15.5 A 0.5 0.5 0 0 0 19 15 z M 10.5 17 A 0.5 0.5 0 0 0 10 17.5 A 0.5 0.5 0 0 0 10.5 18 A 0.5 0.5 0 0 0 11 17.5 A 0.5 0.5 0 0 0 10.5 17 z M 16 17 A 0.5 0.5 0 0 0 15.5 17.5 A 0.5 0.5 0 0 0 16 18 A 0.5 0.5 0 0 0 16.5 17.5 A 0.5 0.5 0 0 0 16 17 z M 21.5 17 A 0.5 0.5 0 0 0 21 17.5 A 0.5 0.5 0 0 0 21.5 18 A 0.5 0.5 0 0 0 22 17.5 A 0.5 0.5 0 0 0 21.5 17 z M 8 21 L 24 21 L 24 23 L 8 23 L 8 21 z M 8 24 L 24 24 L 24 28.988281 L 8 28.988281 L 8 24 z M 6 30 L 7 30 L 7 31 L 6 31 L 6 30 z M 25 30 L 26 30 L 26 31 L 25 31 L 25 30 z " transform="translate(0,1020.3622)" id="rect3387"/>
  </g>

	
	
	<metadata>
		<rdf:RDF xmlns:rdf="http://www.w3.org/1999/02/22-rdf-syntax-ns#" xmlns:rdfs="http://www.w3.org/2000/01/rdf-schema#" xmlns:dc="http://purl.org/dc/elements/1.1/">
			<rdf:Description about="https://iconscout.com/legal#licenses" dc:title="Sofa, Armchair, Belongings, Furnishings, Furniture, Households" dc:description="Sofa, Armchair, Belongings, Furnishings, Furniture, Households" dc:publisher="Iconscout" dc:date="2016-12-14" dc:format="image/svg+xml" dc:language="en">
				<dc:creator>
					<rdf:Bag>
						<rdf:li>Jemis Mali</rdf:li>
					</rdf:Bag>
				</dc:creator>
			</rdf:Description>
		</rdf:RDF>
    </metadata></svg>
