<?xml version="1.0" encoding="UTF-8" standalone="no"?>
<svg xmlns:dc="http://purl.org/dc/elements/1.1/" xmlns:cc="http://creativecommons.org/ns#" xmlns:rdf="http://www.w3.org/1999/02/22-rdf-syntax-ns#" xmlns:svg="http://www.w3.org/2000/svg" xmlns="http://www.w3.org/2000/svg" xmlns:sodipodi="http://sodipodi.sourceforge.net/DTD/sodipodi-0.dtd" xmlns:inkscape="http://www.inkscape.org/namespaces/inkscape" width="32px" height="32px" viewBox="0 0 32 32.000001" id="svg2" version="1.1" inkscape:version="0.91 r13725" sodipodi:docname="2.svg">
  <defs id="defs4"/>
  <sodipodi:namedview id="base" pagecolor="#ffffff" bordercolor="#666666" borderopacity="1.0" inkscape:pageopacity="0.0" inkscape:pageshadow="2" inkscape:zoom="22.627417" inkscape:cx="12.650774" inkscape:cy="12.025756" inkscape:document-units="px" inkscape:current-layer="layer1" showgrid="true" units="px" inkscape:snap-bbox="true" inkscape:bbox-paths="true" inkscape:bbox-nodes="true" inkscape:snap-bbox-edge-midpoints="true" inkscape:snap-bbox-midpoints="true" inkscape:window-width="1920" inkscape:window-height="1027" inkscape:window-x="-8" inkscape:window-y="-8" inkscape:window-maximized="1">
    <inkscape:grid type="xygrid" id="grid3336"/>
  </sodipodi:namedview>
  
  <g inkscape:label="Layer 1" inkscape:groupmode="layer" id="layer1" transform="translate(0,-1020.3622)">
    <path style="color:#000000;font-style:normal;font-variant:normal;font-weight:normal;font-stretch:normal;font-size:medium;line-height:normal;font-family:sans-serif;text-indent:0;text-align:start;text-decoration:none;text-decoration-line:none;text-decoration-style:solid;text-decoration-color:#000000;letter-spacing:normal;word-spacing:normal;text-transform:none;direction:ltr;block-progression:tb;writing-mode:lr-tb;baseline-shift:baseline;text-anchor:start;white-space:normal;clip-rule:nonzero;display:inline;overflow:visible;visibility:visible;opacity:1;isolation:auto;mix-blend-mode:normal;color-interpolation:sRGB;color-interpolation-filters:linearRGB;solid-color:#000000;solid-opacity:1;fill:#000000;fill-opacity:1;fill-rule:nonzero;stroke:none;stroke-width:1;stroke-linecap:round;stroke-linejoin:round;stroke-miterlimit:4;stroke-dasharray:none;stroke-dashoffset:0;stroke-opacity:1;color-rendering:auto;image-rendering:auto;shape-rendering:auto;text-rendering:auto;enable-background:accumulate" d="M 5,5 C 3.3466406,5 2,6.3467 2,8 l 0,2.050781 c -1.14263812,0.238981 -2,1.279166 -2,2.50586 l 0,7.199218 0,3.03125 c 0,1.145982 0.88272656,2.085281 2,2.191407 L 2,26.5 c 2.76e-5,0.276131 0.2238691,0.499972 0.5,0.5 l 2,0 c 0.2761309,-2.8e-5 0.4999724,-0.223869 0.5,-0.5 l 0,-1.5 22,0 0,1.5 c 2.8e-5,0.276131 0.223869,0.499972 0.5,0.5 l 2,0 c 0.276131,-2.8e-5 0.499972,-0.223869 0.5,-0.5 l 0,-1.521484 c 1.117273,-0.106126 2,-1.045425 2,-2.191407 l 0,-5.175781 0,-5.054687 c 0,-1.226694 -0.857358,-2.266879 -2,-2.50586 L 30,8 C 30,6.3467 28.653359,5 27,5 L 23,5 C 21.956351,5 21.03767,5.5380212 20.5,6.3496094 19.96233,5.5380212 19.043649,5 18,5 L 14,5 C 12.956351,5 12.03767,5.5380212 11.5,6.3496094 10.96233,5.5380212 10.043649,5 9,5 Z m 0,1 4,0 c 1.116661,0 2,0.8834 2,2 L 11,13.455078 11,16 4.9824218,16 4.9667968,16.472657 5,16.460938 5,15 c 0.2761309,-2.8e-5 0.4999724,-0.223869 0.5,-0.5 0.6573047,-0.0093 0.6573047,-0.990704 0,-1 C 5.498897,13.224632 5.2753701,13.001978 5,13.001953 L 5,12.556641 C 5,11.329947 4.1426345,10.289762 3,10.050781 L 3,8 C 3,6.8834 3.8833394,6 5,6 Z m 9,0 4,0 c 1.116661,0 2,0.8834 2,2 L 20,13.455078 20,16 l -8,0 0,-2.511719 c 3.68e-4,-0.01107 3.68e-4,-0.02214 0,-0.0332 L 12,8 c 0,-1.1166 0.883339,-2 2,-2 z m 9,0 4,0 c 1.116661,0 2,0.8834 2,2 l 0,2.050781 c -1.142642,0.238981 -2,1.279166 -2,2.50586 l 0,0.445312 -0.0078,0 C 26.719871,13.006233 26.501057,13.227651 26.5,13.5 c -0.657305,0.0093 -0.657305,0.990704 0,1 2.8e-5,0.276131 0.223869,0.499972 0.5,0.5 l 0,1 -6,0 0,-2.511719 c 3.68e-4,-0.01107 3.68e-4,-0.02214 0,-0.0332 L 21,8 C 21,6.8834 21.883339,6 23,6 Z M 4.9921875,7 C 4.7191123,7.0042942 4.4999935,7.2268911 4.5,7.5 c -0.6573047,0.0093 -0.6573047,0.9907041 0,1 -0.00956,0.6761613 1.0095626,0.6761613 1,0 0.6573047,-0.0093 0.6573047,-0.9907041 0,-1 C 5.5000057,7.2207895 5.2713643,6.9956657 4.9921875,7 Z m 4,0 C 8.7191123,7.0042942 8.4999935,7.2268911 8.5,7.5 c -0.6573047,0.0093 -0.6573047,0.9907041 0,1 -0.00956,0.6761613 1.0095626,0.6761613 1,0 0.657305,-0.0093 0.657305,-0.9907041 0,-1 C 9.5000057,7.2207895 9.2713643,6.9956657 8.9921875,7 Z M 13.992188,7 C 13.719113,7.0042939 13.499994,7.2268909 13.5,7.5 c -0.657305,0.0093 -0.657305,0.9907041 0,1 -0.0096,0.6761613 1.009563,0.6761613 1,0 0.657305,-0.0093 0.657305,-0.9907041 0,-1 6e-6,-0.2792103 -0.228635,-0.504334 -0.507812,-0.5 z m 4,0 C 17.719113,7.0042939 17.499994,7.2268909 17.5,7.5 c -0.657305,0.0093 -0.657305,0.9907041 0,1 -0.0096,0.6761613 1.009563,0.6761613 1,0 0.657305,-0.0093 0.657305,-0.9907041 0,-1 6e-6,-0.2792103 -0.228635,-0.504334 -0.507812,-0.5 z m 5,0 C 22.719113,7.0042939 22.499994,7.2268909 22.5,7.5 c -0.657305,0.0093 -0.657305,0.9907041 0,1 -0.0096,0.6761613 1.009563,0.6761613 1,0 0.657305,-0.0093 0.657305,-0.9907041 0,-1 6e-6,-0.2792103 -0.228635,-0.504334 -0.507812,-0.5 z m 4,0 C 26.719113,7.0042939 26.499994,7.2268909 26.5,7.5 c -0.657305,0.0093 -0.657305,0.9907041 0,1 -0.0096,0.6761613 1.009563,0.6761613 1,0 0.657305,-0.0093 0.657305,-0.9907041 0,-1 6e-6,-0.2792103 -0.228635,-0.504334 -0.507812,-0.5 z M 6.9921875,10 C 6.7191123,10.004294 6.4999935,10.226891 6.5,10.5 c -0.6573047,0.0093 -0.6573047,0.990704 0,1 -0.00956,0.676161 1.0095626,0.676161 1,0 0.6573047,-0.0093 0.6573047,-0.990704 0,-1 5.7e-6,-0.27921 -0.2286357,-0.5043343 -0.5078125,-0.5 z m 9.0000005,0 c -0.273075,0.0043 -0.492194,0.226891 -0.492188,0.5 -0.657305,0.0093 -0.657305,0.990704 0,1 -0.0096,0.676161 1.009563,0.676161 1,0 0.657305,-0.0093 0.657305,-0.990704 0,-1 6e-6,-0.27921 -0.228635,-0.504334 -0.507812,-0.5 z m 9,0 c -0.273075,0.0043 -0.492194,0.226891 -0.492188,0.5 -0.657305,0.0093 -0.657305,0.990704 0,1 -0.0096,0.676161 1.009563,0.676161 1,0 0.657305,-0.0093 0.657305,-0.990704 0,-1 6e-6,-0.27921 -0.228635,-0.504334 -0.507812,-0.5 z M 2.5,11 C 3.3320124,11 4,11.678141 4,12.556641 L 4,24 2.2050781,24 C 1.5302413,24 1,23.469409 1,22.787109 L 1,17.611328 1,12.556641 C 1,11.678141 1.6679752,11 2.5,11 Z m 27,0 c 0.832037,0 1.5,0.678141 1.5,1.556641 l 0,7.199218 0,3.03125 C 31,23.469409 30.469759,24 29.794922,24 L 28,24 28,12.556641 C 28,11.678141 28.667963,11 29.5,11 Z M 8.9921875,13.001953 C 8.7198707,13.006233 8.5010573,13.227652 8.5,13.5 c -0.6573047,0.0093 -0.6573047,0.990704 0,1 -0.00956,0.676161 1.0095626,0.676161 1,0 0.657305,-0.0093 0.657305,-0.990704 0,-1 -0.00108,-0.278445 -0.229399,-0.502372 -0.5078125,-0.498047 z m 5.0000005,0 C 13.719871,13.006233 13.501057,13.227651 13.5,13.5 c -0.657305,0.0093 -0.657305,0.990704 0,1 -0.0096,0.676161 1.009563,0.676161 1,0 0.657305,-0.0093 0.657305,-0.990704 0,-1 -0.0011,-0.278445 -0.229399,-0.502371 -0.507812,-0.498047 z m 4,0 C 17.719871,13.006233 17.501057,13.227651 17.5,13.5 c -0.657305,0.0093 -0.657305,0.990704 0,1 -0.0096,0.676161 1.009563,0.676161 1,0 0.657305,-0.0093 0.657305,-0.990704 0,-1 -0.0011,-0.278445 -0.229399,-0.502371 -0.507812,-0.498047 z m 5,0 C 22.719871,13.006233 22.501057,13.227651 22.5,13.5 c -0.657305,0.0093 -0.657305,0.990704 0,1 -0.0096,0.676161 1.009563,0.676161 1,0 0.657305,-0.0093 0.657305,-0.990704 0,-1 -0.0011,-0.278445 -0.229399,-0.502371 -0.507812,-0.498047 z M 5,17 l 22,0 0,2.011719 -22,0 z m 0,3.011719 22,0 L 27,24 5,24 Z M 3,25 l 1,0 0,1 -1,0 z m 25,0 1,0 0,1 -1,0 z" transform="translate(0,1020.3622)" id="rect4672" inkscape:connector-curvature="0" sodipodi:nodetypes="sscscsccccccccccccscscssscsscssssscccccccccscssssscccccssssscscccccccccssccccccccccccccccccccccccccccccccccccccccccccccccccccccsscsscsssscsscsscccccccccccccccccccccccccccccccccccccccccccc"/>
  </g>

	
	
	<metadata>
		<rdf:RDF xmlns:rdf="http://www.w3.org/1999/02/22-rdf-syntax-ns#" xmlns:rdfs="http://www.w3.org/2000/01/rdf-schema#" xmlns:dc="http://purl.org/dc/elements/1.1/">
			<rdf:Description about="https://iconscout.com/legal#licenses" dc:title="Sofa, Couch, Belongings, Furniture, Furnishings, Household" dc:description="Sofa, Couch, Belongings, Furniture, Furnishings, Household" dc:publisher="Iconscout" dc:date="2016-12-14" dc:format="image/svg+xml" dc:language="en">
				<dc:creator>
					<rdf:Bag>
						<rdf:li>Jemis Mali</rdf:li>
					</rdf:Bag>
				</dc:creator>
			</rdf:Description>
		</rdf:RDF>
    </metadata></svg>
