<?xml version="1.0" encoding="UTF-8" standalone="no"?>
<svg xmlns:dc="http://purl.org/dc/elements/1.1/" xmlns:cc="http://creativecommons.org/ns#" xmlns:rdf="http://www.w3.org/1999/02/22-rdf-syntax-ns#" xmlns:svg="http://www.w3.org/2000/svg" xmlns="http://www.w3.org/2000/svg" xmlns:sodipodi="http://sodipodi.sourceforge.net/DTD/sodipodi-0.dtd" xmlns:inkscape="http://www.inkscape.org/namespaces/inkscape" width="32px" height="32px" viewBox="0 0 32 32.000001" id="svg2" version="1.1" inkscape:version="0.91 r13725" sodipodi:docname="9.svg">
  <defs id="defs4"/>
  <sodipodi:namedview id="base" pagecolor="#ffffff" bordercolor="#666666" borderopacity="1.0" inkscape:pageopacity="0.0" inkscape:pageshadow="2" inkscape:zoom="16" inkscape:cx="29.097746" inkscape:cy="15.849431" inkscape:document-units="px" inkscape:current-layer="layer1" showgrid="true" units="px" inkscape:snap-bbox="true" inkscape:bbox-paths="true" inkscape:bbox-nodes="true" inkscape:snap-bbox-edge-midpoints="true" inkscape:snap-bbox-midpoints="true" inkscape:window-width="1920" inkscape:window-height="1027" inkscape:window-x="-8" inkscape:window-y="-8" inkscape:window-maximized="1">
    <inkscape:grid type="xygrid" id="grid3336"/>
  </sodipodi:namedview>
  
  <g inkscape:label="Layer 1" inkscape:groupmode="layer" id="layer1" transform="translate(0,-1020.3622)">
    <path style="color:#000000;font-style:normal;font-variant:normal;font-weight:normal;font-stretch:normal;font-size:medium;line-height:normal;font-family:sans-serif;text-indent:0;text-align:start;text-decoration:none;text-decoration-line:none;text-decoration-style:solid;text-decoration-color:#000000;letter-spacing:normal;word-spacing:normal;text-transform:none;direction:ltr;block-progression:tb;writing-mode:lr-tb;baseline-shift:baseline;text-anchor:start;white-space:normal;clip-rule:nonzero;display:inline;overflow:visible;visibility:visible;opacity:1;isolation:auto;mix-blend-mode:normal;color-interpolation:sRGB;color-interpolation-filters:linearRGB;solid-color:#000000;solid-opacity:1;fill:#000000;fill-opacity:1;fill-rule:nonzero;stroke:none;stroke-width:1;stroke-linecap:round;stroke-linejoin:round;stroke-miterlimit:4;stroke-dasharray:none;stroke-dashoffset:0;stroke-opacity:1;color-rendering:auto;image-rendering:auto;shape-rendering:auto;text-rendering:auto;enable-background:accumulate" d="M 23.283203 2.0019531 A 0.50005 0.50005 0 0 0 22.931641 2.1621094 L 20.833984 4.4414062 L 19.539062 3.1464844 A 0.50005 0.50005 0 0 0 18.832031 3.1464844 C 18.114324 3.8641844 17.834966 4.9121781 18.097656 5.8925781 C 18.360353 6.8729781 19.127026 7.6396438 20.107422 7.9023438 C 21.087819 8.1650437 22.133863 7.8857687 22.851562 7.1679688 A 0.50005 0.50005 0 0 0 22.851562 6.4609375 L 21.542969 5.1503906 L 23.322266 3.2167969 L 27.691406 7.4160156 L 26.265625 8.3027344 A 0.50005 0.50005 0 0 0 26.03125 8.7285156 L 26.03125 11 L 26 11 C 24.900649 11 24 11.9007 24 13 L 0.5 13 A 0.50005 0.50005 0 0 0 0 13.5 L 0 15.5 A 0.50005 0.50005 0 0 0 0.5 16 L 2 16 L 2 29.5 A 0.50005 0.50005 0 0 0 2.5 30 L 4.5 30 A 0.50005 0.50005 0 0 0 4.9980469 29.537109 L 5.9648438 16 L 26.035156 16 L 27.001953 29.537109 A 0.50005 0.50005 0 0 0 27.5 30 L 29.5 30 A 0.50005 0.50005 0 0 0 30 29.5 L 30 16 L 31.5 16 A 0.50005 0.50005 0 0 0 32 15.5 L 32 13.5 A 0.50005 0.50005 0 0 0 31.5 13 L 29 13 C 29 11.911401 28.116002 11.021206 27.03125 11.003906 L 27.03125 9.0058594 L 28.763672 7.9257812 A 0.50005 0.50005 0 0 0 28.845703 7.140625 L 23.646484 2.140625 A 0.50005 0.50005 0 0 0 23.283203 2.0019531 z M 19.390625 4.4121094 L 20.490234 5.5117188 L 21.587891 6.609375 C 21.193891 6.802375 20.802502 7.0547 20.365234 6.9375 C 19.728378 6.7669 19.233146 6.2716656 19.0625 5.6347656 C 18.945339 5.1975656 19.197592 4.8061094 19.390625 4.4121094 z M 26 12 L 26.455078 12 A 0.50005 0.50005 0 0 0 26.601562 12 L 27 12 C 27.562649 12 28 12.4374 28 13 L 25 13 C 25 12.4374 25.437351 12 26 12 z M 1 14 L 31 14 L 31 15 L 5.5214844 15 L 2.5 15 L 1 15 L 1 14 z M 3 16 L 4.9628906 16 L 4.0351562 29 L 3 29 L 3 16 z M 27.037109 16 L 29 16 L 29 29 L 27.964844 29 L 27.037109 16 z " transform="translate(0,1020.3622)" id="rect4936"/>
  </g>

	
	
	<metadata>
		<rdf:RDF xmlns:rdf="http://www.w3.org/1999/02/22-rdf-syntax-ns#" xmlns:rdfs="http://www.w3.org/2000/01/rdf-schema#" xmlns:dc="http://purl.org/dc/elements/1.1/">
			<rdf:Description about="https://iconscout.com/legal#licenses" dc:title="Study, Table, Studying, Belongings, Desk, Furniture, Furnishing, Household" dc:description="Study, Table, Studying, Belongings, Desk, Furniture, Furnishing, Household" dc:publisher="Iconscout" dc:date="2016-12-14" dc:format="image/svg+xml" dc:language="en">
				<dc:creator>
					<rdf:Bag>
						<rdf:li>Jemis Mali</rdf:li>
					</rdf:Bag>
				</dc:creator>
			</rdf:Description>
		</rdf:RDF>
    </metadata></svg>
