<svg xmlns="http://www.w3.org/2000/svg" width="32" height="32" viewBox="0 0 32 32"><path d="m 38.883737,1033.992 c -1.311765,0 -2.382812,1.0739 -2.382812,2.3867 l 0,0.1563 a 2.9999845,3.0833178 0 0 0 -1,0.3691 2.9999845,3.0833178 0 0 0 -1.5,2.6699 l 3,0 3,0 a 2.9999845,3.0833178 0 0 0 -1.5,-2.6699 2.9999845,3.0833178 0 0 0 -1,-0.3672 l 0,-0.1582 c 0,-0.7772 0.608778,-1.3867 1.382812,-1.3867 l 4.236329,0 c 0.774034,0 1.380859,0.6095 1.380859,1.3867 l 0,9.6992 0,0.4141 -13.367188,0 c -0.248296,-0.8064 -1.060276,-1.8164 -1.820312,-1.8164 -0.2204,0 -0.437878,0.045 -0.642578,0.1289 -0.2072,-0.7894 -0.898047,-1.3379 -1.685547,-1.3379 -0.506551,0 -0.962268,0.2241 -1.28125,0.582 a 0.50021458,0.50021458 0 0 0 -0.296875,-0.088 l 0,0 a 0.50005,0.50005 0 0 0 -0.03516,0 c -0.576529,0.037 -1.10336,0.3285 -1.453125,0.7851 -0.424039,-0.418 -0.983798,-0.673 -1.589844,-0.6739 -1.253361,0 -2.267444,1.124 -2.318359,2.418 l -0.509766,0 c -0.27701,0 -0.5,0.223 -0.5,0.5 l 0,2 c 0,0.2771 0.22299,0.5 0.5,0.5 l 0.5,0 27,0 0.5,0 c 0.27701,0 0.5,-0.2229 0.5,-0.5 l 0,-2 c 0,-0.277 -0.22299,-0.5 -0.5,-0.5 l -2,0 0,-0.4141 0,-9.6992 c 0,-1.3128 -1.069094,-2.3867 -2.380859,-2.3867 l -4.236329,0 z m -4.382812,6 0,1 1,0 0,-1 -1,0 z m 2,0 0,1 1,0 0,-1 -1,0 z m 2,0 0,1 1,0 0,-1 -1,0 z m -4,2 0,1 1,0 0,-1 -1,0 z m 2,0 0,1 1,0 0,-1 -1,0 z m 2,0 0,1 1,0 0,-1 -1,0 z m -4,2 0,1 1,0 0,-1 -1,0 z m 2,0 0,1 1,0 0,-1 -1,0 z m 2,0 0,1 1,0 0,-1 -1,0 z m -18.5,6.5 0,3.3379 c 0,2.0291 1.561,3.6621 3.5,3.6621 l 0,1.5 1,0 0,-1.5 18,0 0,1.5 1,0 0,-1.5 c 1.939,0 3.5,-1.633 3.5,-3.6621 l 0,-3.3379 -27,0 z" color="#000" overflow="visible" transform="translate(-18 -1030.992)" style="isolation:auto;mix-blend-mode:normal"/></svg>