<svg xmlns="http://www.w3.org/2000/svg" width="32" height="32" viewBox="0 0 32 32"><path d="m 19.000921,1037.0916 0,2 31,0 0,-2 -31,0 z m 2,3 0,12.9004 c 0,1.108 0.891991,2 2,2 l 1,0 0,2 0.5,0 1,0 0.5,0 0,-2 8,0 0,-14.9004 -13,0 z m 14,0 0,14.9004 8,0 0,2 0.5,0 1,0 0.5,0 0,-2 1,0 c 1.108009,0 2,-0.892 2,-2 l 0,-12.9004 -13,0 z m -3.5,3.4004 1,0 0,8 -1,0 0,-1.0137 -0.103516,0 c -1.041392,0 -1.896484,-0.8532 -1.896484,-1.8945 l 0,-2.1836 c 0,-1.0413 0.855092,-1.8965 1.896484,-1.8965 l 0.103516,0 0,-1.0117 z m 5,0 1,0 0,1.0117 0.105469,0 c 1.041393,0 1.894531,0.8552 1.894531,1.8965 l 0,2.1836 c 0,1.0413 -0.853138,1.8945 -1.894531,1.8945 l -0.105469,0 0,1.0137 -1,0 0,-1.0137 0,-1 0,-3.9746 0,-1 0,-1.0117 z m -5.103516,2.0117 c -0.505007,0 -0.896484,0.3922 -0.896484,0.8965 l 0,2.1836 c 0,0.5043 0.391477,0.8945 0.896484,0.8945 l 0.103516,0 0,-3.9746 -0.103516,0 z m 6.103516,0 0,3.9746 0.105469,0 c 0.505007,0 0.894531,-0.3902 0.894531,-0.8945 l 0,-2.1836 c 0,-0.5043 -0.389524,-0.8965 -0.894531,-0.8965 l -0.105469,0 z" transform="translate(-18 -1030.992)"/></svg>