<svg xmlns="http://www.w3.org/2000/svg" width="32" height="32" viewBox="0 0 32 32"><path d="m 18.000921,1030.994 0,1.998 1.019531,0 0,30 0.980469,0 0,-2.498 12,0 0,2.498 0.982422,0 0,-30 12.017578,0 0,0 1,0 0,29.998 2,0 0,-29.998 1,0 0,-2 -31,0 z m 2,1.998 12,0 0,1 -12,0 0,-1 z m 3.001953,4 1,0 0,0.5762 c 0,0.2222 0.193782,0.4238 0.5,0.4238 l 3.001953,0 c 0.306219,0 0.501953,-0.2016 0.501953,-0.4238 l 0,-0.5762 1,0 0,0.5762 c 0,0.8028 -0.699434,1.4238 -1.501953,1.4238 l -3.001953,0 c -0.802518,0 -1.5,-0.621 -1.5,-1.4238 l 0,-0.5762 z m -3.001953,5 12,0 0,1 -12,0 0,-1 z m 3.001953,4 1,0 0,0.5762 c 0,0.2222 0.193782,0.4238 0.5,0.4238 l 3.001953,0 c 0.306219,0 0.501953,-0.2016 0.501953,-0.4238 l 0,-0.5762 1,0 0,0.5762 c 0,0.8028 -0.699434,1.4238 -1.501953,1.4238 l -3.001953,0 c -0.802518,0 -1.5,-0.621 -1.5,-1.4238 l 0,-0.5762 z m -3.001953,5 12,0 0,1 -12,0 0,-1 z m 3.001953,4 1,0 0,0.5762 c 0,0.2222 0.193782,0.4238 0.5,0.4238 l 3.001953,0 c 0.306219,0 0.501953,-0.2016 0.501953,-0.4238 l 0,-0.5762 1,0 0,0.5762 c 0,0.8028 -0.699434,1.4238 -1.501953,1.4238 l -3.001953,0 c -0.802518,0 -1.5,-0.621 -1.5,-1.4238 l 0,-0.5762 z" transform="translate(-18 -1030.992)"/></svg>