<svg xmlns="http://www.w3.org/2000/svg" width="32" height="32" viewBox="0 0 32 32"><path fill-rule="evenodd" d="m 18.000921,1030.992 0,1 1,0 0,28.5 0,1 0,1.5 1,0 0,-1.5 28,0 0,1.5 1,0 0,-1.5 0,-1 0,-28.5 1,0 0,-1 -32,0 z m 2,1 28,0 0,28.5 -0.984375,0 0,-27.5 -26.015625,0 0,27.5 -1,0 0,-28.5 z m 3,3 22,0 0,11 -22,0 0,-10.5 0,-0.5 z m 1,1 0,9 20,0 0,-9 -20,0 z m 5,3 10,0 0,1 -1.011719,0 0,0.1035 c 0,1.0414 -0.853249,1.8965 -1.894531,1.8965 l -4.185547,0 c -1.041282,0 -1.894531,-0.8551 -1.894531,-1.8965 l 0,-0.1035 -1.013672,0 0,-1 z m 2.013672,1 0,0.1035 c 0,0.505 0.390281,0.8965 0.894531,0.8965 l 4.185547,0 c 0.504251,0 0.894531,-0.3915 0.894531,-0.8965 l 0,-0.1035 -5.974609,0 z m -8.013672,8 22,0 0,11 -22,0 0,-10.5 0,-0.5 z m 1,1 0,9 20,0 0,-9 -20,0 z m 5,3 10,0 0,1 -1.011719,0 0,0.1035 c 0,1.0414 -0.853249,1.8965 -1.894531,1.8965 l -4.185547,0 c -1.041282,0 -1.894531,-0.8551 -1.894531,-1.8965 l 0,-0.1035 -1.013672,0 0,-1 z m 2.013672,1 0,0.1035 c 0,0.505 0.390281,0.8965 0.894531,0.8965 l 4.185547,0 c 0.504251,0 0.894531,-0.3915 0.894531,-0.8965 l 0,-0.1035 -5.974609,0 z" color="#000" font-family="sans-serif" font-weight="400" overflow="visible" transform="translate(-18 -1030.992)" white-space="normal" style="line-height:normal;text-indent:0;text-align:start;text-decoration-line:none;text-decoration-style:solid;text-decoration-color:#000;text-transform:none;block-progression:tb;isolation:auto;mix-blend-mode:normal"/></svg>