<svg xmlns="http://www.w3.org/2000/svg" width="32" height="32" viewBox="0 0 32 32"><path d="m 9.5009203,1032.2699 c -0.28565,0 -0.5,0.2143 -0.5,0.5 l 0,8.5 0,4 0,2 0,2.1875 0.9999997,0 0,-2.1875 28,0 0,2.2247 1,0 0,-2.2247 0,-0.7753 0,-1.2247 -29,0 0,-5.4199 c -0.009,-0.053 -0.009,-0.1071 0,-0.1601 l 0,-1.9121 0,-5.0079 c 0,-0.2857 -0.2143497,-0.5 -0.4999997,-0.5 z m 1.9999997,5.0079 c -0.28565,0 -0.5,0.2143 -0.5,0.5 l 0,1.4921 3,0 0,-1.4121 c -0.0064,-0.037 -0.0079,-0.075 -0.0059,-0.1132 -0.01685,-0.2678 -0.220371,-0.4668 -0.494141,-0.4668 l -2,0 z m 3.5,1 0,0.9921 21.998047,0 c -0.0044,-0.5586 -0.438197,-0.9921 -0.998047,-0.9921 l -21,0 z m -4,1.9921 0,4 28,0 0,-3 c 0,-0.5627 -0.43734,-1 -1,-1 l -23.384765,0 c -0.07578,0.018 -0.154669,0.018 -0.230469,0 l -3.384766,0 z" color="#000" font-family="sans-serif" font-weight="400" overflow="visible" transform="translate(-8 -1024.495)" white-space="normal" style="line-height:normal;text-indent:0;text-align:start;text-decoration-line:none;text-decoration-style:solid;text-decoration-color:#000;text-transform:none;block-progression:tb;isolation:auto;mix-blend-mode:normal"/></svg>