<svg xmlns="http://www.w3.org/2000/svg" width="32" height="32" viewBox="0 0 32 32"><path d="m 22.077141,1035.9928 21.84766,0 c 1.15708,0 2.06445,0.8977 2.06445,2.0215 l 0,2.0196 c -1.13678,0.2436 -1.98828,1.2814 -1.98828,2.5038 l 0,3.4435 -21.99023,0 c 0,0 -0.01,-2.6006 -0.01,-3.4435 0,-1.2225 -0.8515,-2.2602 -1.98828,-2.5038 l 0,-2.0196 c 0,-1.1238 0.90738,-2.0215 2.06445,-2.0215 z m -2.57617,4.9883 c 0.83201,0 1.5,0.6782 1.5,1.5563 l 0,11.4437 -1.79492,0 c -0.67484,0 -1.20312,-0.5307 -1.20313,-1.2129 l 0,-5.1758 -0.002,0 0,-5.0547 c 0,-0.8784 0.66798,-1.5565 1.5,-1.5565 z m 27,0 c 0.83204,0 1.5,0.6782 1.5,1.5563 l 0,7.1993 0,3.0315 c 0,0.6822 -0.53024,1.2129 -1.20508,1.2129 l -1.79492,0 0,-11.4437 c 0,-0.8784 0.66796,-1.5563 1.5,-1.5563 z m -24.5,6 22,0 0,2.0097 -22,0 z m 0,3.0097 22,0 0,3.9903 -22,0 z m -3.000025,4.9824 2.000025,0.01 0,2.0088 -2.000025,-0.01 z m 26.000025,0.01 1.999975,0 0,2.0037 -1.999975,0 z" color="#000" font-family="sans-serif" font-weight="400" overflow="visible" transform="translate(-18 -1030.992)" white-space="normal" style="line-height:normal;text-indent:0;text-align:start;text-decoration-line:none;text-decoration-style:solid;text-decoration-color:#000;text-transform:none;block-progression:tb;isolation:auto;mix-blend-mode:normal"/></svg>