<svg xmlns="http://www.w3.org/2000/svg" width="32" height="32" viewBox="0 0 32 32"><path d="m 27.43539,1032.992 c -1.91112,0 -3.4375,1.5342 -3.4375,3.4648 l 0,8.875 c 1.18597,0.5651 2.00002,1.7749 2,3.1602 l 0,0.031 0,3.4687 16,0 0,-3.4668 0,-0.033 c -2e-5,-1.3846 0.81438,-2.5948 2,-3.1602 l 0,-8.875 c 0,-1.9305 -1.52639,-3.4648 -3.4375,-3.4648 l -13.125,0 z m 1.027344,4 c 0.0118,-3e-4 0.02346,-3e-4 0.03516,0 0.27614,0 0.5,0.2239 0.5,0.5 0,0.2761 -0.22386,0.5 -0.5,0.5 -0.276144,0 -0.500004,-0.2239 -0.500004,-0.5 -6.5e-4,-0.2629 0.202514,-0.481 0.464844,-0.5 z m 5.5,0 c 0.0118,-3e-4 0.02346,-3e-4 0.03516,0 0.27614,0 0.5,0.2239 0.5,0.5 0,0.2761 -0.22386,0.5 -0.5,0.5 -0.27614,0 -0.5,-0.2239 -0.5,-0.5 -6.5e-4,-0.2629 0.202514,-0.481 0.464844,-0.5 z m 5.5,0 c 0.0118,-3e-4 0.02346,-3e-4 0.03516,0 0.27614,0 0.5,0.2239 0.5,0.5 0,0.2761 -0.22386,0.5 -0.5,0.5 -0.27614,0 -0.5,-0.2239 -0.5,-0.5 -6.5e-4,-0.2629 0.202514,-0.481 0.464844,-0.5 z m -8.5,2 c 0.0118,-3e-4 0.02346,-3e-4 0.03516,0 0.27614,0 0.5,0.2239 0.5,0.5 0,0.2761 -0.22386,0.5 -0.5,0.5 -0.27614,0 -0.5,-0.2239 -0.5,-0.5 -6.5e-4,-0.2629 0.202514,-0.481 0.464844,-0.5 z m 6,0 c 0.0118,-3e-4 0.02346,-3e-4 0.03516,0 0.27614,0 0.5,0.2239 0.5,0.5 0,0.2761 -0.22386,0.5 -0.5,0.5 -0.27614,0 -0.5,-0.2239 -0.5,-0.5 -6.5e-4,-0.2629 0.202514,-0.481 0.464844,-0.5 z m -8.5,2 c 0.0118,-3e-4 0.02346,-3e-4 0.03516,0 0.27614,0 0.5,0.2239 0.5,0.5 0,0.2761 -0.22386,0.5 -0.5,0.5 -0.276144,0 -0.500004,-0.2239 -0.500004,-0.5 -6.5e-4,-0.2629 0.202514,-0.481 0.464844,-0.5 z m 5.5,0 c 0.0118,-3e-4 0.02346,-3e-4 0.03516,0 0.27614,0 0.5,0.2239 0.5,0.5 0,0.2761 -0.22386,0.5 -0.5,0.5 -0.27614,0 -0.5,-0.2239 -0.5,-0.5 -6.5e-4,-0.2629 0.202514,-0.481 0.464844,-0.5 z m 5.5,0 c 0.0118,-3e-4 0.02346,-3e-4 0.03516,0 0.27614,0 0.5,0.2239 0.5,0.5 0,0.2761 -0.22386,0.5 -0.5,0.5 -0.27614,0 -0.5,-0.2239 -0.5,-0.5 -6.5e-4,-0.2629 0.202514,-0.481 0.464844,-0.5 z m -8.5,2 c 0.0118,-3e-4 0.02346,-3e-4 0.03516,0 0.27614,0 0.5,0.2239 0.5,0.5 0,0.2761 -0.22386,0.5 -0.5,0.5 -0.27614,0 -0.5,-0.2239 -0.5,-0.5 -6.5e-4,-0.2629 0.202514,-0.481 0.464844,-0.5 z m 6,0 c 0.0118,-3e-4 0.02346,-3e-4 0.03516,0 0.27614,0 0.5,0.2239 0.5,0.5 0,0.2761 -0.22386,0.5 -0.5,0.5 -0.27614,0 -0.5,-0.2239 -0.5,-0.5 -6.5e-4,-0.2629 0.202514,-0.481 0.464844,-0.5 z m -8.5,2 c 0.0118,-3e-4 0.02346,-3e-4 0.03516,0 0.27614,0 0.5,0.2239 0.5,0.5 0,0.2761 -0.22386,0.5 -0.5,0.5 -0.27614,0 -0.5,-0.2239 -0.5,-0.5 -6.5e-4,-0.2629 0.202514,-0.481 0.464844,-0.5 z m 5.5,0 c 0.0118,-3e-4 0.02346,-3e-4 0.03516,0 0.27614,0 0.5,0.2239 0.5,0.5 0,0.2761 -0.22386,0.5 -0.5,0.5 -0.27614,0 -0.5,-0.2239 -0.5,-0.5 -6.5e-4,-0.2629 0.202514,-0.481 0.464844,-0.5 z m 5.5,0 c 0.0118,-3e-4 0.02346,-3e-4 0.03516,0 0.27614,0 0.5,0.2239 0.5,0.5 0,0.2761 -0.22386,0.5 -0.5,0.5 -0.27614,0 -0.5,-0.2239 -0.5,-0.5 -6.5e-4,-0.2629 0.202514,-0.481 0.464844,-0.5 z m -16.798828,1.006 c -1.31759,-0.086 -2.466283,0.8549 -2.640625,2.164 -0.17443,1.3097 0.689045,2.5206 1.984375,2.7813 l -0.0098,0.041 0.0039,0 0,9.1836 c 0,0.4604 0.350051,0.8125 0.800781,0.8125 l 2.195312,0 0,-12.457 0,-0.031 c 2e-5,-1.3206 -1.014573,-2.4062 -2.332031,-2.4941 l -0.002,0 z m 22.669921,0 0.002,0 c -1.317806,0.087 -2.335004,1.1718 -2.335984,2.492 l 0,0.031 0,12.4571 2.195312,0 c 0.450731,0 0.802735,-0.3522 0.802735,-0.8125 l 0,-9.1837 0.0039,0 -0.0098,-0.041 c 1.29534,-0.2608 2.158805,-1.4716 1.984374,-2.7814 -0.17444,-1.3097 -1.324168,-2.251 -2.642578,-2.164 z m -14.371093,0.994 c 0.0118,-3e-4 0.02346,-3e-4 0.03516,0 0.27614,0 0.5,0.2239 0.5,0.5 0,0.2761 -0.22386,0.5 -0.5,0.5 -0.27614,0 -0.5,-0.2239 -0.5,-0.5 -6.5e-4,-0.2629 0.202514,-0.481 0.464844,-0.5 z m 6,0 c 0.0118,-3e-4 0.02346,-3e-4 0.03516,0 0.27614,0 0.5,0.2239 0.5,0.5 0,0.2761 -0.22386,0.5 -0.5,0.5 -0.27614,0 -0.5,-0.2239 -0.5,-0.5 -6.5e-4,-0.2629 0.202514,-0.481 0.464844,-0.5 z m -8.5,2 c 0.0118,-3e-4 0.02346,-3e-4 0.03516,0 0.27614,0 0.5,0.2239 0.5,0.5 0,0.2761 -0.22386,0.5 -0.5,0.5 -0.27614,0 -0.5,-0.2239 -0.5,-0.5 -6.5e-4,-0.2629 0.202514,-0.481 0.464844,-0.5 z m 5.5,0 c 0.0118,-3e-4 0.02346,-3e-4 0.03516,0 0.27614,0 0.5,0.2239 0.5,0.5 0,0.2761 -0.22386,0.5 -0.5,0.5 -0.27614,0 -0.5,-0.2239 -0.5,-0.5 -6.5e-4,-0.2629 0.202514,-0.481 0.464844,-0.5 z m 5.5,0 c 0.0118,-3e-4 0.02346,-3e-4 0.03516,0 0.27614,0 0.5,0.2239 0.5,0.5 0,0.2761 -0.22386,0.5 -0.5,0.5 -0.27614,0 -0.5,-0.2239 -0.5,-0.5 -6.5e-4,-0.2629 0.202514,-0.481 0.464844,-0.5 z m -13.464844,4 0,2 16,0 0,-2 -16,0 z m 0,3 0,4.9883 16,0 0,-4.9883 -16,0 z m -2.978516,6 0,1 1.978516,0 0,-1 -1.978516,0 z m 19.978516,0 0,1 2.015625,0 0,-1 -2.015625,0 z" color="#000" font-family="sans-serif" font-weight="400" overflow="visible" transform="translate(-18 -1030.992)" white-space="normal" style="line-height:normal;text-indent:0;text-align:start;text-decoration-line:none;text-decoration-style:solid;text-decoration-color:#000;text-transform:none;block-progression:tb;isolation:auto;mix-blend-mode:normal"/></svg>