<svg xmlns="http://www.w3.org/2000/svg" width="32" height="32" viewBox="0 0 32 32"><path d="m 19.000921,1031.992 0,0.5 c 0,0.2857 0.214351,0.5 0.5,0.5 l 1,0 26.035156,0 0.964844,0 c 0.285648,0 0.5,-0.2143 0.5,-0.5 l 0,-0.5 -29,0 z m 2,2 0,1 25,0 0,-1 -25,0 z m 1,2 0,22 11,0 0,-22 -11,0 z m 12,0 0,22 11,0 0,-22 -11,0 z m -9.587891,1 6.175782,0 c 0.212008,-7e-4 0.401416,0.1324 0.472656,0.332 0.100858,0.2843 0.323147,0.5085 0.607422,0.6094 0.19901,0.071 0.331918,0.2594 0.332031,0.4707 l 0,9.1758 c -1.17e-4,0.2113 -0.133024,0.3997 -0.332031,0.4707 -0.284281,0.1009 -0.506563,0.3251 -0.607422,0.6094 -0.07124,0.1996 -0.260648,0.3327 -0.472656,0.332 l -6.175782,0 c -0.211292,-10e-5 -0.399713,-0.133 -0.470703,-0.332 -0.100859,-0.2843 -0.323141,-0.5085 -0.607422,-0.6094 -0.199777,-0.07 -0.333573,-0.2589 -0.333984,-0.4707 l 0,-9.1758 c 4.07e-4,-0.2118 0.134204,-0.4007 0.333984,-0.4707 0.284275,-0.1009 0.506563,-0.3251 0.607422,-0.6094 0.07099,-0.199 0.259411,-0.3319 0.470703,-0.332 z m 12,0 6.175782,0 c 0.212008,-7e-4 0.401416,0.1324 0.472656,0.332 0.100861,0.2843 0.323164,0.5086 0.607422,0.6094 0.19901,0.071 0.331918,0.2594 0.332031,0.4707 l 0,9.1758 c -1.17e-4,0.2113 -0.133024,0.3997 -0.332031,0.4707 -0.284323,0.1009 -0.506556,0.325 -0.607422,0.6094 -0.07123,0.1996 -0.260648,0.3327 -0.472656,0.332 l -6.175782,0 c -0.211292,-10e-5 -0.399713,-0.133 -0.470703,-0.332 -0.100866,-0.2844 -0.323099,-0.5085 -0.607422,-0.6094 -0.199777,-0.07 -0.333573,-0.2589 -0.333984,-0.4707 l 0,-9.1758 c 4.07e-4,-0.2118 0.134204,-0.4007 0.333984,-0.4707 0.284257,-0.1008 0.506561,-0.3251 0.607422,-0.6094 0.071,-0.199 0.259411,-0.3319 0.470703,-0.332 z m -11.859375,1 c -0.148074,0.2235 -0.329243,0.4027 -0.552734,0.5508 l 0,8.8984 c 0.223491,0.1481 0.404659,0.3273 0.552734,0.5508 l 5.896485,0 c 0.147551,-0.2227 0.328305,-0.401 0.550781,-0.5488 l 0,-8.9024 c -0.222476,-0.1478 -0.403231,-0.3261 -0.550781,-0.5488 l -5.896485,0 z m 12,0 c -0.148074,0.2235 -0.329241,0.4027 -0.552734,0.5508 l 0,8.8984 c 0.223492,0.1481 0.404649,0.3273 0.552734,0.5508 l 5.896485,0 c 0.147561,-0.2227 0.328305,-0.401 0.550781,-0.5488 l 0,-8.9024 c -0.222477,-0.1478 -0.403232,-0.3261 -0.550781,-0.5488 l -5.896485,0 z m -7.109375,12 c 0.01691,-9e-4 0.03386,-9e-4 0.05078,0 l 2,0 c 0.676161,-0.01 0.676161,1.01 0,1 l -2,0 c -0.666665,0.034 -0.717448,-0.966 -0.05078,-1 z m 6.013672,0 c 0.01691,-9e-4 0.03386,-9e-4 0.05078,0 l 2,0 c 0.676162,-0.01 0.676162,1.01 0,1 l -2,0 c -0.666665,0.034 -0.717447,-0.966 -0.05078,-1 z m -11.044922,2 6.175782,0 c 0.212008,-7e-4 0.401416,0.1324 0.472656,0.332 0.100861,0.2843 0.323164,0.5086 0.607422,0.6094 0.19901,0.071 0.331918,0.2594 0.332031,0.4707 l 0,2.1758 c -1.17e-4,0.2113 -0.133024,0.3997 -0.332031,0.4707 -0.284258,0.1008 -0.506561,0.3251 -0.607422,0.6094 -0.07124,0.1996 -0.260648,0.3327 -0.472656,0.332 l -6.175782,0 c -0.211292,-10e-5 -0.399713,-0.133 -0.470703,-0.332 -0.10086,-0.2843 -0.323164,-0.5086 -0.607422,-0.6094 -0.199777,-0.07 -0.333573,-0.2589 -0.333984,-0.4707 l 0,-2.1758 c 4.07e-4,-0.2118 0.134204,-0.4007 0.333984,-0.4707 0.284258,-0.1008 0.506562,-0.3251 0.607422,-0.6094 0.07099,-0.199 0.259411,-0.3319 0.470703,-0.332 z m 12,0 6.175782,0 c 0.212008,-7e-4 0.401416,0.1324 0.472656,0.332 0.100861,0.2843 0.323164,0.5086 0.607422,0.6094 0.19901,0.071 0.331918,0.2594 0.332031,0.4707 l 0,2.1758 c -1.17e-4,0.2113 -0.133024,0.3997 -0.332031,0.4707 -0.284258,0.1008 -0.506561,0.3251 -0.607422,0.6094 -0.07123,0.1996 -0.260648,0.3327 -0.472656,0.332 l -6.175782,0 c -0.211292,-10e-5 -0.399713,-0.133 -0.470703,-0.332 -0.10086,-0.2843 -0.323164,-0.5086 -0.607422,-0.6094 -0.199777,-0.07 -0.333573,-0.2589 -0.333984,-0.4707 l 0,-2.1758 c 4.07e-4,-0.2118 0.134204,-0.4007 0.333984,-0.4707 0.284258,-0.1008 0.506562,-0.3251 0.607422,-0.6094 0.071,-0.199 0.259411,-0.3319 0.470703,-0.332 z m -11.859375,1 c -0.148074,0.2235 -0.329241,0.4027 -0.552734,0.5508 l 0,1.8984 c 0.223493,0.1481 0.40466,0.3273 0.552734,0.5508 l 5.896485,0 c 0.147549,-0.2227 0.328304,-0.401 0.550781,-0.5488 l 0,-1.9024 c -0.222477,-0.1478 -0.403232,-0.3261 -0.550781,-0.5488 l -5.896485,0 z m 12,0 c -0.148074,0.2235 -0.329241,0.4027 -0.552734,0.5508 l 0,1.8984 c 0.223493,0.1481 0.40466,0.3273 0.552734,0.5508 l 5.896485,0 c 0.147549,-0.2227 0.328304,-0.401 0.550781,-0.5488 l 0,-1.9024 c -0.222477,-0.1478 -0.403232,-0.3261 -0.550781,-0.5488 l -5.896485,0 z m -15.552734,6 0,1 25,0 0,-1 -25,0 z m -1.5,2 c -0.285649,0 -0.5,0.2144 -0.5,0.5 l 0,0.5 29,0 0,-0.5 c 0,-0.2856 -0.214352,-0.5 -0.5,-0.5 l -28,0 z" color="#000" font-family="sans-serif" font-weight="400" overflow="visible" transform="translate(-18 -1030.992)" white-space="normal" style="line-height:normal;text-indent:0;text-align:start;text-decoration-line:none;text-decoration-style:solid;text-decoration-color:#000;text-transform:none;block-progression:tb;isolation:auto;mix-blend-mode:normal"/></svg>