<svg xmlns="http://www.w3.org/2000/svg" xmlns:xlink="http://www.w3.org/1999/xlink" width="48" height="48" viewBox="0 0 48 48"><defs><linearGradient id="b" x1="992.183" x2="1019.298" y1="516.081" y2="545.959" gradientTransform="matrix(1.53785 0 0 1.53785 -1514.704 215.475)" gradientUnits="userSpaceOnUse" xlink:href="#a"/><linearGradient id="a"><stop offset="0" stop-color="#ff1679"/><stop offset="1" stop-color="#ff770b"/></linearGradient></defs><g transform="translate(-8 -1008.495)"><rect width="48" height="48" x="8.001" y="1008.495" fill="url(#b)" rx="10.144" ry="10.144"/><path fill="#fff" style="line-height:normal;text-indent:0;text-align:start;text-decoration-line:none;text-decoration-style:solid;text-decoration-color:#000;text-transform:none;block-progression:tb;isolation:auto;mix-blend-mode:normal" d="m 38.00092,1018.8079 0.5,0 c 0.83965,0 1.5,0.6604 1.5,1.5 l 0,2 0,15.1231 c -0.42665,-0.3386 -0.91547,-0.6231 -1.5,-0.6231 l -0.5,0 z m -20.5,4 2,0 17.5,0 0,15 1.5,0 c 0.83965,0 1.5,0.6604 1.5,1.5 0,0.8397 -0.66035,1.5 -1.5,1.5 l -2,0 -18.73242,0 -0.26758,0 c -0.56449,0 -1.08061,0.1958 -1.5,0.5137 l 0,-17.0137 c 0,-0.8396 0.66036,-1.5 1.5,-1.5 z m 25.5,1 4,0 0,17 -4,0 0,-1 2,0 0,-1 -2,0 0,-1 1,0 0,-1 -1,0 0,-1 2,0 0,-1 -2,0 0,-1 1,0 0,-1 -1,0 0,-1 2,0 0,-1 -2,0 0,-1 1,0 0,-1 -1,0 0,-1 2,0 0,-1 -2,0 0,-1 1,0 0,-1 -1,0 z m -23.5,1 c -0.27613,10e-5 -0.49997,0.2239 -0.5,0.5 l 0,13 c 3e-5,0.2762 0.22387,0.5 0.5,0.5 l 15,0 c 0.27613,0 0.49997,-0.2238 0.5,-0.5 l 0,-13 c -3e-5,-0.2761 -0.22387,-0.4999 -0.5,-0.5 l -10.5,0 0,1 2,0 0,3 1,0 0,-3 7,0 0,6 -3,0 0,-4 -1,0 0,4 -2,0 0,1 6,0 0,5 -1,0 0,-3.5 c -3e-5,-0.2761 -0.22387,-0.4999 -0.5,-0.5 l -4,0 c -0.27613,10e-5 -0.49997,0.2239 -0.5,0.5 l 0,3.5 -1,0 0,-6.9511 -1,0 0,6.9511 -6,0 0,-4 4,0 0,-1 -4,0 0,-7 2,0 0,-1 z m 9.5,10 3,0 0,3 -3,0 z m -11.5,7 0.26758,0 0.23242,0 0,3 -0.5,0 c -0.83964,0 -1.5,-0.6603 -1.5,-1.5 0,-0.8396 0.66036,-1.5 1.5,-1.5 z m 18.829265,1.6945 c 0.41678,-10e-4 0.71965,0.2938 0.7207,0.6192 l 0.002,0.748 c 10e-4,0.3301 -0.28649,0.6231 -0.71484,0.625 l -0.51758,0 -0.01,-1.9922 z m -1.28379,-0.044 0.002,0.6099 -7.99902,-0.02 -0.002,-0.5767 z m -8.99675,0 0.002,0.9844 0.002,1.0156 -1.30469,-0.9843 z m 1.0036,1.3902 8.00097,0.02 0.002,0.5755 0,0.029 -8.00097,-2e-4 z" color="#000" font-family="sans-serif" font-weight="400" overflow="visible" white-space="normal"/></g></svg>