<svg xmlns="http://www.w3.org/2000/svg" xmlns:xlink="http://www.w3.org/1999/xlink" width="48" height="48" viewBox="0 0 48 48"><defs><linearGradient id="b" x1="1073.403" x2="1097.116" y1="516.451" y2="544.308" gradientTransform="matrix(1.53785 0 0 1.53785 -1625.87 221.972)" gradientUnits="userSpaceOnUse" xlink:href="#a"/><linearGradient id="a"><stop offset="0" stop-color="#16ff6a"/><stop offset="1" stop-color="#0090a5"/></linearGradient></defs><g transform="translate(-18 -1014.992)"><rect width="48" height="48" x="18.001" y="1014.992" fill="url(#b)" rx="10.144" ry="10.144"/><path fill="#fff" d="m 27.000921,1027.992 0,2 30,0 0,-2 -30,0 z m 2,3 0,7 8,0 0,0 0,-6.998 -8,0 z m 9,0 0,6.998 0,0 8,0 0,-7 -8,0 z m 9,0 0,7 8,0 0,-7 -8,0 z m -15.980469,2.002 4,0 0,1 -4,0 0,-1 z m 9,0 4,0 0,1 -4,0 0,-1 z m 9,0 4,0 0,1 -4,0 0,-1 z m -20.019531,5.998 0,16 2,0 0,-16 -2,0 z m 24,0 0,16 2,0 0,-16 -2,0 z"/></g></svg>