<svg xmlns="http://www.w3.org/2000/svg" xmlns:xlink="http://www.w3.org/1999/xlink" width="48" height="48" viewBox="0 0 48 48"><defs><linearGradient id="b" x1="1056.035" x2="1031.176" y1="544.13" y2="517.701" gradientTransform="matrix(1.53785 0 0 1.53785 -1563.736 221.972)" gradientUnits="userSpaceOnUse" xlink:href="#a"/><linearGradient id="a"><stop offset="0" stop-color="#5a5a5a"/><stop offset="1" stop-color="#656e85"/></linearGradient></defs><g transform="translate(-18 -1014.992)"><rect width="48" height="48" x="18.001" y="1014.992" fill="url(#b)" rx="10.144" ry="10.144"/><path fill="#fff" d="m 27.000921,1029.992 0,2 31,0 0,-2 -31,0 z m 2,3 0,12.9004 c 0,1.108 0.891991,2 2,2 l 1,0 0,2 0.5,0 1,0 0.5,0 0,-2 8,0 0,-14.9004 -13,0 z m 14,0 0,14.9004 8,0 0,2 0.5,0 1,0 0.5,0 0,-2 1,0 c 1.108009,0 2,-0.892 2,-2 l 0,-12.9004 -13,0 z m -3.5,3.4004 1,0 0,8 -1,0 0,-1.0137 -0.103516,0 c -1.041392,0 -1.896484,-0.8532 -1.896484,-1.8945 l 0,-2.1836 c 0,-1.0413 0.855092,-1.8965 1.896484,-1.8965 l 0.103516,0 0,-1.0117 z m 5,0 1,0 0,1.0117 0.105469,0 c 1.041393,0 1.894531,0.8552 1.894531,1.8965 l 0,2.1836 c 0,1.0413 -0.853138,1.8945 -1.894531,1.8945 l -0.105469,0 0,1.0137 -1,0 0,-1.0137 0,-1 0,-3.9746 0,-1 0,-1.0117 z m -5.103516,2.0117 c -0.505007,0 -0.896484,0.3922 -0.896484,0.8965 l 0,2.1836 c 0,0.5043 0.391477,0.8945 0.896484,0.8945 l 0.103516,0 0,-3.9746 -0.103516,0 z m 6.103516,0 0,3.9746 0.105469,0 c 0.505007,0 0.894531,-0.3902 0.894531,-0.8945 l 0,-2.1836 c 0,-0.5043 -0.389524,-0.8965 -0.894531,-0.8965 l -0.105469,0 z"/></g></svg>