<svg xmlns="http://www.w3.org/2000/svg" xmlns:xlink="http://www.w3.org/1999/xlink" width="48" height="48" viewBox="0 0 48 48"><defs><linearGradient id="b" x1="949.87" x2="974.39" y1="518.014" y2="544.657" gradientTransform="matrix(1.53785 0 0 1.53785 -1436.352 221.972)" gradientUnits="userSpaceOnUse" xlink:href="#a"/><linearGradient id="a"><stop offset="0" stop-color="#24f7bc"/><stop offset="1" stop-color="#24c4fc"/></linearGradient></defs><g transform="translate(-18 -1014.992)"><rect width="48" height="48" x="18.001" y="1014.992" fill="url(#b)" rx="10.144" ry="10.144"/><path fill="#fff" d="m 26.000921,1023.994 0,1.998 1.019531,0 0,30 0.980469,0 0,-2.498 12,0 0,2.498 0.982422,0 0,-30 12.017578,0 0,0 1,0 0,29.998 2,0 0,-29.998 1,0 0,-2 -31,0 z m 2,1.998 12,0 0,1 -12,0 0,-1 z m 3.001953,4 1,0 0,0.5762 c 0,0.2222 0.193782,0.4238 0.5,0.4238 l 3.001953,0 c 0.306219,0 0.501953,-0.2016 0.501953,-0.4238 l 0,-0.5762 1,0 0,0.5762 c 0,0.8028 -0.699434,1.4238 -1.501953,1.4238 l -3.001953,0 c -0.802518,0 -1.5,-0.621 -1.5,-1.4238 l 0,-0.5762 z m -3.001953,5 12,0 0,1 -12,0 0,-1 z m 3.001953,4 1,0 0,0.5762 c 0,0.2222 0.193782,0.4238 0.5,0.4238 l 3.001953,0 c 0.306219,0 0.501953,-0.2016 0.501953,-0.4238 l 0,-0.5762 1,0 0,0.5762 c 0,0.8028 -0.699434,1.4238 -1.501953,1.4238 l -3.001953,0 c -0.802518,0 -1.5,-0.621 -1.5,-1.4238 l 0,-0.5762 z m -3.001953,5 12,0 0,1 -12,0 0,-1 z m 3.001953,4 1,0 0,0.5762 c 0,0.2222 0.193782,0.4238 0.5,0.4238 l 3.001953,0 c 0.306219,0 0.501953,-0.2016 0.501953,-0.4238 l 0,-0.5762 1,0 0,0.5762 c 0,0.8028 -0.699434,1.4238 -1.501953,1.4238 l -3.001953,0 c -0.802518,0 -1.5,-0.621 -1.5,-1.4238 l 0,-0.5762 z"/></g></svg>