<svg xmlns="http://www.w3.org/2000/svg" xmlns:xlink="http://www.w3.org/1999/xlink" width="48" height="48" viewBox="0 0 48 48"><defs><linearGradient id="b" x1="906.952" x2="931.379" y1="515.915" y2="546.094" gradientTransform="matrix(1.53785 0 0 1.53785 -1370.718 221.972)" gradientUnits="userSpaceOnUse" xlink:href="#a"/><linearGradient id="a"><stop offset="0" stop-color="#ffd800"/><stop offset="1" stop-color="#ff6100"/></linearGradient></defs><g transform="translate(-18 -1014.992)"><rect width="48" height="48" x="18.001" y="1014.992" fill="url(#b)" rx="10.144" ry="10.144"/><path fill="#fff" d="m 26.000921,1028.992 0,1 32,0 0,-1 -32,0 z m 1.5,2 0,7.5 0,14 2,0 0,-8.5 25,0 0,8.5 2,0 0,-14 0,-7.5 -12.5,0 0,7.5 10.5,0 0,4.5 -25,0 0,-4.5 11.5,0 0,-7.5 -13.5,0 z m 14.5,0 0,7.5 1,0 0,-7.5 -1,0 z m -10.001953,2 1,0 0,0.5742 c 0,0.2222 0.193794,0.4258 0.5,0.4258 l 2.001953,0 c 0.30622,0 0.501953,-0.2036 0.501953,-0.4258 l 0,-0.5742 1,0 0,0.5742 c 0,0.8028 -0.699433,1.4258 -1.501953,1.4258 l -2.001953,0 c -0.802514,0 -1.5,-0.623 -1.5,-1.4258 l 0,-0.5742 z m 15,0 1,0 0,0.5742 c 0,0.2222 0.193794,0.4258 0.5,0.4258 l 2.001953,0 c 0.30622,0 0.5,-0.2036 0.5,-0.4258 l 0,-0.5742 1,0 0,0.5742 c 0,0.8028 -0.69748,1.4258 -1.5,1.4258 l -2.001953,0 c -0.802514,0 -1.5,-0.623 -1.5,-1.4258 l 0,-0.5742 z"/></g></svg>