<svg xmlns="http://www.w3.org/2000/svg" xmlns:xlink="http://www.w3.org/1999/xlink" width="48" height="48" viewBox="0 0 48 48"><defs><linearGradient id="b" x1="906.952" x2="931.379" y1="515.915" y2="546.094" gradientTransform="matrix(1.53785 0 0 1.53785 -1370.718 221.972)" gradientUnits="userSpaceOnUse" xlink:href="#a"/><linearGradient id="a"><stop offset="0" stop-color="#ffd800"/><stop offset="1" stop-color="#ff6100"/></linearGradient></defs><g transform="translate(-18 -1014.992)"><rect width="48" height="48" x="18.001" y="1014.992" fill="url(#b)" rx="10.144" ry="10.144"/><path fill="#fff" d="m 35.000921,1024.992 0,2 -3,0 0,7 3,0 0,6 -3,0 0,2 2,0 0,12 2,0 0,-7.5 12,0 0,7.5 2,0 0,-12 2,0 0,-2 -3,0 0,-6 3,0 0,-7 -3,0 0,-2 -2,0 0,2 -10,0 0,-2 -2,0 z m 2,9 10,0 0,6 -10,0 0,-6 z m -1,8 12,0 0,3.5 -12,0 0,-3.5 z"/></g></svg>