<svg xmlns="http://www.w3.org/2000/svg" xmlns:xlink="http://www.w3.org/1999/xlink" width="48" height="48" viewBox="0 0 48 48"><defs><linearGradient id="b" x1="868.253" x2="937.656" y1="521.354" y2="588.736" gradientTransform="matrix(1.53785 0 0 1.53785 -1308.967 221.972)" gradientUnits="userSpaceOnUse" xlink:href="#a"/><linearGradient id="a"><stop offset="0" stop-color="#24f3d2"/><stop offset=".394" stop-color="#0674f0"/><stop offset=".507" stop-color="#6961b5"/><stop offset=".813" stop-color="#f34660"/><stop offset="1" stop-color="#ee078d"/></linearGradient></defs><g transform="translate(-18 -1014.992)"><rect width="48" height="48" x="18.001" y="1014.992" fill="url(#b)" rx="10.144" ry="10.144"/><path fill="#fff" fill-rule="evenodd" style="line-height:normal;text-indent:0;text-align:start;text-decoration-line:none;text-decoration-style:solid;text-decoration-color:#000;text-transform:none;block-progression:tb;isolation:auto;mix-blend-mode:normal" d="m 26.000921,1022.992 0,1 1,0 0,28.5 0,1 0,1.5 1,0 0,-1.5 28,0 0,1.5 1,0 0,-1.5 0,-1 0,-28.5 1,0 0,-1 -32,0 z m 2,1 28,0 0,28.5 -0.984375,0 0,-27.5 -26.015625,0 0,27.5 -1,0 0,-28.5 z m 3,3 22,0 0,11 -22,0 0,-10.5 0,-0.5 z m 1,1 0,9 20,0 0,-9 -20,0 z m 5,3 10,0 0,1 -1.011719,0 0,0.1035 c 0,1.0414 -0.853249,1.8965 -1.894531,1.8965 l -4.185547,0 c -1.041282,0 -1.894531,-0.8551 -1.894531,-1.8965 l 0,-0.1035 -1.013672,0 0,-1 z m 2.013672,1 0,0.1035 c 0,0.505 0.390281,0.8965 0.894531,0.8965 l 4.185547,0 c 0.504251,0 0.894531,-0.3915 0.894531,-0.8965 l 0,-0.1035 -5.974609,0 z m -8.013672,8 22,0 0,11 -22,0 0,-10.5 0,-0.5 z m 1,1 0,9 20,0 0,-9 -20,0 z m 5,3 10,0 0,1 -1.011719,0 0,0.1035 c 0,1.0414 -0.853249,1.8965 -1.894531,1.8965 l -4.185547,0 c -1.041282,0 -1.894531,-0.8551 -1.894531,-1.8965 l 0,-0.1035 -1.013672,0 0,-1 z m 2.013672,1 0,0.1035 c 0,0.505 0.390281,0.8965 0.894531,0.8965 l 4.185547,0 c 0.504251,0 0.894531,-0.3915 0.894531,-0.8965 l 0,-0.1035 -5.974609,0 z" color="#000" font-family="sans-serif" font-weight="400" overflow="visible" white-space="normal"/></g></svg>