<svg xmlns="http://www.w3.org/2000/svg" xmlns:xlink="http://www.w3.org/1999/xlink" width="48" height="48" viewBox="0 0 48 48"><defs><linearGradient id="b" x1="992.183" x2="1019.298" y1="516.081" y2="545.959" gradientTransform="matrix(1.53785 0 0 1.53785 -1504.704 221.972)" gradientUnits="userSpaceOnUse" xlink:href="#a"/><linearGradient id="a"><stop offset="0" stop-color="#ff1679"/><stop offset="1" stop-color="#ff770b"/></linearGradient></defs><g transform="translate(-18 -1014.992)"><rect width="48" height="48" x="18.001" y="1014.992" fill="url(#b)" rx="10.144" ry="10.144"/><path fill="#fff" d="m 31.000921,1026.992 0,2 -4,0 0,4.5 31,0 0,-4.5 -4,0 0,-2 -2,0 0,2 -19,0 0,-2 -2,0 z m -4,7.5 0,4.5 4,0 0,4 -4,0 0,4 3,0 0,4 3,0 0,-4 19,0 0,4 3,0 0,-4 3,0 0,-4 -4,0 0,-4 4,0 0,-4.5 -31,0 z m 6,4.5 19,0 0,4 -19,0 0,-4 z"/></g></svg>