<svg xmlns="http://www.w3.org/2000/svg" xmlns:xlink="http://www.w3.org/1999/xlink" width="48" height="48" viewBox="0 0 48 48"><defs><linearGradient id="b" x1="1073.403" x2="1097.116" y1="516.451" y2="544.308" gradientTransform="matrix(1.53785 0 0 1.53785 -1625.87 221.972)" gradientUnits="userSpaceOnUse" xlink:href="#a"/><linearGradient id="a"><stop offset="0" stop-color="#16ff6a"/><stop offset="1" stop-color="#0090a5"/></linearGradient></defs><g transform="translate(-18 -1014.992)"><rect width="48" height="48" x="18.001" y="1014.992" fill="url(#b)" rx="10.144" ry="10.144"/><path fill="#fff" style="line-height:normal;text-indent:0;text-align:start;text-decoration-line:none;text-decoration-style:solid;text-decoration-color:#000;text-transform:none;block-progression:tb;isolation:auto;mix-blend-mode:normal" d="m 35.436489,1023.992 c -1.91112,0 -3.4375,1.5342 -3.4375,3.4648 l 0,8.875 c 1.18597,0.5651 2.00002,1.7749 2,3.1602 l 0,0.031 0,3.4687 16,0 0,-3.4668 0,-0.033 c -2e-5,-1.3846 0.81438,-2.5948 2,-3.1602 l 0,-8.875 c 0,-1.9305 -1.52639,-3.4648 -3.4375,-3.4648 l -13.125,0 z m 1.027344,4 c 0.0118,-4e-4 0.02346,-4e-4 0.03516,0 0.27614,0 0.5,0.2239 0.5,0.5 0,0.2761 -0.22386,0.5 -0.5,0.5 -0.276144,0 -0.500004,-0.2239 -0.500004,-0.5 -6.5e-4,-0.263 0.202514,-0.481 0.464844,-0.5 z m 5.5,0 c 0.0118,-4e-4 0.02346,-4e-4 0.03516,0 0.27614,0 0.5,0.2239 0.5,0.5 0,0.2761 -0.22386,0.5 -0.5,0.5 -0.27614,0 -0.5,-0.2239 -0.5,-0.5 -6.5e-4,-0.263 0.202514,-0.481 0.464844,-0.5 z m 5.5,0 c 0.0118,-4e-4 0.02346,-4e-4 0.03516,0 0.27614,0 0.5,0.2239 0.5,0.5 0,0.2761 -0.22386,0.5 -0.5,0.5 -0.27614,0 -0.5,-0.2239 -0.5,-0.5 -6.5e-4,-0.263 0.202514,-0.481 0.464844,-0.5 z m -8.5,2 c 0.0118,-4e-4 0.02346,-4e-4 0.03516,0 0.27614,0 0.5,0.2239 0.5,0.5 0,0.2761 -0.22386,0.5 -0.5,0.5 -0.27614,0 -0.5,-0.2239 -0.5,-0.5 -6.5e-4,-0.263 0.202514,-0.481 0.464844,-0.5 z m 6,0 c 0.0118,-4e-4 0.02346,-4e-4 0.03516,0 0.27614,0 0.5,0.2239 0.5,0.5 0,0.2761 -0.22386,0.5 -0.5,0.5 -0.27614,0 -0.5,-0.2239 -0.5,-0.5 -6.5e-4,-0.263 0.202514,-0.481 0.464844,-0.5 z m -8.5,2 c 0.0118,-4e-4 0.02346,-4e-4 0.03516,0 0.27614,0 0.5,0.2239 0.5,0.5 0,0.2761 -0.22386,0.5 -0.5,0.5 -0.276144,0 -0.500004,-0.2239 -0.500004,-0.5 -6.5e-4,-0.263 0.202514,-0.481 0.464844,-0.5 z m 5.5,0 c 0.0118,-4e-4 0.02346,-4e-4 0.03516,0 0.27614,0 0.5,0.2239 0.5,0.5 0,0.2761 -0.22386,0.5 -0.5,0.5 -0.27614,0 -0.5,-0.2239 -0.5,-0.5 -6.5e-4,-0.263 0.202514,-0.481 0.464844,-0.5 z m 5.5,0 c 0.0118,-4e-4 0.02346,-4e-4 0.03516,0 0.27614,0 0.5,0.2239 0.5,0.5 0,0.2761 -0.22386,0.5 -0.5,0.5 -0.27614,0 -0.5,-0.2239 -0.5,-0.5 -6.5e-4,-0.263 0.202514,-0.481 0.464844,-0.5 z m -8.5,2 c 0.0118,-4e-4 0.02346,-4e-4 0.03516,0 0.27614,0 0.5,0.2239 0.5,0.5 0,0.2761 -0.22386,0.5 -0.5,0.5 -0.27614,0 -0.5,-0.2239 -0.5,-0.5 -6.5e-4,-0.263 0.202514,-0.481 0.464844,-0.5 z m 6,0 c 0.0118,-4e-4 0.02346,-4e-4 0.03516,0 0.27614,0 0.5,0.2239 0.5,0.5 0,0.2761 -0.22386,0.5 -0.5,0.5 -0.27614,0 -0.5,-0.2239 -0.5,-0.5 -6.5e-4,-0.263 0.202514,-0.481 0.464844,-0.5 z m -8.5,2 c 0.0118,-4e-4 0.02346,-4e-4 0.03516,0 0.27614,0 0.5,0.2239 0.5,0.5 0,0.2761 -0.22386,0.5 -0.5,0.5 -0.27614,0 -0.5,-0.2239 -0.5,-0.5 -6.5e-4,-0.263 0.202514,-0.481 0.464844,-0.5 z m 5.5,0 c 0.0118,-4e-4 0.02346,-4e-4 0.03516,0 0.27614,0 0.5,0.2239 0.5,0.5 0,0.2761 -0.22386,0.5 -0.5,0.5 -0.27614,0 -0.5,-0.2239 -0.5,-0.5 -6.5e-4,-0.263 0.202514,-0.481 0.464844,-0.5 z m 5.5,0 c 0.0118,-4e-4 0.02346,-4e-4 0.03516,0 0.27614,0 0.5,0.2239 0.5,0.5 0,0.2761 -0.22386,0.5 -0.5,0.5 -0.27614,0 -0.5,-0.2239 -0.5,-0.5 -6.5e-4,-0.263 0.202514,-0.481 0.464844,-0.5 z m -16.798828,1.0059 c -1.31759,-0.086 -2.466283,0.8549 -2.640625,2.164 -0.17443,1.3097 0.689045,2.5206 1.984375,2.7813 l -0.0098,0.041 0.0039,0 0,9.1836 c 0,0.4604 0.350051,0.8125 0.800781,0.8125 l 2.195312,0 0,-12.457 0,-0.031 c 2e-5,-1.3206 -1.014573,-2.4062 -2.332031,-2.4941 l -0.002,0 z m 22.669921,0 0.002,0 c -1.317806,0.087 -2.335004,1.1718 -2.335984,2.4921 l 0,0.031 0,12.457 2.195312,0 c 0.450731,0 0.802735,-0.3521 0.802735,-0.8125 l 0,-9.1836 0.0039,0 -0.0098,-0.041 c 1.29534,-0.2607 2.158805,-1.4715 1.984374,-2.7813 -0.17444,-1.3097 -1.324168,-2.251 -2.642578,-2.164 z m -14.371093,0.9941 c 0.0118,-4e-4 0.02346,-4e-4 0.03516,0 0.27614,0 0.5,0.2239 0.5,0.5 0,0.2761 -0.22386,0.5 -0.5,0.5 -0.27614,0 -0.5,-0.2239 -0.5,-0.5 -6.5e-4,-0.263 0.202514,-0.481 0.464844,-0.5 z m 6,0 c 0.0118,-4e-4 0.02346,-4e-4 0.03516,0 0.27614,0 0.5,0.2239 0.5,0.5 0,0.2761 -0.22386,0.5 -0.5,0.5 -0.27614,0 -0.5,-0.2239 -0.5,-0.5 -6.5e-4,-0.263 0.202514,-0.481 0.464844,-0.5 z m -8.5,2 c 0.0118,-4e-4 0.02346,-4e-4 0.03516,0 0.27614,0 0.5,0.2239 0.5,0.5 0,0.2761 -0.22386,0.5 -0.5,0.5 -0.27614,0 -0.5,-0.2239 -0.5,-0.5 -6.5e-4,-0.263 0.202514,-0.481 0.464844,-0.5 z m 5.5,0 c 0.0118,-4e-4 0.02346,-4e-4 0.03516,0 0.27614,0 0.5,0.2239 0.5,0.5 0,0.2761 -0.22386,0.5 -0.5,0.5 -0.27614,0 -0.5,-0.2239 -0.5,-0.5 -6.5e-4,-0.263 0.202514,-0.481 0.464844,-0.5 z m 5.5,0 c 0.0118,-4e-4 0.02346,-4e-4 0.03516,0 0.27614,0 0.5,0.2239 0.5,0.5 0,0.2761 -0.22386,0.5 -0.5,0.5 -0.27614,0 -0.5,-0.2239 -0.5,-0.5 -6.5e-4,-0.263 0.202514,-0.481 0.464844,-0.5 z m -13.464844,4 0,2 16,0 0,-2 -16,0 z m 0,3 0,4.9883 16,0 0,-4.9883 -16,0 z m -2.978516,6 0,1 1.978516,0 0,-1 -1.978516,0 z m 19.978516,0 0,1 2.015625,0 0,-1 -2.015625,0 z" color="#000" font-family="sans-serif" font-weight="400" overflow="visible" white-space="normal"/></g></svg>