<svg xmlns="http://www.w3.org/2000/svg" xmlns:xlink="http://www.w3.org/1999/xlink" width="48" height="48" viewBox="0 0 48 48"><defs><linearGradient id="b" x1="906.952" x2="931.379" y1="515.915" y2="546.094" gradientTransform="matrix(1.53785 0 0 1.53785 -1380.718 215.475)" gradientUnits="userSpaceOnUse" xlink:href="#a"/><linearGradient id="a"><stop offset="0" stop-color="#ffd800"/><stop offset="1" stop-color="#ff6100"/></linearGradient></defs><g transform="translate(-8 -1008.495)"><rect width="48" height="48" x="8.001" y="1008.495" fill="url(#b)" rx="10.144" ry="10.144"/><path fill="#fff" style="line-height:normal;text-indent:0;text-align:start;text-decoration-line:none;text-decoration-style:solid;text-decoration-color:#000;text-transform:none;block-progression:tb;isolation:auto;mix-blend-mode:normal" d="m 21.000945,1022.4946 4,0 c 1.11666,0 2,0.8834 2,2 l 0,5.4551 0,2.5449 -5.99023,0 c 0,0 -0.01,-0.1685 -0.01,-1.0019 0.27537,0 0.49889,-0.2227 0.5,-0.4981 0.67616,0.01 0.67616,-1.0095 0,-1 -3e-5,-0.2761 -0.22387,-0.4999 -0.5,-0.5 l 0,-0.4433 c 0,-1.2267 -0.85736,-2.2669 -2,-2.5059 l 0,-2.0508 c 0,-1.1166 0.88334,-2 2,-2 z m 9,0 4,0 c 1.11666,0 2,0.8834 2,2 l 0,5.4551 0,2.5449 -8,0 0,-2.5117 c 3.7e-4,-0.011 3.7e-4,-0.022 0,-0.033 l 0,-5.4551 c 0,-1.1166 0.88334,-2 2,-2 z m 9,0 4,0 c 1.11666,0 2,0.8834 2,2 l 0,2.0508 c -1.14264,0.239 -2,1.2792 -2,2.5059 l 0,0.4433 -0.006,0 c -0.27384,0 -0.49413,0.2262 -0.49414,0.5 -0.6573,0.01 -0.6573,0.9907 0,1 10e-4,0.2754 0.22463,0.4981 0.5,0.4981 l 0,1.0019 -6,0 0,-2.5117 c 3.7e-4,-0.011 3.7e-4,-0.022 0,-0.033 l 0,-5.4551 c 0,-1.1166 0.88334,-2 2,-2 z m -18.00586,1 c -0.27384,0 -0.49413,0.2262 -0.49414,0.5 -0.6573,0.01 -0.6573,0.9907 0,1 0.009,0.6573 0.9907,0.6573 1,0 0.67616,0.01 0.67616,-1.0095 0,-1 -1e-5,-0.2784 -0.22744,-0.5032 -0.50586,-0.5 z m 4,0 c -0.27384,0 -0.49413,0.2262 -0.49414,0.5 -0.6573,0.01 -0.6573,0.9907 0,1 0.009,0.6573 0.9907,0.6573 1,0 0.67616,0.01 0.67616,-1.0095 0,-1 -1e-5,-0.2784 -0.22744,-0.5032 -0.50586,-0.5 z m 5,0 c -0.27384,0 -0.49413,0.2262 -0.49414,0.5 -0.6573,0.01 -0.6573,0.9907 0,1 0.009,0.6573 0.9907,0.6573 1,0 0.67616,0.01 0.67616,-1.0095 0,-1 -1e-5,-0.2784 -0.22744,-0.5032 -0.50586,-0.5 z m 4,0 c -0.27384,0 -0.49413,0.2262 -0.49414,0.5 -0.6573,0.01 -0.6573,0.9907 0,1 0.009,0.6573 0.9907,0.6573 1,0 0.67616,0.01 0.67616,-1.0095 0,-1 -1e-5,-0.2784 -0.22744,-0.5032 -0.50586,-0.5 z m 5,0 c -0.27384,0 -0.49413,0.2262 -0.49414,0.5 -0.6573,0.01 -0.6573,0.9907 0,1 0.009,0.6573 0.9907,0.6573 1,0 0.67616,0.01 0.67616,-1.0095 0,-1 -1e-5,-0.2784 -0.22744,-0.5032 -0.50586,-0.5 z m 4,0 c -0.27384,0 -0.49413,0.2262 -0.49414,0.5 -0.6573,0.01 -0.6573,0.9907 0,1 0.009,0.6573 0.9907,0.6573 1,0 0.67616,0.01 0.67616,-1.0095 0,-1 -1e-5,-0.2784 -0.22744,-0.5032 -0.50586,-0.5 z m -20,3 c -0.27384,0 -0.49413,0.2262 -0.49414,0.5 -0.6573,0.01 -0.6573,0.9907 0,1 0.009,0.6573 0.9907,0.6573 1,0 0.67616,0.01 0.67616,-1.0095 0,-1 -1e-5,-0.2784 -0.22744,-0.5032 -0.50586,-0.5 z m 9,0 c -0.27384,0 -0.49413,0.2262 -0.49414,0.5 -0.6573,0.01 -0.6573,0.9907 0,1 0.009,0.6573 0.9907,0.6573 1,0 0.67616,0.01 0.67616,-1.0095 0,-1 -1e-5,-0.2784 -0.22744,-0.5032 -0.50586,-0.5 z m 9,0 c -0.27384,0 -0.49413,0.2262 -0.49414,0.5 -0.6573,0.01 -0.6573,0.9907 0,1 0.009,0.6573 0.9907,0.6573 1,0 0.67616,0.01 0.67616,-1.0095 0,-1 -1e-5,-0.2784 -0.22744,-0.5032 -0.50586,-0.5 z m -22.49414,1 c 0.83201,0 1.5,0.6782 1.5,1.5567 l 0,11.4433 -1.79297,0 c -0.67483,0 -1.205079,-0.5305 -1.205079,-1.2128 l 0,-5.1758 -0.002,0 0,-5.0547 c 0,-0.8785 0.66798,-1.5566 1.499999,-1.5567 z m 27,0 c 0.83204,0 1.5,0.6782 1.5,1.5567 l 0,7.1992 0,3.0313 c 0,0.6823 -0.53024,1.2128 -1.20508,1.2128 l -1.79492,0 0,-9.9589 c 0.002,-0.025 0.002,-0.049 0,-0.074 l 0,-1.4102 c 0,-0.8784 0.66796,-1.5566 1.5,-1.5566 z m -20.50586,2 c -0.27384,0 -0.49413,0.2262 -0.49414,0.5 -0.6573,0.01 -0.6573,0.9907 0,1 0.009,0.6573 0.9907,0.6573 1,0 0.67616,0.01 0.67616,-1.0095 0,-1 -1e-5,-0.2784 -0.22744,-0.5032 -0.50586,-0.5 z m 5,0 c -0.27384,0 -0.49413,0.2262 -0.49414,0.5 -0.6573,0.01 -0.6573,0.9907 0,1 0.009,0.6573 0.9907,0.6573 1,0 0.67616,0.01 0.67616,-1.0095 0,-1 -1e-5,-0.2784 -0.22744,-0.5032 -0.50586,-0.5 z m 4,0 c -0.27384,0 -0.49413,0.2262 -0.49414,0.5 -0.6573,0.01 -0.6573,0.9907 0,1 0.009,0.6573 0.9907,0.6573 1,0 0.67616,0.01 0.67616,-1.0095 0,-1 -1e-5,-0.2784 -0.22744,-0.5032 -0.50586,-0.5 z m 5,0 c -0.27384,0 -0.49413,0.2262 -0.49414,0.5 -0.6573,0.01 -0.6573,0.9907 0,1 0.009,0.6573 0.9907,0.6573 1,0 0.67616,0.01 0.67616,-1.0095 0,-1 -1e-5,-0.2784 -0.22744,-0.5032 -0.50586,-0.5 z m -17.99414,4 22,0 0,2.0098 -22,0 z m 0,3.0098 22,0 0,3.9902 -22,0 z m -2,4.9902 1,0 0,1 -1,0 z m 25,0 1,0 0,1 -1,0 z" color="#000" font-family="sans-serif" font-weight="400" overflow="visible" white-space="normal"/></g></svg>