<svg xmlns="http://www.w3.org/2000/svg" xmlns:xlink="http://www.w3.org/1999/xlink" width="48" height="48" viewBox="0 0 48 48"><defs><linearGradient id="b" x1="949.87" x2="974.39" y1="518.014" y2="544.657" gradientTransform="matrix(1.53785 0 0 1.53785 -1436.352 221.972)" gradientUnits="userSpaceOnUse" xlink:href="#a"/><linearGradient id="a"><stop offset="0" stop-color="#24f7bc"/><stop offset="1" stop-color="#24c4fc"/></linearGradient></defs><g transform="translate(-18 -1014.992)"><rect width="48" height="48" x="18.001" y="1014.992" fill="url(#b)" rx="10.144" ry="10.144"/><path fill="#fff" d="m 49.332952,1026.2147 a 0.50005,0.50005 0 0 0 -0.351562,0.1601 l -2.298828,2.5 a 0.50036392,0.50036392 0 0 0 -0.107422,0.1797 l -1.339844,-1.3418 a 2.343215,2.343215 0 0 0 -0.605469,2.2637 2.343215,2.343215 0 0 0 1.65625,1.6582 2.343215,2.343215 0 0 0 2.263672,-0.6074 l -1.341797,-1.3399 a 0.50036392,0.50036392 0 0 0 0.210938,-0.1347 l 1.953125,-2.1231 4.36914,4.1992 -1.425781,0.8868 a 0.50005,0.50005 0 0 0 -0.234375,0.4257 l 0,2.7715 -0.03125,0 c -0.755268,0 -1.371518,0.5547 -1.478516,1.2793 l -24.570312,0 0,2 2,0 0,14 2,0 1,-14 21,0 1,14 2,0 0,-14 2,0 0,-2 -2.474609,0 c -0.105498,-0.7142 -0.70464,-1.2599 -1.445313,-1.2754 l 0,-2.4941 1.734375,-1.0801 a 0.50005,0.50005 0 0 0 0.08203,-0.7851 l -5.201172,-5 a 0.50005,0.50005 0 0 0 -0.36328,-0.1387 z"/></g></svg>