<svg xmlns="http://www.w3.org/2000/svg" width="48" height="48" viewBox="0 0 48 48"><path d="M 24 0 C 10.7511 0 1.7e-005 10.7511 0 24 C 0 37.2489 10.751088 48 24 48 C 37.248912 48 48 37.2489 48 24 C 47.999983 10.7511 37.2489 0 24 0 z M 24 1 C 36.70846 1 46.999984 11.2915 47 24 C 47 36.7085 36.708472 47 24 47 C 11.291528 47 1 36.7085 1 24 C 1.000016 11.2915 11.29154 1 24 1 z M 28.882812 10.998047 L 28.882812 11 C 27.571047 11 26.5 12.073919 26.5 13.386719 L 26.5 13.542969 A 2.9999845 3.0833178 0 0 0 25.5 13.912109 A 2.9999845 3.0833178 0 0 0 24 16.582031 L 27 16.582031 L 30 16.582031 A 2.9999845 3.0833178 0 0 0 28.5 13.912109 A 2.9999845 3.0833178 0 0 0 27.5 13.544922 L 27.5 13.386719 C 27.5 12.609519 28.108778 12 28.882812 12 L 33.119141 12 C 33.893175 12 34.5 12.609519 34.5 13.386719 L 34.5 23.085938 L 34.5 23.5 L 21.132812 23.5 C 20.884516 22.6936 20.072536 21.683594 19.3125 21.683594 C 19.0921 21.683594 18.874622 21.7286 18.669922 21.8125 C 18.462722 21.0231 17.771875 20.474609 16.984375 20.474609 C 16.477824 20.474609 16.022107 20.698741 15.703125 21.056641 A 0.50021458 0.50021458 0 0 0 15.40625 20.96875 A 0.50005 0.50005 0 0 0 15.371094 20.96875 C 14.794565 21.00575 14.267734 21.297306 13.917969 21.753906 C 13.49393 21.335906 12.934171 21.080978 12.328125 21.080078 C 11.074764 21.080078 10.060681 22.204047 10.009766 23.498047 L 9.5 23.498047 C 9.22299 23.498047 9 23.721047 9 23.998047 L 9 25.998047 C 9 26.275147 9.22299 26.498047 9.5 26.498047 L 10 26.498047 L 37 26.498047 L 37.5 26.498047 C 37.77701 26.498047 38 26.275147 38 25.998047 L 38 23.998047 C 38 23.721047 37.77701 23.498047 37.5 23.498047 L 35.5 23.498047 L 35.5 23.083984 L 35.5 13.384766 C 35.5 12.071966 34.430906 10.998047 33.119141 10.998047 L 28.882812 10.998047 z M 24.5 17 L 24.5 18 L 25.5 18 L 25.5 17 L 24.5 17 z M 26.5 17 L 26.5 18 L 27.5 18 L 27.5 17 L 26.5 17 z M 28.5 17 L 28.5 18 L 29.5 18 L 29.5 17 L 28.5 17 z M 24.5 19 L 24.5 20 L 25.5 20 L 25.5 19 L 24.5 19 z M 26.5 19 L 26.5 20 L 27.5 20 L 27.5 19 L 26.5 19 z M 28.5 19 L 28.5 20 L 29.5 20 L 29.5 19 L 28.5 19 z M 24.5 21 L 24.5 22 L 25.5 22 L 25.5 21 L 24.5 21 z M 26.5 21 L 26.5 22 L 27.5 22 L 27.5 21 L 26.5 21 z M 28.5 21 L 28.5 22 L 29.5 22 L 29.5 21 L 28.5 21 z M 10 27.5 L 10 30.837891 C 10 32.866991 11.561 34.5 13.5 34.5 L 13.5 36 L 14.5 36 L 14.5 34.5 L 32.5 34.5 L 32.5 36 L 33.5 36 L 33.5 34.5 C 35.439 34.5 37 32.866991 37 30.837891 L 37 27.5 L 10 27.5 z " color="#000" overflow="visible" style="isolation:auto;mix-blend-mode:normal"/></svg>