<svg xmlns="http://www.w3.org/2000/svg" width="48" height="48" viewBox="0 0 48 48"><path d="M 24 0 C 10.751089 0 9.4739031e-015 10.7511 0 24 C 0 37.2489 10.751089 48 24 48 C 37.248912 48 48 37.2489 48 24 C 48 10.7511 37.248912 0 24 0 z M 24 1 C 36.708472 1 47 11.2915 47 24 C 47 36.7085 36.708472 47 24 47 C 11.291529 47 1 36.7085 1 24 C 1 11.2915 11.291529 1 24 1 z M 9 16 L 9 18 L 40 18 L 40 16 L 9 16 z M 11 19 L 11 31.900391 C 11 33.008391 11.891991 33.900391 13 33.900391 L 14 33.900391 L 14 35.900391 L 14.5 35.900391 L 15.5 35.900391 L 16 35.900391 L 16 33.900391 L 24 33.900391 L 24 19 L 11 19 z M 25 19 L 25 33.900391 L 33 33.900391 L 33 35.900391 L 33.5 35.900391 L 34.5 35.900391 L 35 35.900391 L 35 33.900391 L 36 33.900391 C 37.108009 33.900391 38 33.008391 38 31.900391 L 38 19 L 25 19 z M 21.5 22.400391 L 22.5 22.400391 L 22.5 30.400391 L 21.5 30.400391 L 21.5 29.386719 L 21.396484 29.386719 C 20.355092 29.386719 19.5 28.533488 19.5 27.492188 L 19.5 25.308594 C 19.5 24.267294 20.355092 23.412109 21.396484 23.412109 L 21.5 23.412109 L 21.5 22.400391 z M 26.5 22.400391 L 27.5 22.400391 L 27.5 23.412109 L 27.605469 23.412109 C 28.646862 23.412109 29.5 24.267294 29.5 25.308594 L 29.5 27.492188 C 29.5 28.533488 28.646862 29.386719 27.605469 29.386719 L 27.5 29.386719 L 27.5 30.400391 L 26.5 30.400391 L 26.5 29.386719 L 26.5 28.386719 L 26.5 24.412109 L 26.5 23.412109 L 26.5 22.400391 z M 21.396484 24.412109 C 20.891477 24.412109 20.5 24.804294 20.5 25.308594 L 20.5 27.492188 C 20.5 27.996488 20.891477 28.386719 21.396484 28.386719 L 21.5 28.386719 L 21.5 24.412109 L 21.396484 24.412109 z M 27.5 24.412109 L 27.5 28.386719 L 27.605469 28.386719 C 28.110476 28.386719 28.5 27.996488 28.5 27.492188 L 28.5 25.308594 C 28.5 24.804294 28.110476 24.412109 27.605469 24.412109 L 27.5 24.412109 z "/></svg>