<svg xmlns="http://www.w3.org/2000/svg" width="48" height="48" viewBox="0 0 48 48"><path d="M 24 0 C 10.751089 0 9.4739031e-015 10.7511 0 24 C 0 37.2489 10.751089 48 24 48 C 37.248912 48 48 37.2489 48 24 C 48 10.7511 37.248912 0 24 0 z M 24 1 C 36.708472 1 47 11.2915 47 24 C 47 36.7085 36.708472 47 24 47 C 11.291529 47 1 36.7085 1 24 C 1 11.2915 11.291529 1 24 1 z M 9 12 L 9 14 L 39 14 L 39 12 L 9 12 z M 20 14.998047 L 20 15 L 20 21.998047 L 28 21.998047 L 28 14.998047 L 20 14.998047 z M 29 15 L 29 22 L 37 22 L 37 15 L 29 15 z M 11 15.001953 L 11 22 L 19 22 L 19 15.001953 L 11 15.001953 z M 13.019531 17.001953 L 17.019531 17.001953 L 17.019531 18.001953 L 13.019531 18.001953 L 13.019531 17.001953 z M 22.019531 17.001953 L 26.019531 17.001953 L 26.019531 18.001953 L 22.019531 18.001953 L 22.019531 17.001953 z M 31.019531 17.001953 L 35.019531 17.001953 L 35.019531 18.001953 L 31.019531 18.001953 L 31.019531 17.001953 z M 11 23 L 11 39 L 13 39 L 13 23 L 11 23 z M 35 23 L 35 39 L 37 39 L 37 23 L 35 23 z "/></svg>