<svg xmlns="http://www.w3.org/2000/svg" width="48" height="48" viewBox="0 0 48 48"><path d="M 24 0 C 10.751089 0 9.4739031e-015 10.7511 0 24 C 0 37.2489 10.751089 48 24 48 C 37.248912 48 48 37.2489 48 24 C 48 10.7511 37.248912 0 24 0 z M 24 1 C 36.708472 1 47 11.2915 47 24 C 47 36.7085 36.708472 47 24 47 C 11.291529 47 1 36.7085 1 24 C 1 11.2915 11.291529 1 24 1 z M 9 9 L 9 9.0019531 L 9 11 L 10.019531 11 L 10.019531 41 L 11 41 L 11 38.501953 L 23 38.501953 L 23 41 L 23.982422 41 L 23.982422 11 L 36 11 L 37 11 L 37 40.998047 L 39 40.998047 L 39 11 L 40 11 L 40 9 L 9 9 z M 11 11 L 23 11 L 23 12 L 11 12 L 11 11 z M 14.001953 15 L 15.001953 15 L 15.001953 15.576172 C 15.001953 15.798372 15.195735 16 15.501953 16 L 18.503906 16 C 18.810125 16 19.005859 15.798372 19.005859 15.576172 L 19.005859 15 L 20.005859 15 L 20.005859 15.576172 C 20.005859 16.378972 19.306425 17 18.503906 17 L 15.501953 17 C 14.699435 17 14.001953 16.378972 14.001953 15.576172 L 14.001953 15 z M 11 20 L 23 20 L 23 21 L 11 21 L 11 20 z M 14.001953 24 L 15.001953 24 L 15.001953 24.576172 C 15.001953 24.798372 15.195735 25 15.501953 25 L 18.503906 25 C 18.810125 25 19.005859 24.798372 19.005859 24.576172 L 19.005859 24 L 20.005859 24 L 20.005859 24.576172 C 20.005859 25.378972 19.306425 26 18.503906 26 L 15.501953 26 C 14.699435 26 14.001953 25.378972 14.001953 24.576172 L 14.001953 24 z M 11 29 L 23 29 L 23 30 L 11 30 L 11 29 z M 14.001953 33 L 15.001953 33 L 15.001953 33.576172 C 15.001953 33.798372 15.195735 34 15.501953 34 L 18.503906 34 C 18.810125 34 19.005859 33.798372 19.005859 33.576172 L 19.005859 33 L 20.005859 33 L 20.005859 33.576172 C 20.005859 34.378972 19.306425 35 18.503906 35 L 15.501953 35 C 14.699435 35 14.001953 34.378972 14.001953 33.576172 L 14.001953 33 z "/></svg>