<svg xmlns="http://www.w3.org/2000/svg" width="48" height="48" viewBox="0 0 48 48"><path d="M 24 0 C 10.751089 0 9.4739031e-015 10.7511 0 24 C 0 37.2489 10.751089 48 24 48 C 37.248912 48 48 37.2489 48 24 C 48 10.7511 37.248912 0 24 0 z M 24 1 C 36.708472 1 47 11.2915 47 24 C 47 36.7085 36.708472 47 24 47 C 11.291529 47 1 36.7085 1 24 C 1 11.2915 11.291529 1 24 1 z M 8 13 L 8 14 L 40 14 L 40 13 L 8 13 z M 9.5 15 L 9.5 22.5 L 9.5 36.5 L 11.5 36.5 L 11.5 28 L 36.5 28 L 36.5 36.5 L 38.5 36.5 L 38.5 22.5 L 38.5 15 L 26 15 L 26 22.5 L 36.5 22.5 L 36.5 27 L 11.5 27 L 11.5 22.5 L 23 22.5 L 23 15 L 9.5 15 z M 24 15 L 24 22.5 L 25 22.5 L 25 15 L 24 15 z M 13.998047 17 L 14.998047 17 L 14.998047 17.574219 C 14.998047 17.796419 15.191841 18 15.498047 18 L 17.5 18 C 17.80622 18 18.001953 17.796419 18.001953 17.574219 L 18.001953 17 L 19.001953 17 L 19.001953 17.574219 C 19.001953 18.377019 18.30252 19 17.5 19 L 15.498047 19 C 14.695533 19 13.998047 18.377019 13.998047 17.574219 L 13.998047 17 z M 28.998047 17 L 29.998047 17 L 29.998047 17.574219 C 29.998047 17.796419 30.191841 18 30.498047 18 L 32.5 18 C 32.80622 18 33 17.796419 33 17.574219 L 33 17 L 34 17 L 34 17.574219 C 34 18.377019 33.30252 19 32.5 19 L 30.498047 19 C 29.695533 19 28.998047 18.377019 28.998047 17.574219 L 28.998047 17 z "/></svg>