<svg xmlns="http://www.w3.org/2000/svg" width="48" height="48" viewBox="0 0 48 48"><path d="M 24 0 C 10.751088 0 0 10.7511 0 24 C 0 37.2489 10.751088 48 24 48 C 37.248912 48 48 37.2489 48 24 C 48 10.7511 37.248912 0 24 0 z M 24 1 C 36.708472 1 47 11.2915 47 24 C 47 36.7085 36.708472 47 24 47 C 11.291528 47 1 36.7085 1 24 C 1 11.2915 11.291528 1 24 1 z M 16 10 L 16 12 L 13 12 L 13 19 L 16 19 L 16 25 L 13 25 L 13 27 L 15 27 L 15 39 L 17 39 L 17 31.5 L 29 31.5 L 29 39 L 31 39 L 31 27 L 33 27 L 33 25 L 30 25 L 30 19 L 33 19 L 33 12 L 30 12 L 30 10 L 28 10 L 28 12 L 18 12 L 18 10 L 16 10 z M 18 19 L 28 19 L 28 25 L 18 25 L 18 19 z M 17 27 L 29 27 L 29 30.5 L 17 30.5 L 17 27 z "/></svg>