<svg xmlns="http://www.w3.org/2000/svg" width="48" height="48" viewBox="0 0 48 48"><path fill-rule="evenodd" d="M 24 0 C 10.751089 0 9.4739031e-015 10.7511 0 24 C 0 37.2489 10.751089 48 24 48 C 37.248912 48 48 37.2489 48 24 C 48 10.7511 37.248912 0 24 0 z M 24 1 C 36.708472 1 47 11.2915 47 24 C 47 36.7085 36.708472 47 24 47 C 11.291529 47 1 36.7085 1 24 C 1 11.2915 11.291529 1 24 1 z M 8 8 L 8 9 L 9 9 L 9 37.5 L 9 38.5 L 9 40 L 10 40 L 10 38.5 L 38 38.5 L 38 40 L 39 40 L 39 38.5 L 39 37.5 L 39 9 L 40 9 L 40 8 L 8 8 z M 10 9 L 38 9 L 38 37.5 L 37.015625 37.5 L 37.015625 10 L 11 10 L 11 37.5 L 10 37.5 L 10 9 z M 13 12 L 35 12 L 35 23 L 13 23 L 13 12.5 L 13 12 z M 14 13 L 14 22 L 34 22 L 34 13 L 14 13 z M 19 16 L 29 16 L 29 17 L 27.988281 17 L 27.988281 17.103516 C 27.988281 18.144916 27.135032 19 26.09375 19 L 21.908203 19 C 20.866921 19 20.013672 18.144916 20.013672 17.103516 L 20.013672 17 L 19 17 L 19 16 z M 21.013672 17 L 21.013672 17.103516 C 21.013672 17.608516 21.403953 18 21.908203 18 L 26.09375 18 C 26.598001 18 26.988281 17.608516 26.988281 17.103516 L 26.988281 17 L 21.013672 17 z M 13 25 L 35 25 L 35 36 L 13 36 L 13 25.5 L 13 25 z M 14 26 L 14 35 L 34 35 L 34 26 L 14 26 z M 19 29 L 29 29 L 29 30 L 27.988281 30 L 27.988281 30.103516 C 27.988281 31.144916 27.135032 32 26.09375 32 L 21.908203 32 C 20.866921 32 20.013672 31.144916 20.013672 30.103516 L 20.013672 30 L 19 30 L 19 29 z M 21.013672 30 L 21.013672 30.103516 C 21.013672 30.608516 21.403953 31 21.908203 31 L 26.09375 31 C 26.598001 31 26.988281 30.608516 26.988281 30.103516 L 26.988281 30 L 21.013672 30 z " color="#000" font-family="sans-serif" font-weight="400" overflow="visible" white-space="normal" style="line-height:normal;text-indent:0;text-align:start;text-decoration-line:none;text-decoration-style:solid;text-decoration-color:#000;text-transform:none;block-progression:tb;isolation:auto;mix-blend-mode:normal"/></svg>