<svg xmlns="http://www.w3.org/2000/svg" width="48" height="48" viewBox="0 0 48 48"><path d="M 24 0 C 10.751089 0 9.4739031e-015 10.7511 0 24 C 0 37.2489 10.751089 48 24 48 C 37.248912 48 48 37.2489 48 24 C 48 10.7511 37.248912 0 24 0 z M 24 1 C 36.708472 1 47 11.2915 47 24 C 47 36.7085 36.708472 47 24 47 C 11.291529 47 1 36.7085 1 24 C 1 11.2915 11.291529 1 24 1 z M 12 12 L 12 14 L 8 14 L 8 18.5 L 39 18.5 L 39 14 L 35 14 L 35 12 L 33 12 L 33 14 L 14 14 L 14 12 L 12 12 z M 8 19.5 L 8 24 L 12 24 L 12 28 L 8 28 L 8 32 L 11 32 L 11 36 L 14 36 L 14 32 L 33 32 L 33 36 L 36 36 L 36 32 L 39 32 L 39 28 L 35 28 L 35 24 L 39 24 L 39 19.5 L 8 19.5 z M 14 24 L 33 24 L 33 28 L 14 28 L 14 24 z "/></svg>