<svg xmlns="http://www.w3.org/2000/svg" width="48" height="48" viewBox="0 0 48 48"><path d="M 24 0 C 10.751088 0 -2.3684758e-015 10.7511 0 24 C 0 37.249 10.751088 48 24 48 C 37.248912 48 48 37.249 48 24 C 48 10.7511 37.248912 0 24 0 z M 24 1 C 36.708472 1 47 11.2916 47 24 C 47 36.7085 36.708472 47 24 47 C 11.291528 47 1 36.7085 1 24 C 1 11.2916 11.291528 1 24 1 z M 10.5 15.775391 C 10.21435 15.775391 10 15.989691 10 16.275391 L 10 24.775391 L 10 28.775391 L 10 30.775391 L 10 32.962891 L 11 32.962891 L 11 30.775391 L 39 30.775391 L 39 33 L 40 33 L 40 30.775391 L 40 30 L 40 28.775391 L 11 28.775391 L 11 23.355469 C 10.991 23.302469 10.991 23.248313 11 23.195312 L 11 21.283203 L 11 16.275391 C 11 15.989691 10.78565 15.775391 10.5 15.775391 z M 12.5 20.783203 C 12.21435 20.783203 12 20.997503 12 21.283203 L 12 22.775391 L 15 22.775391 L 15 21.363281 C 14.9936 21.326281 14.992141 21.2882 14.994141 21.25 C 14.977291 20.9822 14.77377 20.783203 14.5 20.783203 L 12.5 20.783203 z M 16 21.783203 L 16 22.775391 L 37.998047 22.775391 C 37.993647 22.216791 37.55985 21.783203 37 21.783203 L 16 21.783203 z M 12 23.775391 L 12 27.775391 L 40 27.775391 L 40 24.775391 C 40 24.212691 39.56266 23.775391 39 23.775391 L 15.615234 23.775391 C 15.539454 23.793391 15.460566 23.793391 15.384766 23.775391 L 12 23.775391 z " color="#000" font-family="sans-serif" font-weight="400" overflow="visible" white-space="normal" style="line-height:normal;text-indent:0;text-align:start;text-decoration-line:none;text-decoration-style:solid;text-decoration-color:#000;text-transform:none;block-progression:tb;isolation:auto;mix-blend-mode:normal"/></svg>