<svg xmlns="http://www.w3.org/2000/svg" width="48" height="48" viewBox="0 0 48 48"><path d="M 24 0 C 10.751089 0 9.4739031e-015 10.7511 0 24 C 0 37.2489 10.751089 48 24 48 C 37.248912 48 48 37.2489 48 24 C 48 10.7511 37.248912 0 24 0 z M 24 1 C 36.708472 1 47 11.2915 47 24 C 47 36.7085 36.708472 47 24 47 C 11.291529 47 1 36.7085 1 24 C 1 11.2915 11.291529 1 24 1 z M 17.435547 9 C 15.524427 9 13.998047 10.534244 13.998047 12.464844 L 13.998047 21.339844 C 15.184017 21.904944 15.998067 23.1147 15.998047 24.5 L 15.998047 24.53125 L 15.998047 28 L 31.998047 28 L 31.998047 24.533203 L 31.998047 24.5 C 31.998027 23.1154 32.812427 21.905244 33.998047 21.339844 L 33.998047 12.464844 C 33.998047 10.534344 32.471657 9 30.560547 9 L 17.435547 9 z M 18.462891 13 C 18.474691 12.9997 18.486347 12.9997 18.498047 13 C 18.774187 13 18.998047 13.2239 18.998047 13.5 C 18.998047 13.7761 18.774187 14 18.498047 14 C 18.221903 14 17.998047 13.7761 17.998047 13.5 C 17.997397 13.2371 18.200561 13.019 18.462891 13 z M 23.962891 13 C 23.974691 12.9997 23.986347 12.9997 23.998047 13 C 24.274187 13 24.498047 13.2239 24.498047 13.5 C 24.498047 13.7761 24.274187 14 23.998047 14 C 23.721907 14 23.498047 13.7761 23.498047 13.5 C 23.497397 13.2371 23.700561 13.019 23.962891 13 z M 29.462891 13 C 29.474691 12.9997 29.486347 12.9997 29.498047 13 C 29.774187 13 29.998047 13.2239 29.998047 13.5 C 29.998047 13.7761 29.774187 14 29.498047 14 C 29.221907 14 28.998047 13.7761 28.998047 13.5 C 28.997397 13.2371 29.200561 13.019 29.462891 13 z M 20.962891 15 C 20.974691 14.9997 20.986347 14.9997 20.998047 15 C 21.274187 15 21.498047 15.2239 21.498047 15.5 C 21.498047 15.7761 21.274187 16 20.998047 16 C 20.721907 16 20.498047 15.7761 20.498047 15.5 C 20.497397 15.2371 20.700561 15.019 20.962891 15 z M 26.962891 15 C 26.974691 14.9997 26.986347 14.9997 26.998047 15 C 27.274187 15 27.498047 15.2239 27.498047 15.5 C 27.498047 15.7761 27.274187 16 26.998047 16 C 26.721907 16 26.498047 15.7761 26.498047 15.5 C 26.497397 15.2371 26.700561 15.019 26.962891 15 z M 18.462891 17 C 18.474691 16.9997 18.486347 16.9997 18.498047 17 C 18.774187 17 18.998047 17.2239 18.998047 17.5 C 18.998047 17.7761 18.774187 18 18.498047 18 C 18.221903 18 17.998047 17.7761 17.998047 17.5 C 17.997397 17.2371 18.200561 17.019 18.462891 17 z M 23.962891 17 C 23.974691 16.9997 23.986347 16.9997 23.998047 17 C 24.274187 17 24.498047 17.2239 24.498047 17.5 C 24.498047 17.7761 24.274187 18 23.998047 18 C 23.721907 18 23.498047 17.7761 23.498047 17.5 C 23.497397 17.2371 23.700561 17.019 23.962891 17 z M 29.462891 17 C 29.474691 16.9997 29.486347 16.9997 29.498047 17 C 29.774187 17 29.998047 17.2239 29.998047 17.5 C 29.998047 17.7761 29.774187 18 29.498047 18 C 29.221907 18 28.998047 17.7761 28.998047 17.5 C 28.997397 17.2371 29.200561 17.019 29.462891 17 z M 20.962891 19 C 20.974691 18.9997 20.986347 18.9997 20.998047 19 C 21.274187 19 21.498047 19.2239 21.498047 19.5 C 21.498047 19.7761 21.274187 20 20.998047 20 C 20.721907 20 20.498047 19.7761 20.498047 19.5 C 20.497397 19.2371 20.700561 19.019 20.962891 19 z M 26.962891 19 C 26.974691 18.9997 26.986347 18.9997 26.998047 19 C 27.274187 19 27.498047 19.2239 27.498047 19.5 C 27.498047 19.7761 27.274187 20 26.998047 20 C 26.721907 20 26.498047 19.7761 26.498047 19.5 C 26.497397 19.2371 26.700561 19.019 26.962891 19 z M 18.462891 21 C 18.474691 20.9997 18.486347 20.9997 18.498047 21 C 18.774187 21 18.998047 21.2239 18.998047 21.5 C 18.998047 21.7761 18.774187 22 18.498047 22 C 18.221907 22 17.998047 21.7761 17.998047 21.5 C 17.997397 21.2371 18.200561 21.019 18.462891 21 z M 23.962891 21 C 23.974691 20.9997 23.986347 20.9997 23.998047 21 C 24.274187 21 24.498047 21.2239 24.498047 21.5 C 24.498047 21.7761 24.274187 22 23.998047 22 C 23.721907 22 23.498047 21.7761 23.498047 21.5 C 23.497397 21.2371 23.700561 21.019 23.962891 21 z M 29.462891 21 C 29.474691 20.9997 29.486347 20.9997 29.498047 21 C 29.774187 21 29.998047 21.2239 29.998047 21.5 C 29.998047 21.7761 29.774187 22 29.498047 22 C 29.221907 22 28.998047 21.7761 28.998047 21.5 C 28.997397 21.2371 29.200561 21.019 29.462891 21 z M 35.333984 22.003906 L 35.333984 22.005859 C 34.017132 22.093807 33.00098 23.178503 33 24.498047 L 33 24.529297 L 33 36.986328 L 35.195312 36.986328 C 35.646043 36.986328 35.998047 36.634128 35.998047 36.173828 L 35.998047 26.990234 L 36.001953 26.990234 L 35.992188 26.949219 C 37.287528 26.688419 38.150993 25.477769 37.976562 24.167969 C 37.802123 22.858269 36.652394 21.916906 35.333984 22.003906 z M 12.664062 22.005859 C 11.346473 21.919859 10.197779 22.860822 10.023438 24.169922 C 9.8490075 25.479622 10.712483 26.690472 12.007812 26.951172 L 11.998047 26.992188 L 12.001953 26.992188 L 12.001953 36.175781 C 12.001953 36.636181 12.352004 36.988281 12.802734 36.988281 L 14.998047 36.988281 L 14.998047 24.53125 L 14.998047 24.5 C 14.998067 23.1794 13.983474 22.093759 12.666016 22.005859 L 12.664062 22.005859 z M 20.962891 23 C 20.974691 22.9997 20.986347 22.9997 20.998047 23 C 21.274187 23 21.498047 23.2239 21.498047 23.5 C 21.498047 23.7761 21.274187 24 20.998047 24 C 20.721907 24 20.498047 23.7761 20.498047 23.5 C 20.497397 23.2371 20.700561 23.019 20.962891 23 z M 26.962891 23 C 26.974691 22.9997 26.986347 22.9997 26.998047 23 C 27.274187 23 27.498047 23.2239 27.498047 23.5 C 27.498047 23.7761 27.274187 24 26.998047 24 C 26.721907 24 26.498047 23.7761 26.498047 23.5 C 26.497397 23.2371 26.700561 23.019 26.962891 23 z M 18.462891 25 C 18.474691 24.9997 18.486347 24.9997 18.498047 25 C 18.774187 25 18.998047 25.2239 18.998047 25.5 C 18.998047 25.7761 18.774187 26 18.498047 26 C 18.221907 26 17.998047 25.7761 17.998047 25.5 C 17.997397 25.2371 18.200561 25.019 18.462891 25 z M 23.962891 25 C 23.974691 24.9997 23.986347 24.9997 23.998047 25 C 24.274187 25 24.498047 25.2239 24.498047 25.5 C 24.498047 25.7761 24.274187 26 23.998047 26 C 23.721907 26 23.498047 25.7761 23.498047 25.5 C 23.497397 25.2371 23.700561 25.019 23.962891 25 z M 29.462891 25 C 29.474691 24.9997 29.486347 24.9997 29.498047 25 C 29.774187 25 29.998047 25.2239 29.998047 25.5 C 29.998047 25.7761 29.774187 26 29.498047 26 C 29.221907 26 28.998047 25.7761 28.998047 25.5 C 28.997397 25.2371 29.200561 25.019 29.462891 25 z M 15.998047 29 L 15.998047 31 L 31.998047 31 L 31.998047 29 L 15.998047 29 z M 15.998047 32 L 15.998047 36.988281 L 31.998047 36.988281 L 31.998047 32 L 15.998047 32 z M 13.019531 38 L 13.019531 39 L 14.998047 39 L 14.998047 38 L 13.019531 38 z M 32.998047 38 L 32.998047 39 L 35.013672 39 L 35.013672 38 L 32.998047 38 z " color="#000" font-family="sans-serif" font-weight="400" overflow="visible" white-space="normal" style="line-height:normal;text-indent:0;text-align:start;text-decoration-line:none;text-decoration-style:solid;text-decoration-color:#000;text-transform:none;block-progression:tb;isolation:auto;mix-blend-mode:normal"/></svg>