<svg xmlns="http://www.w3.org/2000/svg" width="48" height="48" viewBox="0 0 48 48"><path d="M 24 0 C 10.751089 0 9.4739031e-015 10.7511 0 24 C 0 37.2489 10.751089 48 24 48 C 37.248912 48 48 37.2489 48 24 C 48 10.7511 37.248912 0 24 0 z M 24 1 C 36.708472 1 47 11.2915 47 24 C 47 36.7085 36.708472 47 24 47 C 11.291529 47 1 36.7085 1 24 C 1 11.2915 11.291529 1 24 1 z M 13.076172 14 C 11.919102 14 11.011719 14.897684 11.011719 16.021484 L 11.011719 18.041016 C 12.148499 18.284616 13 19.322422 13 20.544922 C 13 21.387822 13.009766 23.988281 13.009766 23.988281 L 35 23.988281 L 35 20.544922 C 35 19.322522 35.851501 18.284616 36.988281 18.041016 L 36.988281 16.021484 C 36.988281 14.897684 36.080908 14 34.923828 14 L 13.076172 14 z M 10.5 18.988281 C 9.66798 18.988281 9 19.666522 9 20.544922 L 9 25.599609 L 9.0019531 25.599609 L 9.0019531 30.775391 C 9.0019631 31.457591 9.5302381 31.988281 10.205078 31.988281 L 12 31.988281 L 12 20.544922 C 12 19.666822 11.33201 18.988281 10.5 18.988281 z M 37.5 18.988281 C 36.66796 18.988281 36 19.666522 36 20.544922 L 36 31.988281 L 37.794922 31.988281 C 38.469762 31.988281 39 31.457591 39 30.775391 L 39 27.744141 L 39 20.544922 C 39 19.666822 38.33204 18.988281 37.5 18.988281 z M 13 24.988281 L 13 26.998047 L 35 26.998047 L 35 24.988281 L 13 24.988281 z M 13 27.998047 L 13 31.988281 L 35 31.988281 L 35 27.998047 L 13 27.998047 z M 10 32.980469 L 10 34.990234 L 12 35 L 12 32.990234 L 10 32.980469 z M 36 32.990234 L 36 34.994141 L 38 34.994141 L 38 32.990234 L 36 32.990234 z " color="#000" font-family="sans-serif" font-weight="400" overflow="visible" white-space="normal" style="line-height:normal;text-indent:0;text-align:start;text-decoration-line:none;text-decoration-style:solid;text-decoration-color:#000;text-transform:none;block-progression:tb;isolation:auto;mix-blend-mode:normal"/></svg>