<svg xmlns="http://www.w3.org/2000/svg" width="48" height="48" viewBox="0 0 48 48"><path d="M 24 0 C 10.751089 0 -2.3684758e-015 10.7511 0 24 C 0 37.2489 10.751089 48 24 48 C 37.248912 48 48 37.2489 48 24 C 48 10.7511 37.248912 0 24 0 z M 24 1 C 36.708472 1 47 11.2915 47 24 C 47 36.7085 36.708472 47 24 47 C 11.291529 47 1 36.7085 1 24 C 1 11.2915 11.291529 1 24 1 z M 13 14 C 11.88334 14 11 14.8834 11 16 L 11 18.050781 C 12.14264 18.289781 13 19.329941 13 20.556641 L 13 21 C 13.27613 21.0001 13.49997 21.2239 13.5 21.5 C 14.17616 21.4905 14.17616 22.51 13.5 22.5 C 13.49889 22.7754 13.27537 22.998047 13 22.998047 C 13 23.831447 13.009766 24 13.009766 24 L 19 24 L 19 21.455078 L 19 16 C 19 14.8834 18.116659 14 17 14 L 13 14 z M 22 14 C 20.883339 14 20 14.8834 20 16 L 20 21.455078 C 20.000369 21.466078 20.000369 21.477281 20 21.488281 L 20 24 L 28 24 L 28 21.455078 L 28 16 C 28 14.8834 27.116659 14 26 14 L 22 14 z M 31 14 C 29.883339 14 29 14.8834 29 16 L 29 21.455078 C 29.000369 21.466078 29.000369 21.477281 29 21.488281 L 29 24 L 35 24 L 35 22.998047 C 34.724629 22.998047 34.500999 22.7754 34.5 22.5 C 33.8427 22.4907 33.8427 21.51 34.5 21.5 C 34.50001 21.2262 34.720301 21 34.994141 21 L 35 21 L 35 20.556641 C 35 19.329941 35.85736 18.289781 37 18.050781 L 37 16 C 37 14.8834 36.11666 14 35 14 L 31 14 z M 12.994141 15 C 13.272561 14.9968 13.49999 15.2216 13.5 15.5 C 14.17616 15.4905 14.17616 16.51 13.5 16.5 C 13.4907 17.1573 12.509 17.1573 12.5 16.5 C 11.8427 16.4907 11.8427 15.51 12.5 15.5 C 12.50001 15.2262 12.720301 15 12.994141 15 z M 16.994141 15 C 17.272561 14.9968 17.499989 15.2216 17.5 15.5 C 18.176159 15.4905 18.176159 16.51 17.5 16.5 C 17.490699 17.1573 16.509 17.1573 16.5 16.5 C 15.8427 16.4907 15.8427 15.51 16.5 15.5 C 16.50001 15.2262 16.720301 15 16.994141 15 z M 21.994141 15 C 22.272561 14.9968 22.499989 15.2216 22.5 15.5 C 23.176159 15.4905 23.176159 16.51 22.5 16.5 C 22.490699 17.1573 21.509 17.1573 21.5 16.5 C 20.8427 16.4907 20.8427 15.51 21.5 15.5 C 21.50001 15.2262 21.720301 15 21.994141 15 z M 25.994141 15 C 26.272561 14.9968 26.499989 15.2216 26.5 15.5 C 27.176159 15.4905 27.176159 16.51 26.5 16.5 C 26.490699 17.1573 25.509 17.1573 25.5 16.5 C 24.8427 16.4907 24.8427 15.51 25.5 15.5 C 25.50001 15.2262 25.720301 15 25.994141 15 z M 30.994141 15 C 31.272561 14.9968 31.499989 15.2216 31.5 15.5 C 32.17616 15.4905 32.17616 16.51 31.5 16.5 C 31.490699 17.1573 30.509 17.1573 30.5 16.5 C 29.8427 16.4907 29.8427 15.51 30.5 15.5 C 30.50001 15.2262 30.720301 15 30.994141 15 z M 34.994141 15 C 35.272561 14.9968 35.499989 15.2216 35.5 15.5 C 36.17616 15.4905 36.17616 16.51 35.5 16.5 C 35.490699 17.1573 34.509 17.1573 34.5 16.5 C 33.8427 16.4907 33.8427 15.51 34.5 15.5 C 34.50001 15.2262 34.720301 15 34.994141 15 z M 14.994141 18 C 15.272561 17.9968 15.49999 18.2216 15.5 18.5 C 16.17616 18.4905 16.17616 19.51 15.5 19.5 C 15.4907 20.1573 14.509 20.1573 14.5 19.5 C 13.8427 19.4907 13.8427 18.51 14.5 18.5 C 14.50001 18.2262 14.720301 18 14.994141 18 z M 23.994141 18 C 24.272561 17.9968 24.499989 18.2216 24.5 18.5 C 25.176159 18.4905 25.176159 19.51 24.5 19.5 C 24.490699 20.1573 23.509 20.1573 23.5 19.5 C 22.8427 19.4907 22.8427 18.51 23.5 18.5 C 23.50001 18.2262 23.720301 18 23.994141 18 z M 32.994141 18 C 33.272561 17.9968 33.499989 18.2216 33.5 18.5 C 34.17616 18.4905 34.17616 19.51 33.5 19.5 C 33.490699 20.1573 32.509 20.1573 32.5 19.5 C 31.8427 19.4907 31.8427 18.51 32.5 18.5 C 32.50001 18.2262 32.720301 18 32.994141 18 z M 10.5 19 C 9.66798 19.0001 9 19.678141 9 20.556641 L 9 25.611328 L 9.0019531 25.611328 L 9.0019531 30.787109 C 9.0019531 31.469409 9.5322002 32 10.207031 32 L 12 32 L 12 20.556641 C 12 19.678141 11.33201 19 10.5 19 z M 37.5 19 C 36.66796 19 36 19.678241 36 20.556641 L 36 21.966797 C 36.002 21.991797 36.002 22.016016 36 22.041016 L 36 32 L 37.794922 32 C 38.469763 32 39 31.469409 39 30.787109 L 39 27.755859 L 39 20.556641 C 39 19.678141 38.33204 19 37.5 19 z M 16.994141 21 C 17.272561 20.9968 17.499989 21.2216 17.5 21.5 C 18.176159 21.4905 18.176159 22.51 17.5 22.5 C 17.490699 23.1573 16.509 23.1573 16.5 22.5 C 15.8427 22.4907 15.8427 21.51 16.5 21.5 C 16.50001 21.2262 16.720301 21 16.994141 21 z M 21.994141 21 C 22.272561 20.9968 22.499989 21.2216 22.5 21.5 C 23.176159 21.4905 23.176159 22.51 22.5 22.5 C 22.490699 23.1573 21.509 23.1573 21.5 22.5 C 20.8427 22.4907 20.8427 21.51 21.5 21.5 C 21.50001 21.2262 21.720301 21 21.994141 21 z M 25.994141 21 C 26.272561 20.9968 26.499989 21.2216 26.5 21.5 C 27.176159 21.4905 27.176159 22.51 26.5 22.5 C 26.490699 23.1573 25.509 23.1573 25.5 22.5 C 24.8427 22.4907 24.8427 21.51 25.5 21.5 C 25.50001 21.2262 25.720301 21 25.994141 21 z M 30.994141 21 C 31.272561 20.9968 31.499989 21.2216 31.5 21.5 C 32.17616 21.4905 32.17616 22.51 31.5 22.5 C 31.490699 23.1573 30.509 23.1573 30.5 22.5 C 29.8427 22.4907 29.8427 21.51 30.5 21.5 C 30.50001 21.2262 30.720301 21 30.994141 21 z M 13 25 L 13 27.009766 L 35 27.009766 L 35 25 L 13 25 z M 13 28.009766 L 13 32 L 35 32 L 35 28.009766 L 13 28.009766 z M 11 33 L 11 34 L 12 34 L 12 33 L 11 33 z M 36 33 L 36 34 L 37 34 L 37 33 L 36 33 z " color="#000" font-family="sans-serif" font-weight="400" overflow="visible" white-space="normal" style="line-height:normal;text-indent:0;text-align:start;text-decoration-line:none;text-decoration-style:solid;text-decoration-color:#000;text-transform:none;block-progression:tb;isolation:auto;mix-blend-mode:normal"/></svg>