<svg xmlns="http://www.w3.org/2000/svg" width="48" height="48" viewBox="0 0 48 48"><path d="M 24 0 C 10.751089 0 9.4739031e-015 10.7511 0 24 C 0 37.2489 10.751089 48 24 48 C 37.248912 48 48 37.2489 48 24 C 48 10.7511 37.248912 0 24 0 z M 24 1 C 36.708472 1 47 11.2915 47 24 C 47 36.7085 36.708472 47 24 47 C 11.291529 47 1 36.7085 1 24 C 1 11.2915 11.291529 1 24 1 z M 32.332031 10.222656 A 0.50005 0.50005 0 0 0 31.980469 10.382812 L 29.681641 12.882812 A 0.50036392 0.50036392 0 0 0 29.574219 13.0625 L 28.234375 11.720703 A 2.343215 2.343215 0 0 0 27.628906 13.984375 A 2.343215 2.343215 0 0 0 29.285156 15.642578 A 2.343215 2.343215 0 0 0 31.548828 15.035156 L 30.207031 13.695312 A 0.50036392 0.50036392 0 0 0 30.417969 13.560547 L 32.371094 11.4375 L 36.740234 15.636719 L 35.314453 16.523438 A 0.50005 0.50005 0 0 0 35.080078 16.949219 L 35.080078 19.720703 L 35.048828 19.720703 C 34.29356 19.720703 33.67731 20.2754 33.570312 21 L 9 21 L 9 23 L 11 23 L 11 37 L 13 37 L 14 23 L 35 23 L 36 37 L 38 37 L 38 23 L 40 23 L 40 21 L 37.525391 21 C 37.419893 20.2858 36.820751 19.740109 36.080078 19.724609 L 36.080078 17.230469 L 37.814453 16.150391 A 0.50005 0.50005 0 0 0 37.896484 15.365234 L 32.695312 10.365234 A 0.50005 0.50005 0 0 0 32.332031 10.226562 L 32.332031 10.222656 z "/></svg>