<svg xmlns="http://www.w3.org/2000/svg" width="48" height="48" viewBox="0 0 48 48"><path d="M 24 0 C 10.751089 0 9.4739031e-015 10.7511 0 24 C 0 37.2489 10.751089 48 24 48 C 37.248912 48 48 37.2489 48 24 C 48 10.7511 37.248912 0 24 0 z M 24 1 C 36.708472 1 47 11.2915 47 24 C 47 36.7085 36.708472 47 24 47 C 11.291529 47 1 36.7085 1 24 C 1 11.2915 11.291529 1 24 1 z M 10 10 L 10 10.5 C 10 10.7857 10.214351 11 10.5 11 L 11.5 11 L 37.535156 11 L 38.5 11 C 38.785648 11 39 10.7857 39 10.5 L 39 10 L 10 10 z M 12 12 L 12 13 L 37 13 L 37 12 L 12 12 z M 13 14 L 13 36 L 24 36 L 24 14 L 13 14 z M 25 14 L 25 36 L 36 36 L 36 14 L 25 14 z M 15.412109 15 L 21.587891 15 C 21.799899 14.9993 21.989307 15.132431 22.060547 15.332031 C 22.161405 15.616331 22.383694 15.840506 22.667969 15.941406 C 22.866979 16.012406 22.999887 16.200809 23 16.412109 L 23 25.587891 C 22.999883 25.799191 22.866976 25.987594 22.667969 26.058594 C 22.383688 26.159494 22.161406 26.383669 22.060547 26.667969 C 21.989307 26.867569 21.799899 27.0007 21.587891 27 L 15.412109 27 C 15.200817 26.9999 15.012396 26.866969 14.941406 26.667969 C 14.840547 26.383669 14.618265 26.159494 14.333984 26.058594 C 14.134207 25.988594 14.000411 25.799691 14 25.587891 L 14 16.412109 C 14.000407 16.200309 14.134204 16.011406 14.333984 15.941406 C 14.618259 15.840506 14.840547 15.616331 14.941406 15.332031 C 15.012396 15.133031 15.200817 15.0001 15.412109 15 z M 27.412109 15 L 33.587891 15 C 33.799899 14.9993 33.989307 15.132431 34.060547 15.332031 C 34.161408 15.616331 34.383711 15.840606 34.667969 15.941406 C 34.866979 16.012406 34.999887 16.200809 35 16.412109 L 35 25.587891 C 34.999883 25.799191 34.866976 25.987594 34.667969 26.058594 C 34.383646 26.159494 34.161413 26.383569 34.060547 26.667969 C 33.989317 26.867569 33.799899 27.0007 33.587891 27 L 27.412109 27 C 27.200817 26.9999 27.012396 26.866969 26.941406 26.667969 C 26.84054 26.383569 26.618307 26.159494 26.333984 26.058594 C 26.134207 25.988594 26.000411 25.799691 26 25.587891 L 26 16.412109 C 26.000407 16.200309 26.134204 16.011406 26.333984 15.941406 C 26.618241 15.840606 26.840545 15.616331 26.941406 15.332031 C 27.012406 15.133031 27.200817 15.0001 27.412109 15 z M 15.552734 16 C 15.40466 16.2235 15.223491 16.402681 15 16.550781 L 15 25.449219 C 15.223491 25.597319 15.404659 25.7765 15.552734 26 L 21.449219 26 C 21.59677 25.7773 21.777524 25.598972 22 25.451172 L 22 16.548828 C 21.777524 16.401028 21.596769 16.2227 21.449219 16 L 15.552734 16 z M 27.552734 16 C 27.40466 16.2235 27.223493 16.402681 27 16.550781 L 27 25.449219 C 27.223492 25.597319 27.404649 25.7765 27.552734 26 L 33.449219 26 C 33.59678 25.7773 33.777524 25.598972 34 25.451172 L 34 16.548828 C 33.777523 16.401028 33.596768 16.2227 33.449219 16 L 27.552734 16 z M 20.443359 28 C 20.460269 27.9991 20.477221 27.9991 20.494141 28 L 22.494141 28 C 23.170302 27.99 23.170302 29.01 22.494141 29 L 20.494141 29 C 19.827476 29.034 19.776691 28.034 20.443359 28 z M 26.457031 28 C 26.473941 27.9991 26.490892 27.9991 26.507812 28 L 28.507812 28 C 29.183974 27.99 29.183974 29.01 28.507812 29 L 26.507812 29 C 25.841147 29.034 25.790364 28.034 26.457031 28 z M 15.412109 30 L 21.587891 30 C 21.799899 29.9993 21.989307 30.132431 22.060547 30.332031 C 22.161408 30.616331 22.383711 30.840606 22.667969 30.941406 C 22.866979 31.012406 22.999887 31.200809 23 31.412109 L 23 33.587891 C 22.999883 33.799191 22.866976 33.987594 22.667969 34.058594 C 22.383711 34.159394 22.161408 34.383669 22.060547 34.667969 C 21.989307 34.867569 21.799899 35.0007 21.587891 35 L 15.412109 35 C 15.200817 34.9999 15.012396 34.866969 14.941406 34.667969 C 14.840546 34.383669 14.618242 34.159394 14.333984 34.058594 C 14.134207 33.988594 14.000411 33.799691 14 33.587891 L 14 31.412109 C 14.000407 31.200309 14.134204 31.011406 14.333984 30.941406 C 14.618242 30.840606 14.840546 30.616331 14.941406 30.332031 C 15.012396 30.133031 15.200817 30.0001 15.412109 30 z M 27.412109 30 L 33.587891 30 C 33.799899 29.9993 33.989307 30.132431 34.060547 30.332031 C 34.161408 30.616331 34.383711 30.840606 34.667969 30.941406 C 34.866979 31.012406 34.999887 31.200809 35 31.412109 L 35 33.587891 C 34.999883 33.799191 34.866976 33.987594 34.667969 34.058594 C 34.383711 34.159394 34.161408 34.383669 34.060547 34.667969 C 33.989317 34.867569 33.799899 35.0007 33.587891 35 L 27.412109 35 C 27.200817 34.9999 27.012396 34.866969 26.941406 34.667969 C 26.840546 34.383669 26.618242 34.159394 26.333984 34.058594 C 26.134207 33.988594 26.000411 33.799691 26 33.587891 L 26 31.412109 C 26.000407 31.200309 26.134204 31.011406 26.333984 30.941406 C 26.618242 30.840606 26.840546 30.616331 26.941406 30.332031 C 27.012406 30.133031 27.200817 30.0001 27.412109 30 z M 15.552734 31 C 15.40466 31.2235 15.223493 31.402681 15 31.550781 L 15 33.449219 C 15.223493 33.597319 15.40466 33.7765 15.552734 34 L 21.449219 34 C 21.596768 33.7773 21.777523 33.598972 22 33.451172 L 22 31.548828 C 21.777523 31.401028 21.596768 31.2227 21.449219 31 L 15.552734 31 z M 27.552734 31 C 27.40466 31.2235 27.223493 31.402681 27 31.550781 L 27 33.449219 C 27.223493 33.597319 27.40466 33.7765 27.552734 34 L 33.449219 34 C 33.596768 33.7773 33.777523 33.598972 34 33.451172 L 34 31.548828 C 33.777523 31.401028 33.596768 31.2227 33.449219 31 L 27.552734 31 z M 12 37 L 12 38 L 37 38 L 37 37 L 12 37 z M 10.5 39 C 10.214351 39 10 39.2144 10 39.5 L 10 40 L 39 40 L 39 39.5 C 39 39.2144 38.785648 39 38.5 39 L 10.5 39 z " color="#000" font-family="sans-serif" font-weight="400" overflow="visible" white-space="normal" style="line-height:normal;text-indent:0;text-align:start;text-decoration-line:none;text-decoration-style:solid;text-decoration-color:#000;text-transform:none;block-progression:tb;isolation:auto;mix-blend-mode:normal"/></svg>